<?xml version="1.0" encoding="utf-8"?>
<!-- Generator: Adobe Illustrator 26.0.1, SVG Export Plug-In . SVG Version: 6.00 Build 0)  -->
<svg version="1.1" id="OBJECTS" xmlns="http://www.w3.org/2000/svg" xmlns:xlink="http://www.w3.org/1999/xlink" x="0px" y="0px"
	 viewBox="0 0 1237.3 619.5" style="enable-background:new 0 0 1237.3 619.5;" xml:space="preserve">
<style type="text/css">
	.st0{fill-rule:evenodd;clip-rule:evenodd;fill:#FFFFFF;}
	.st1{fill-rule:evenodd;clip-rule:evenodd;fill:#15375E;}
	.st2{fill-rule:evenodd;clip-rule:evenodd;fill:#071A30;}
	.st3{clip-path:url(#SVGID_00000065039752646143209440000013760110897924708791_);}
	.st4{fill-rule:evenodd;clip-rule:evenodd;fill:#040D17;}
	.st5{fill-rule:evenodd;clip-rule:evenodd;fill:none;stroke:#071A30;stroke-width:1.9199;stroke-miterlimit:22.9256;}
</style>
<g>
	<path class="st0" d="M1098.2,250.1c19.6-33.2,104.7-51.6,142.6-2.5v68H1.8v-94.5c35.2-16,90.1-15.6,117,23.5
		c9.8-7.2,26.2-4,35.7,2.2c38.4-16.7,100.8-7.2,110,22.6c14.2-2.9,29.8-2,37.3,5.9c27.8-11,93.5-7.5,93.1,8.6c0,0,0,0.1,0,0.1
		c19-3.5,40.4-0.8,52.5,10.2c21.3-36.1,115.2-55.7,154.1,0.9c9.6-7.1,25.2-4.7,35.5,0.9c20.4-8.9,50.2-8.7,65.1,4.9
		c16.8-28.5,81.7-46,123.8-19.6c13.5-9,42.4-13.8,62.5-8.7c18.8-25.9,69.8-31.1,103.1-19.6c8.6-2,19.1-1.8,26.7,2
		C1034.7,237.3,1078.9,232.6,1098.2,250.1z"/>
	<path class="st1" d="M1.8,240.3c38.4,7.5,101-19.5,136-19.5s89,50.1,147.5,46c58.5-4.1,82.9,21.8,129.8,23.6
		c45.6,1.8,97.4,6.8,127.7,25.3H1.8V240.3z"/>
	<path class="st1" d="M1240.9,225.9c-38.4,7.5-83.5,39.7-127.6,47.7c-44.1,8-62.7-7.8-110.3-2.7c-47.6,5.1-100.8,22.9-145.4,23.6
		c-39.2,0.6-123.7-1.5-145.2,21.2h528.5V225.9z"/>
	<path class="st1" d="M867.6,300.7c1.3,2,4.5,3.6,4.2,2.9c-0.1-0.3-2.3-2.7-1.5-2.1c1.5,1.2,4.9,2.7,3.5,1.5
		c-0.6-0.6-1.9-1.9-1.4-1.7c0.9,0.3,4.7,0.5,4,0.1c-0.1-0.1-3.7-1.7-2.5-1.3c0.9,0.3,4.6,1,6.7,1c0.8,0-3.4-1.2-2.2-1
		c2.5,0.4,8.2,0.4,7.3-0.1c-1.1-0.5-4-1.7-3.3-1.5c1.7,0.7,10,1.4,8.9,0.7c-0.7-0.4-5.5-1.5-3.9-1.3c1,0.2,6.7-0.2,5.6-0.5
		c-1.1-0.3-4.8-0.3-7.2-1.1c-1.3-0.5,5.8,0,4.2-0.5c-0.8-0.2-4.5-0.6-3.6-0.8c0.8-0.2,3.1,0.2,5.2-0.2c0.7-0.1-5-0.4-4-0.7
		c0.6-0.2,2.2-0.3,3.8-1.1c0.3-0.1-6.8,0.7-5.3,0.3c0.8-0.2,1.4-0.4,2.6-1.2c1.1-0.7-3.5,0.2-5.4,0.2c-3.5-0.1,9.6-2.4,6.9-2.6
		c-1.3-0.1-5.8,0.3-5.4,0.1c1.3-0.7,7.2-2.9,5.5-2.7c-1.4,0.1-6.1,1.3-5,0.8c1-0.4,4.1-3.3,2.2-2.4c-1.5,0.7-8.8,1.3-7.4,1.2
		c1.6-0.2,3.8-1.1,2.9-1c-1.1,0.1-3.4-0.3-1.8-0.5c1.4-0.2,5.3-0.7,4.4-0.8c-0.3,0-4.2-0.3-3.1-0.6c0.9-0.2,4.3-1.5,3-1.4
		c-5.8,0.7-8.6-0.3-7.9-0.3c2.8,0,4.8-0.4,3.5-0.5c-1.5-0.1-2.2-0.5-1.6-0.5c1.4,0.1,6.7-0.4,5.4-0.5c-2.2-0.1-4.8,0-3.5-0.3
		c1.8-0.3,4.2-1.6,3.1-1.3c-7.2,1.6-13.8,0.9-11.7,0.7c1.3-0.1,5.2-0.8,3.4-0.9c-0.4,0-4.1-0.3-2.8-0.4c2.2-0.1,5.3-0.8,4.6-0.8
		c-1.1-0.1-3.8-0.7-2.7-0.7c2.1,0.1,5.7-0.7,4.5-0.7c-1.7-0.1-3.1-0.7-2.3-0.8c0.8,0,2.7-0.7,3.7-1.3c1-0.5-5,0.2-3.7-0.5
		c1.3-0.7,6.1-4.4,3.4-3.3c-6.4,2.5-10.5,1.2-8.2,1.2c1.5,0,3.5-0.4,2.1-0.5c-1.4-0.1-3.6-0.9-2.3-0.8c3.4,0.4,5.9-0.5,5.2-0.5
		c-0.1,0-3.3,0.1-2.8,0c1.5-0.2,6.1-2.3,4.3-1.8c-4.8,1.2-12.4,1.2-9.9,0.8c1.6-0.2,4.8-1,2.6-1.1c-1.7-0.1-4.3-0.6-2.6-0.7
		c1.6-0.1,5.3-0.7,3.7-0.9c-1.7-0.2-3.3-1.4-2.2-1c2.2,0.6,6.1,0.6,4.8,0.2c-1.3-0.4-2.4-1.3-1.6-1.1c3.1,0.9,5.5,0,5,0
		c-2.5-0.1-6.7-1.3-5.4-1.2c0.8,0.1,4.3,0,2.8-0.3c-1.3-0.2-2.3-0.7-1.2-0.7c2.3,0,3.8-0.8,3-0.7c-1.8,0.1-8.5-0.3-6.6-0.6
		c1.5-0.2,3.5-1.3,2.6-1.1c-1.9,0.3-5,0.5-3.8,0.2c0.6-0.1,3.9-1.1,2.2-1c-1.8,0.1-3.1-0.3-2.4-0.4c3.2-0.3,5.9-1.7,4.8-1.6
		c-3.7,0.6-9-1-6.7-1.2c1-0.1,4.3-1,2.4-0.9c-1.3,0.1-3.7-0.6-3-0.6c1.4,0,5.2-1.2,4-1.1c-1.3,0.1-3.8-0.3-3.1-0.5
		c0.8-0.1,3.9-1.4,2.1-1.3c-1.4,0.1-3.9-0.8-2.8-0.8c0.8,0,3.5-1,1.7-1c-0.3,0-3.5-0.3-2.5-0.5c1.4-0.3,3.5-1.4,1.8-1.2
		c-0.5,0.1-2.2,0.1-2.4-0.3c-0.2-0.4,0.1-1.7-0.5-2.6c-0.6-0.8,0.5,2.6-0.9,2.7c-0.3,0-0.6,0-1.8,0c-1,0,3.1,1.1,1.6,1.3
		c-1.2,0.2-1.8,0.1-2.3,0c-1.1-0.2,0.6,1.1,2.1,1.5c0.7,0.2-2.1,0.5-3.5,0.1c-1.1-0.3,0.7,0.9,2.8,1c1.8,0-1.6,0.9-2.3,0.9
		c-0.7,0,1.2,0.6,2.7,0.7c1.3,0.1-2.5,0.8-3.3,0.9c-0.9,0,0.6,0.6,2.7,0.9c1.6,0.2-2.9,1.4-5.7,0.8c-1.2-0.3,2.2,1.5,4.3,1.9
		c1.1,0.2-4.4,0-6.5-0.6c-2.3-0.7,1.4,1.7,4.5,2c2,0.2-1.7,0.5-3,0.5c-1.5,0,1.6,1,5.1,0.4c1.4-0.2-2.7,2.4-8.4,1.9
		c-4.9-0.5,1.6,1.4,4.6,1.4c1.5,0-1.9,0.7-3.3,0.9c-1.4,0.2,4.2,0.9,6.2,0.6c2-0.4-2.7,1.3-4.4,1.1s2.6,0.8,4.6,0.7
		c2,0-3.3,1.1-7.3-0.4c-1.4-0.5,1.2,1.5,2.3,1.9c1,0.4-1,0.5-1.8,0.4c-1.3-0.1,2.3,0.9,4.3,1c2.1,0.1-4.6,0.4-6.5,0.3
		c-2.3-0.1,3.2,1.2,5.7,0.9c1.5-0.2-3.2,0.8-5,1.1c-1.8,0.4,3.1,0.4,5.2,0.1c3.6-0.6-2.1,1.5-6.9,1c-1.5-0.1,2.2,1.1,3.8,1.2
		c1.6,0.1-2.7,0.5-4.4,0.6c-1.5,0.1,2.9,1.2,5.6,1.1c1.8-0.1-1.8,1.3-6.9,1.2c-5.4,0,2.1,1.3,4.2,1.2c1.1-0.1-1.3,1-5.1,1.1
		c-3,0.1,3,1.3,5.9,0.9c2-0.3-0.8,0.8-2.5,1c-2.4,0.3,3.7,1.2,5.6,1.1c2.9-0.1-6.7,1.3-12.2,0.7c-1.7-0.2,3.5,1.4,5.6,1.6
		c2.1,0.2-3.3,0.7-4.8,1c-1.7,0.3,4.7,1.2,8.2,0.6c1.7-0.3-5.9,2.1-8.2,2.1c-2.4,0-0.5,1.1,5.4,0.5c2-0.2-3.8,1.3-5.6,1.2
		c-3.2-0.1,0.6,1.3,7.3,0.3c2.8-0.4-4.2,2-10.7,1.6c-2-0.1,1,1.4,6.7,0.8c0.9-0.1-3.7,1.1-5.4,1.2c-1.7,0.1,1.6,0.8,6.5,0.3
		c5-0.5-1.2,1-2.7,1.1c-1.4,0.1-0.2,0.7,2.7,0.4c3.1-0.3-7.2,1.7-10.1,1.8c-4.8,0,1.9,1.4,5.7,0.9c1.9-0.2-2.3,1.2-4.1,1.3
		c-1.7,0.1,1.8,0.8,5.2,0.2c3.4-0.6-0.1,1.2-1.5,1.7c-4,1.4,5-0.4,7.4-1.6c1-0.5-1.2,2.3-2.2,3c-2.8,1.8,4.7-1.3,6.2-2.6
		c1-0.9,1.3,1.5,0.9,2.4c-0.4,1,1.4,0,2.5-2.2c1-1.9,0.6,1.9,0.4,2.8c-0.2,0.9,1.8-0.4,2.2-2.4c0.3-1.4,1.1,0,1.6,1.2
		c0.6,1.3,1.5,2.7,1.3,1C866.5,301.4,866.9,299.7,867.6,300.7z"/>
	<path class="st1" d="M912.6,293.7c-1.6,2.5-5.6,4.4-5.2,3.6c0.1-0.4,2.8-3.4,1.9-2.6c-1.9,1.5-6,3.4-4.3,1.8
		c0.8-0.7,2.4-2.3,1.7-2.1c-1.2,0.3-5.9,0.7-5,0.1c0.2-0.1,4.6-2.1,3.1-1.7c-1.2,0.4-5.7,1.3-8.3,1.2c-1,0,4.2-1.5,2.7-1.3
		c-3.1,0.6-10.2,0.5-9.1-0.1c1.3-0.7,4.9-2.1,4.1-1.8c-2.1,0.8-12.5,1.7-11,0.9c0.8-0.4,6.8-1.9,4.8-1.6c-1.3,0.2-8.4-0.2-6.9-0.6
		c1.4-0.4,6-0.4,8.9-1.3c1.7-0.6-7.1,0-5.2-0.6c1.1-0.3,5.6-0.8,4.5-1c-1-0.3-3.8,0.3-6.5-0.2c-0.8-0.2,6.2-0.5,5-0.9
		c-0.8-0.3-2.7-0.3-4.7-1.4c-0.3-0.2,8.4,0.8,6.6,0.4c-1-0.2-1.8-0.5-3.3-1.5c-1.4-0.9,4.4,0.3,6.6,0.2c4.3-0.1-11.9-3-8.6-3.2
		c1.6-0.1,7.3,0.4,6.7,0.1c-1.7-0.9-9-3.5-6.9-3.4c1.7,0.2,7.5,1.6,6.3,1c-1.3-0.5-5.1-4.1-2.8-3c1.8,0.8,10.9,1.6,9.2,1.4
		c-1.9-0.2-4.8-1.3-3.6-1.2c1.4,0.1,4.2-0.3,2.2-0.6c-1.7-0.2-6.6-0.8-5.5-1c0.4-0.1,5.2-0.4,3.8-0.7c-1.1-0.2-5.4-1.9-3.8-1.7
		c7.2,0.9,10.7-0.3,9.8-0.4c-3.4,0-5.9-0.5-4.3-0.6c1.9-0.1,2.8-0.7,1.9-0.6c-1.7,0.1-8.3-0.6-6.7-0.6c2.7-0.1,6,0,4.3-0.3
		c-2.3-0.4-5.3-2-3.9-1.6c8.9,2,17.2,1.1,14.5,0.9c-1.6-0.1-6.5-1-4.2-1.1c0.5,0,5.1-0.4,3.5-0.5c-2.7-0.1-6.6-0.9-5.7-1
		c1.3-0.1,4.8-0.9,3.4-0.9c-2.5,0.1-7.1-0.8-5.5-0.9c2.2-0.1,3.9-0.9,2.9-0.9c-1,0-3.3-0.9-4.6-1.6c-1.3-0.7,6.2,0.2,4.6-0.7
		c-1.6-0.9-7.5-5.4-4.2-4.2c8,3.1,13,1.5,10.2,1.5c-1.8,0-4.4-0.5-2.7-0.6c1.7-0.1,4.4-1.1,2.8-0.9c-4.2,0.5-7.3-0.6-6.5-0.6
		c0.1,0,4.1,0.1,3.5,0.1c-1.9-0.3-7.5-2.8-5.3-2.3c5.9,1.5,15.3,1.4,12.3,1c-2-0.3-5.9-1.2-3.2-1.3c2.1-0.1,5.3-0.8,3.3-0.9
		c-2-0.1-6.6-0.8-4.6-1.1c2.1-0.3,4.1-1.7,2.7-1.3c-2.7,0.8-7.6,0.7-5.9,0.2c1.7-0.5,3-1.6,2-1.3c-3.8,1.1-6.9,0.1-6.2,0
		c3.1-0.1,8.4-1.6,6.7-1.5c-1,0.1-5.3,0-3.5-0.3c1.6-0.3,2.9-0.9,1.5-0.9c-2.8,0-4.7-1-3.8-0.9c2.2,0.2,10.5-0.4,8.2-0.7
		c-1.9-0.3-4.3-1.6-3.2-1.4c2.3,0.4,6.2,0.6,4.7,0.2c-0.7-0.2-4.9-1.4-2.7-1.2c2.3,0.1,3.9-0.4,3-0.5c-3.9-0.4-7.3-2.2-6-2
		c4.6,0.7,11.2-1.2,8.3-1.5c-1.3-0.2-5.4-1.3-3-1.1c1.6,0.1,4.6-0.7,3.7-0.7c-1.8,0-6.5-1.5-5-1.4c1.6,0.1,4.8-0.4,3.8-0.6
		c-1-0.2-4.8-1.8-2.6-1.7c1.7,0.1,4.8-0.9,3.5-1c-1-0.1-4.4-1.2-2.1-1.2c0.4,0,4.3-0.4,3.1-0.7c-1.8-0.4-4.3-1.7-2.2-1.5
		c0.6,0.1,2.7,0.2,3-0.3c0.2-0.5-0.1-2.2,0.7-3.3c0.7-1-0.6,3.2,1.1,3.3c0.4,0,0.7,0,2.3,0.1c1.3,0-3.8,1.4-2,1.7
		c1.5,0.3,2.3,0.1,2.9,0c1.4-0.3-0.7,1.4-2.6,1.9c-0.9,0.2,2.7,0.6,4.4,0.1c1.3-0.4-0.9,1.2-3.4,1.2c-2.2,0,2,1.1,2.9,1.1
		c0.9,0-1.5,0.8-3.4,0.9c-1.6,0.1,3.2,1,4.2,1.1c1.1,0-0.8,0.7-3.3,1.1c-1.9,0.3,3.6,1.7,7,1c1.5-0.3-2.7,1.9-5.3,2.3
		c-1.4,0.2,5.5,0.1,8-0.7c2.8-0.8-1.7,2.1-5.6,2.5c-2.4,0.2,2.1,0.6,3.7,0.6c1.9,0-2,1.2-6.3,0.5c-1.7-0.3,3.3,3,10.4,2.3
		c6-0.6-2,1.8-5.7,1.7c-1.8,0,2.4,0.9,4.1,1.2c1.7,0.2-5.3,1.2-7.7,0.7c-2.4-0.4,3.3,1.6,5.5,1.3c2.2-0.2-3.2,1-5.7,0.9
		c-2.5,0,4.1,1.4,9-0.5c1.7-0.7-1.5,1.8-2.8,2.4c-1.2,0.5,1.3,0.6,2.2,0.5c1.7-0.2-2.8,1.2-5.4,1.3c-2.6,0.1,5.7,0.5,8.1,0.4
		c2.8-0.1-3.9,1.5-7,1.1c-1.9-0.2,4,1,6.2,1.4c2.2,0.4-3.8,0.5-6.5,0.1c-4.5-0.7,2.6,1.8,8.6,1.3c1.9-0.2-2.7,1.4-4.8,1.4
		c-2,0.1,3.4,0.6,5.4,0.7c1.8,0.1-3.6,1.5-6.9,1.3c-2.2-0.1,2.2,1.6,8.6,1.5c6.7,0-2.6,1.6-5.2,1.4c-1.4-0.1,1.6,1.2,6.3,1.3
		c3.8,0.1-3.7,1.6-7.3,1.1c-2.4-0.3,1,0.9,3.1,1.2c2.9,0.4-4.6,1.5-6.9,1.4c-3.6-0.2,8.3,1.6,15.1,0.8c2.1-0.2-4.3,1.8-6.9,2
		c-2.6,0.2,4.1,0.9,6,1.3c2.1,0.4-5.8,1.5-10.2,0.7c-2.1-0.4,7.3,2.6,10.2,2.6c3-0.1,0.6,1.3-6.7,0.6c-2.5-0.2,4.7,1.6,6.9,1.5
		c3.9-0.1-0.7,1.7-9.1,0.4c-3.4-0.5,5.2,2.5,13.3,2c2.5-0.2-1.2,1.8-8.4,1c-1.1-0.1,4.6,1.4,6.7,1.5c2.1,0.1-1.9,1-8.1,0.4
		c-6.2-0.6,1.5,1.3,3.3,1.4c1.8,0.2,0.2,0.8-3.4,0.5c-3.9-0.4,8.9,2.2,12.5,2.2c6,0.1-2.4,1.7-7.1,1.1c-2.3-0.3,2.9,1.5,5,1.6
		c2.1,0.1-2.3,1-6.4,0.2c-4.2-0.7,0.2,1.5,1.9,2.1c5,1.7-6.2-0.5-9.2-2c-1.3-0.7,1.5,2.9,2.7,3.7c3.5,2.3-5.9-1.6-7.7-3.2
		c-1.2-1.1-1.6,1.9-1.1,3c0.6,1.2-1.8,0-3.1-2.7c-1.2-2.3-0.8,2.3-0.5,3.5c0.2,1.2-2.2-0.5-2.8-3c-0.4-1.8-1.3-0.1-2,1.5
		c-0.7,1.6-1.9,3.3-1.6,1.3C913.9,294.5,913.5,292.4,912.6,293.7z"/>
	<path class="st0" d="M1098.2,381.3c19.6,33.2,104.7,51.6,142.6,2.5v-68H1.8v94.5c35.2,16,90.1,15.6,117-23.5
		c9.8,7.2,26.2,4,35.7-2.2c38.4,16.7,100.8,7.2,110-22.6c14.2,2.9,29.8,2,37.3-5.9c27.8,11,93.5,7.5,93.1-8.6c0,0,0-0.1,0-0.1
		c19,3.5,40.4,0.8,52.5-10.2c21.3,36.1,115.2,55.7,154.1-0.9c9.6,7.1,25.2,4.7,35.5-0.9c20.4,8.9,50.2,8.7,65.1-4.9
		c16.8,28.5,81.7,46,123.8,19.6c13.5,9,42.4,13.8,62.5,8.7c18.8,25.9,69.8,31.1,103.1,19.6c8.6,2,19.1,1.8,26.7-2
		C1034.7,394,1078.9,398.8,1098.2,381.3z"/>
	<path class="st1" d="M1.8,391.1c38.4-7.5,101,19.5,136,19.5s89-50.1,147.5-46c58.5,4.1,82.9-21.8,129.8-23.6
		c45.6-1.8,97.4-6.8,127.7-25.3H1.8V391.1z"/>
	<path class="st1" d="M1240.9,405.5c-38.4-7.5-83.5-39.7-127.6-47.7c-44.1-8-62.7,7.8-110.3,2.7c-47.6-5.1-100.8-22.9-145.4-23.6
		c-39.2-0.6-123.7,1.5-145.2-21.2h528.5V405.5z"/>
	<g>
		<path class="st2" d="M817.9,370.7c-1.3-2.8-7.3-14.4-7.8-15.3c-5.9-3.3-11.9-5.1-19-5.8h-58c0,0-9.4,9.5-10.2,11.3
			C757,357,787,359.1,817.9,370.7z"/>
		<path class="st2" d="M743.5,359.8l2.6,0.4c-0.1,0.3-0.1,0.6-0.2,0.8c1.3,0.3,2.8,1.5,4.1,1.8C760,356.3,743.6,349.5,743.5,359.8z"
			/>
		<path class="st2" d="M744.2,371.4c-2.3,0.7-7.4,2.1-9.4,2.7c-1.5,0.2-1.6-1.1-0.6-1.8c1.8-1.2,7.1-3.3,9.1-3.9
			C745.7,367.9,746.4,370.7,744.2,371.4z"/>
		<path class="st2" d="M730.5,376.4c0.8-1.2,2.9-3.5,3.7-4c1.2-0.8,3.5,0.2,2.4,1.1c-0.8,0.7-3.2,3.1-4.2,4.2
			C732.1,377.5,731.1,376.9,730.5,376.4z"/>
		<path class="st2" d="M751.5,370.3c-1.4,1.1-8.2,1.4-9,0.5c-0.1-1.7,0.6-5.4,0.5-11.4c0-1.3,10.2-0.8,9.2,1.4c-1.1,2.3-1,5-1,6.4
			C751.2,368.5,752.3,369.6,751.5,370.3z"/>
		<path class="st2" d="M751.9,368.8c-0.6-2-1.2-4.8-2.5-6.2c-0.9-1-2.1-0.2-1.8,1c0.4,1.6,0.7,3.7,1.2,6
			C749.3,371.6,752.4,370.7,751.9,368.8z"/>
		<path class="st2" d="M744.9,373.1l0.3-2.4c0.2-0.9,3-0.7,2.7,0.6l-0.3,2.1C747.6,374.5,744.8,374.3,744.9,373.1z"/>
		<path class="st2" d="M745.4,378.6c3.1-0.1,3.7-2.7,2.8-4.5c-0.4-0.8-1.7-2.4-3.6-2.4c-1.2,0-2.1,1.3-2.4,2.8
			C741.8,376.5,742.6,378.6,745.4,378.6z"/>
		<path class="st2" d="M746.5,378.1c0.2-1.8-0.5-4.8,0.8-5.4C749.8,374.4,750.1,378.7,746.5,378.1z"/>
		<path class="st2" d="M748.1,377.1c-0.9,2.1-3.5,1.9-5.2,0.9C737.8,374.9,745.7,376.3,748.1,377.1z"/>
		<path class="st2" d="M742.3,361.3c1.7,0.1,5.7,0.6,6.6,1c1.3,0.6,1,2.3-0.5,2c-1.5-0.3-5-0.6-6.6-1
			C741.7,362.8,741.9,361.9,742.3,361.3z"/>
		<path class="st2" d="M730.9,378.8c-0.4,0.8-0.6,1.5-0.4,1.5c0.4,0,0.7-1.2,1.2-1.7c-0.1,0.2-0.2,0.6,0,0.7
			c0.6,0.2,0.9-2.5,0.2-2.7c-1.3-0.4-3.2,2.7-2.7,2.9c0.2,0.1,0.2-0.3,0.7-0.9c-0.4,0.6-0.9,1.4-0.5,1.5c0.2,0.1,0.6-0.9,1-1.4
			c-0.3,0.6-0.9,1.7-0.6,1.7C730.2,380.4,730.4,379.3,730.9,378.8z"/>
		<path class="st2" d="M739.2,362.9c0.5,0,0.7,0,1.1,0.1c-0.3,0-0.7,0.1-0.7,0.3c0.1,0.5,3.1-0.4,3.1-1c0-0.6-1.3-1-2.5-1
			C739.8,361.3,737.8,362.9,739.2,362.9z"/>
	</g>
	<path class="st2" d="M1240.9,417.4v202.1H1.8V431.1c84.3-1.5,205.9,22.5,239.1,21.1c35.6-1.5,172.8-16,228.7-20.4
		c55.9-4.4,132.1,26.2,165.2,26.2c33,0,180.4-30.6,226.2-32.1c45.7-1.5,83.9,24.8,132.1,23.3
		C1041.1,447.9,1179.2,423.5,1240.9,417.4z"/>
	<g>
		<defs>
			<rect id="SVGID_1_" width="1239" height="619.5"/>
		</defs>
		<clipPath id="SVGID_00000122720027012325220260000000111383642328194946_">
			<use xlink:href="#SVGID_1_"  style="overflow:visible;"/>
		</clipPath>
		<g style="clip-path:url(#SVGID_00000122720027012325220260000000111383642328194946_);">
			<path class="st2" d="M78.2,456.8c-8.4,13.3-29.5,23.3-27.6,18.8c0.8-1.9,14.9-17.6,9.8-13.6c-10.1,7.9-31.8,17.7-22.6,9.6
				c4.2-3.7,12.7-12.1,9.1-11.1c-6.1,1.6-30.9,3.5-26.3,0.7c0.8-0.5,24.2-11.3,16.5-8.8c-6.2,2-29.8,6.8-43.6,6.4
				c-5.2-0.2,22.3-8.1,14.3-6.7c-16.1,2.9-53.8,2.4-47.9-0.6c6.9-3.5,26-11.2,21.7-9.5c-11,4.4-65.5,8.8-57.8,4.8
				c4.3-2.3,35.8-10.1,25.4-8.4c-6.7,1.1-44-1-36.3-3.1c7.5-2.1,31.6-1.9,46.8-7.1c8.7-3-37.6-0.2-27.5-3c5.5-1.5,29.4-4,23.6-5.5
				c-5.4-1.4-20,1.4-34.2-1.2c-4.4-0.8,32.5-2.8,26.4-4.8c-4.1-1.4-14.2-1.7-24.9-7.2c-1.8-0.9,44.3,4.4,34.7,2.2
				c-5.2-1.2-9.4-2.8-17.2-7.8c-7.1-4.6,23.1,1.5,35,1.1c22.7-0.8-62.5-15.5-45.4-17.1c8.4-0.7,38.2,2.2,35.2,0.6
				c-8.8-4.7-47.2-18.6-36.2-17.7c9,0.8,39.6,8.2,32.9,5.4c-6.7-2.8-26.8-21.3-14.5-15.8c9.7,4.3,57.2,8.7,48.4,7.6
				c-10.2-1.3-25-6.9-18.7-6.5c7.4,0.4,21.9-1.7,11.4-3c-9-1.1-34.5-4.4-29-5.2c2.1-0.3,27.6-2.3,20.1-3.7
				c-5.9-1.1-28.2-9.9-19.9-8.9c38,4.5,56.3-1.8,51.3-1.9c-18-0.2-31.2-2.7-22.6-3.1c9.9-0.4,14.6-3.5,10.2-3.3
				c-9.1,0.4-43.8-2.9-35.4-3.3c14.1-0.7,31.4-0.1,22.6-1.7c-12-2.2-27.9-9.4-20.4-8.7c72.6,6.9,82.5-0.3,74.8-0.1
				c-31.1,0.9-38-4.2-33-4.7c7-0.7,27.2-8,19.8-7.6c-13.4,0.7-38.4-5.4-30.3-5.7c11.4-0.3,20.3-4.7,15.2-5c-5.2-0.2-17.4-4.7-24-8.2
				c-6.7-3.5,32.7,1.2,24.4-3.4c-8.3-4.6-39.5-28.5-22.2-21.9c41.9,16.1,68.4,7.9,53.4,7.8c-9.5-0.1-23.1-2.4-14-3
				c9.1-0.6,23.2-5.9,14.8-4.9c-22.2,2.5-38.6-3.2-34.2-3.3c0.8,0,21.5,0.8,18.5,0.3c-9.9-1.5-39.6-15-28-12
				c31.3,8,80.8,7.5,64.9,5.2c-10.7-1.6-31.2-6.5-17-7c11.2-0.4,28-4.2,17.3-4.7c-10.8-0.5-34.9-4.3-24-5.9
				c10.9-1.6,21.8-8.9,14.1-6.7c-14.4,4.1-40,3.7-31.2,1.3c8.8-2.4,15.6-8.3,10.6-6.9c-20.1,5.8-36.2,0.3-32.5,0.2
				c16.4-0.4,44.1-8.6,35-7.7c-5.3,0.5-28.1,0-18.4-1.8c8.4-1.5,15.1-4.5,8.1-4.5C13,205.5,3,200.5,8,200.9
				c11.6,0.9,55.3-1.9,42.9-3.6c-10.1-1.4-22.6-8.3-16.7-7.2c12.1,2.2,32.5,2.9,24.9,1.2c-3.8-0.9-25.6-7.2-14.3-6.5
				c12,0.8,20.5-2.2,15.5-2.7c-20.6-1.9-38.3-11.4-31.5-10.3c24.1,3.9,59-6.2,43.9-8.1c-6.7-0.8-28.3-6.6-16-6
				c8.7,0.4,24.2-3.6,19.3-3.7c-9.4-0.1-34.1-7.9-26.3-7.5c8.4,0.5,25-2.1,20-2.9c-5.4-1-25.2-9.3-13.8-8.7c9,0.5,25.3-5,18.2-5.3
				c-5.4-0.3-22.9-6.5-11.2-6.3c1.9,0,22.6-2.3,16.2-3.6c-9.3-1.9-22.7-9.1-11.8-7.9c3.4,0.4,14.4,0.8,15.6-1.8
				c1.1-2.4-0.4-11.4,3.5-17.2c3.6-5.4-3.2,16.8,5.7,17.3c2,0.1,3.9,0.2,11.9,0.3c6.7,0.1-20,7.2-10.6,8.7c8,1.3,12,0.7,15.2,0
				c7.1-1.5-3.8,7.5-13.7,10c-4.6,1.1,14,3.3,23.1,0.7c7-2-4.5,6.1-18.1,6.4c-11.6,0.2,10.3,5.6,15,5.8c4.7,0.2-7.7,4.1-17.7,4.8
				c-8.2,0.6,16.6,5.4,21.8,5.6c5.9,0.3-4.2,3.9-17.4,6c-10.2,1.6,18.9,9,37,5.2c8-1.7-14.2,9.9-28.1,12.2
				c-7.5,1.2,28.9,0.3,42.3-3.8c14.8-4.5-9.2,11.1-29.3,13c-12.9,1.2,11,3.3,19.5,3.2c9.8,0-10.7,6.3-33.1,2.4
				c-9.1-1.6,17.3,15.8,54.9,12.1c31.8-3.1-10.7,9.3-29.9,9.1c-9.5-0.1,12.5,4.8,21.5,6.1c9,1.3-27.6,6.1-40.4,3.8
				c-12.8-2.4,17.5,8.2,28.8,6.9c11.3-1.2-17,5.1-30.2,4.9c-13.3-0.3,21.5,7.2,47.6-2.6c9.1-3.4-8,9.6-15,12.6
				c-6.4,2.8,6.7,3.3,11.8,2.8c8.8-0.9-14.8,6.1-28.4,6.8c-13.5,0.7,30.1,2.7,42.5,2.2c14.9-0.7-20.7,8-37,5.9
				c-9.9-1.3,21.2,5.1,32.8,7.5c11.7,2.4-20,2.6-34.2,0.4c-23.7-3.7,13.9,9.6,45.4,6.7c9.9-0.9-14.1,7.2-25,7.6
				c-10.5,0.4,17.8,3.4,28.6,3.8c9.7,0.4-19.1,8-36.3,6.9c-11.7-0.8,11.6,8.2,45,8c35.5-0.2-13.5,8.6-27.5,7.6
				c-7.1-0.5,8.6,6.2,33.1,7.1c19.7,0.7-19.4,8.3-38.5,5.9c-12.9-1.6,5.2,5,16.4,6.6c15.5,2.2-24,7.8-36.5,7.2
				c-19.1-0.9,43.9,8.3,79.4,4.4c10.9-1.2-22.8,9.3-36.3,10.3c-13.5,1,21.7,4.9,31.4,6.9c11,2.3-30.6,7.8-53.4,3.7
				c-10.8-1.9,38.4,13.7,53.5,13.4c15.7-0.3,3.1,6.9-35.3,3.3c-12.9-1.2,24.9,8.2,36.5,7.8c20.7-0.7-3.8,8.7-47.9,2
				c-18.1-2.7,27.2,13.1,69.8,10.3c13.2-0.9-6.5,9.2-44,5c-6-0.7,24.2,7.5,35.5,7.8c11.3,0.4-10.2,5.4-42.7,2.3
				c-32.5-3.1,8,6.7,17.5,7.5c9.4,0.8,1.1,4.3-17.7,2.6c-20.5-1.9,47,11.4,65.9,11.6c31.4,0.3-12.6,9.1-37.3,6
				c-12.1-1.5,15.3,7.7,26.5,8.2c11.2,0.5-11.9,5.1-33.7,1.3c-22-3.8,0.8,8,9.8,11.1c26.2,9.1-32.7-2.8-48.2-10.8
				c-6.7-3.4,8,15.3,14.2,19.4c18.4,11.9-30.8-8.2-40.4-17c-6.6-6-8.3,9.9-5.7,15.6c2.9,6.2-9.4-0.2-16.6-14.2
				c-6.3-12.2-4,12.1-2.7,18.2c1.3,6.1-11.5-2.4-14.5-15.8c-2.2-9.5-6.9-0.3-10.5,8c-3.6,8.3-9.8,17.5-8.6,6.7
				C85.1,460.9,82.7,449.8,78.2,456.8z"/>
			<path class="st2" d="M1140.3,456.8c8.4,13.3,29.5,23.3,27.6,18.8c-0.8-1.9-14.9-17.6-9.8-13.6c10.1,7.9,31.8,17.7,22.6,9.6
				c-4.2-3.7-12.7-12.1-9.1-11.1c6.1,1.6,30.9,3.5,26.3,0.7c-0.8-0.5-24.2-11.3-16.5-8.8c6.2,2,29.8,6.8,43.6,6.4
				c5.2-0.2-22.3-8.1-14.3-6.7c16.1,2.9,53.8,2.4,47.9-0.6c-6.9-3.5-26-11.2-21.7-9.5c11,4.4,65.5,8.8,57.8,4.8
				c-4.3-2.3-35.8-10.1-25.4-8.4c6.7,1.1,44-1,36.3-3.1c-7.5-2.1-31.6-1.9-46.8-7.1c-8.7-3,37.6-0.2,27.5-3
				c-5.5-1.5-29.4-4-23.6-5.5c5.4-1.4,20,1.4,34.2-1.2c4.4-0.8-32.5-2.8-26.4-4.8c4.1-1.4,14.2-1.7,24.9-7.2
				c1.8-0.9-44.3,4.4-34.7,2.2c5.2-1.2,9.4-2.8,17.2-7.8c7.1-4.6-23.1,1.5-35,1.1c-22.7-0.8,62.5-15.5,45.4-17.1
				c-8.4-0.7-38.2,2.2-35.2,0.6c8.8-4.7,47.2-18.6,36.2-17.7c-9,0.8-39.6,8.2-32.9,5.4c6.7-2.8,26.8-21.3,14.5-15.8
				c-9.7,4.3-57.2,8.7-48.4,7.6c10.2-1.3,25-6.9,18.7-6.5c-7.4,0.4-21.9-1.7-11.4-3c9-1.1,34.5-4.4,29-5.2
				c-2.1-0.3-27.6-2.3-20.1-3.7c5.9-1.1,28.2-9.9,19.9-8.9c-38,4.5-56.3-1.8-51.3-1.9c18-0.2,31.2-2.7,22.6-3.1
				c-9.9-0.4-14.6-3.5-10.2-3.3c9.1,0.4,43.8-2.9,35.4-3.3c-14.1-0.7-31.4-0.1-22.6-1.7c12-2.2,27.7-10.3,20.4-8.7
				c-46.9,10.5-90.3,6-76.5,4.8c8.6-0.8,34.1-5.5,22.2-6c-2.8-0.1-26.8-2.1-18.4-2.5c14.3-0.6,34.9-5,30-5.5
				c-7-0.7-25.1-4.8-17.8-4.5c13.4,0.7,37.3-4.3,29.2-4.5c-11.4-0.3-20.3-4.7-15.2-5c5.2-0.2,17.4-4.7,24-8.2
				c6.7-3.5-32.7,1.2-24.4-3.4c8.3-4.6,39.5-28.5,22.2-21.9c-41.9,16.1-68.4,7.9-53.4,7.8c9.5-0.1,23.1-2.4,14-3
				c-9.1-0.6-23.2-5.9-14.8-4.9c22.2,2.5,38.6-3.2,34.2-3.3c-0.8,0-21.5,0.8-18.5,0.3c9.9-1.5,39.6-15,28-12
				c-31.3,8-80.8,7.5-64.9,5.2c10.7-1.6,31.2-6.5,17-7c-11.2-0.4-28-4.2-17.3-4.7c10.8-0.5,34.9-4.3,24-5.9
				c-10.9-1.6-21.8-8.9-14.1-6.7c14.4,4.1,40,3.7,31.2,1.3c-8.8-2.4-15.6-8.3-10.6-6.9c20.1,5.8,36.2,0.3,32.5,0.2
				c-16.4-0.4-44.1-8.6-35-7.7c5.3,0.5,28.1,0,18.4-1.8c-8.4-1.5-15.1-4.5-8.1-4.5c14.8-0.1,24.8-5,19.8-4.7
				c-11.6,0.9-55.3-1.9-42.9-3.6c10.1-1.4,22.6-8.3,16.7-7.2c-12.1,2.2-32.5,2.9-24.9,1.2c3.8-0.9,25.6-7.2,14.3-6.5
				c-12,0.8-20.5-2.2-15.5-2.7c20.6-1.9,38.3-11.4,31.5-10.3c-24.1,3.9-59-6.2-43.9-8.1c6.7-0.8,28.3-6.6,16-6
				c-8.7,0.4-24.2-3.6-19.3-3.7c9.4-0.1,34.1-7.9,26.3-7.5c-8.4,0.5-25-2.1-20-2.9c5.4-1,25.2-9.3,13.8-8.7c-9,0.5-25.3-5-18.2-5.3
				c5.4-0.3,22.9-6.5,11.2-6.3c-1.9,0-22.6-2.3-16.2-3.6c9.3-1.9,22.7-9.1,11.8-7.9c-3.4,0.4-14.4,0.8-15.6-1.8
				c-1.1-2.4,0.4-11.4-3.5-17.2c-3.6-5.4,3.2,16.8-5.7,17.3c-2,0.1-3.9,0.2-11.9,0.3c-6.7,0.1,20,7.2,10.6,8.7c-8,1.3-12,0.7-15.2,0
				c-7.1-1.5,3.8,7.5,13.7,10c4.6,1.1-14,3.3-23.1,0.7c-7-2,4.5,6.1,18.1,6.4c11.6,0.2-10.3,5.6-15,5.8c-4.7,0.2,7.7,4.1,17.7,4.8
				c8.2,0.6-16.6,5.4-21.8,5.6c-5.9,0.3,4.2,3.9,17.4,6c10.2,1.6-18.9,9-37,5.2c-8-1.7,14.2,9.9,28.1,12.2
				c7.5,1.2-28.9,0.3-42.3-3.8c-14.8-4.5,9.2,11.1,29.3,13c12.9,1.2-11,3.3-19.5,3.2c-9.8,0,10.7,6.3,33.1,2.4
				c9.1-1.6-17.3,15.8-54.9,12.1c-31.8-3.1,10.7,9.3,29.9,9.1c9.5-0.1-12.5,4.8-21.5,6.1c-9,1.3,27.6,6.1,40.4,3.8
				c12.8-2.4-17.5,8.2-28.8,6.9c-11.3-1.2,17,5.1,30.2,4.9c13.3-0.3-21.5,7.2-47.6-2.6c-9.1-3.4,8,9.6,15,12.6
				c6.4,2.8-6.7,3.3-11.8,2.8c-8.8-0.9,14.8,6.1,28.4,6.8c13.5,0.7-30.1,2.7-42.5,2.2c-14.9-0.7,20.7,8,37,5.9
				c9.9-1.3-21.2,5.1-32.8,7.5c-11.7,2.4,20,2.6,34.2,0.4c23.7-3.7-13.9,9.6-45.4,6.7c-9.9-0.9,14.1,7.2,25,7.6
				c10.5,0.4-17.8,3.4-28.6,3.8c-9.7,0.4,19.1,8,36.3,6.9c11.7-0.8-11.6,8.2-45,8c-35.5-0.2,13.5,8.6,27.5,7.6
				c7.1-0.5-8.6,6.2-33.1,7.1c-19.7,0.7,19.4,8.3,38.5,5.9c12.9-1.6-5.2,5-16.4,6.6c-15.5,2.2,24,7.8,36.5,7.2
				c19.1-0.9-43.9,8.3-79.4,4.4c-10.9-1.2,22.8,9.3,36.3,10.3c13.5,1-21.7,4.9-31.4,6.9c-11,2.3,30.6,7.8,53.4,3.7
				c10.8-1.9-38.4,13.7-53.5,13.4c-15.7-0.3-3.1,6.9,35.3,3.3c12.9-1.2-24.9,8.2-36.5,7.8c-20.7-0.7,3.8,8.7,47.9,2
				c18.1-2.7-27.2,13.1-69.8,10.3c-13.2-0.9,6.5,9.2,44,5c6-0.7-24.2,7.5-35.5,7.8c-11.3,0.4,10.2,5.4,42.7,2.3
				c32.5-3.1-8,6.7-17.5,7.5c-9.4,0.8-1.1,4.3,17.7,2.6c20.5-1.9-47,11.4-65.9,11.6c-31.4,0.3,12.6,9.1,37.3,6
				c12.1-1.5-15.3,7.7-26.5,8.2c-11.2,0.5,11.9,5.1,33.7,1.3c22-3.8-0.8,8-9.8,11.1c-26.2,9.1,32.7-2.8,48.2-10.8
				c6.7-3.4-8,15.3-14.2,19.4c-18.4,11.9,30.8-8.2,40.4-17c6.6-6,8.3,9.9,5.7,15.6c-2.9,6.2,9.4-0.2,16.6-14.2
				c6.3-12.2,4,12.1,2.7,18.2c-1.3,6.1,11.5-2.4,14.5-15.8c2.2-9.5,6.9-0.3,10.5,8c3.6,8.3,9.8,17.5,8.6,6.7
				C1133.4,460.9,1135.8,449.8,1140.3,456.8z"/>
			<path class="st2" d="M255.4,460.5c6.9,10.9,24.1,19.1,22.6,15.4c-0.6-1.5-12.2-14.4-8-11.1c8.3,6.5,26,14.5,18.5,7.9
				c-3.4-3-10.4-9.9-7.4-9.1c5,1.3,25.3,2.8,21.5,0.6c-0.6-0.4-19.8-9.2-13.5-7.2c5.1,1.6,24.3,5.6,35.6,5.2
				c4.2-0.1-18.3-6.6-11.7-5.4c13.2,2.4,44,2,39.2-0.5c-5.7-2.9-21.3-9.2-17.7-7.8c9,3.6,53.6,7.2,47.3,3.9
				c-3.5-1.9-29.3-8.2-20.7-6.9c5.5,0.9,36-0.8,29.7-2.5c-6.1-1.7-25.9-1.6-38.3-5.8c-7.1-2.4,30.7-0.2,22.5-2.4
				c-4.5-1.3-24.1-3.3-19.3-4.5c4.4-1.1,16.4,1.1,27.9-1c3.6-0.7-26.6-2.3-21.6-3.9c3.4-1.1,11.6-1.4,20.3-5.9
				c1.4-0.8-36.2,3.6-28.4,1.8c4.2-1,7.7-2.3,14-6.4c5.8-3.8-18.9,1.3-28.6,0.9c-18.6-0.6,51.1-12.7,37.1-14
				c-6.8-0.6-31.2,1.8-28.8,0.5c7.2-3.8,38.6-15.2,29.6-14.4c-7.4,0.7-32.4,6.7-26.9,4.4c5.5-2.3,22-17.4,11.8-13
				c-7.9,3.5-46.8,7.1-39.6,6.2c8.4-1,20.5-5.6,15.3-5.3c-6,0.3-17.9-1.4-9.4-2.4c7.3-0.9,28.2-3.6,23.7-4.3
				c-1.7-0.3-22.5-1.9-16.5-3c4.8-0.9,23.1-8.1,16.3-7.3c-31.1,3.7-46-1.5-42-1.5c14.8-0.1,25.6-2.2,18.5-2.5
				c-8.1-0.3-11.9-2.9-8.3-2.7c7.5,0.4,35.8-2.4,29-2.7c-11.5-0.5-25.7-0.1-18.5-1.4c9.8-1.8,22.7-8.4,16.7-7.1
				c-38.4,8.6-73.9,4.9-62.6,3.9c7-0.6,27.9-4.5,18.1-4.9c-2.3-0.1-21.9-1.7-15-2c11.7-0.5,28.6-4.1,24.5-4.5
				c-5.7-0.6-20.5-4-14.6-3.7c11,0.5,30.5-3.5,23.9-3.7c-9.3-0.3-16.6-3.9-12.4-4.1c4.2-0.2,14.2-3.8,19.7-6.7
				c5.5-2.9-26.8,1-20-2.8c6.8-3.8,32.3-23.3,18.2-17.9c-34.3,13.2-56,6.5-43.7,6.4c7.8-0.1,18.9-2,11.4-2.5c-7.5-0.5-19-4.8-12.1-4
				c18.2,2.1,31.5-2.6,28-2.7c-0.6,0-17.6,0.6-15.1,0.2c8.1-1.2,32.4-12.2,22.9-9.8c-25.6,6.6-66.1,6.2-53.1,4.3
				c8.7-1.3,25.6-5.3,13.9-5.7c-9.2-0.3-22.9-3.4-14.1-3.9c8.8-0.4,28.5-3.5,19.6-4.8c-8.9-1.3-17.9-7.3-11.6-5.5
				c11.8,3.3,32.7,3,25.5,1c-7.2-2-12.8-6.8-8.6-5.6c16.4,4.8,29.6,0.2,26.6,0.1c-13.4-0.3-36.1-7.1-28.7-6.3c4.3,0.4,23,0,15-1.4
				c-6.8-1.2-12.3-3.7-6.6-3.7c12.1-0.1,20.3-4.1,16.2-3.8c-9.5,0.7-45.2-1.6-35.1-2.9c8.2-1.1,18.5-6.8,13.6-5.9
				c-9.9,1.8-26.6,2.4-20.3,1c3.1-0.7,21-5.9,11.7-5.3c-9.8,0.6-16.7-1.8-12.7-2.2c16.9-1.5,31.3-9.3,25.7-8.4
				c-19.7,3.2-48.3-5.1-35.9-6.6c5.5-0.7,23.1-5.4,13.1-4.9c-7.1,0.3-19.8-3-15.8-3c7.7-0.1,27.9-6.5,21.5-6.1
				c-6.9,0.4-20.4-1.7-16.3-2.4c4.4-0.8,20.6-7.6,11.3-7.1c-7.4,0.4-20.7-4.1-14.9-4.4c4.4-0.2,18.7-5.3,9.1-5.2
				c-1.6,0-18.5-1.9-13.3-2.9c7.6-1.5,18.6-7.4,9.6-6.4c-2.8,0.3-11.8,0.7-12.8-1.5c-0.9-2,0.4-9.3-2.9-14.1
				c-3-4.4,2.6,13.7-4.7,14.2c-1.6,0.1-3.2,0.2-9.7,0.2c-5.5,0.1,16.3,5.9,8.7,7.1c-6.5,1.1-9.8,0.5-12.4,0
				c-5.8-1.2,3.1,6.1,11.2,8.2c3.7,0.9-11.5,2.7-18.9,0.6c-5.7-1.6,3.7,5,14.8,5.3c9.5,0.2-8.4,4.6-12.3,4.8
				c-3.9,0.2,6.3,3.3,14.4,3.9c6.7,0.5-13.6,4.4-17.9,4.6c-4.8,0.2,3.4,3.2,14.2,4.9c8.3,1.3-15.4,7.4-30.2,4.3
				c-6.6-1.4,11.6,8.1,23,10c6.1,1-23.7,0.2-34.6-3.1c-12.1-3.7,7.5,9.1,24,10.6c10.5,1-9,2.7-16,2.6c-8,0,8.7,5.1,27.1,1.9
				c7.5-1.3-14.2,12.9-44.9,9.9c-26-2.6,8.8,7.6,24.4,7.4c7.8-0.1-10.2,3.9-17.6,5c-7.3,1,22.6,5,33.1,3.1
				c10.5-1.9-14.3,6.7-23.6,5.7c-9.3-1,13.9,4.2,24.7,4c10.9-0.2-17.6,5.9-38.9-2.1c-7.4-2.8,6.5,7.8,12.2,10.3
				c5.2,2.3-5.5,2.7-9.6,2.3c-7.2-0.7,12.1,5,23.2,5.5c11.1,0.5-24.7,2.2-34.8,1.8c-12.1-0.5,16.9,6.6,30.3,4.9
				c8.1-1-17.3,4.2-26.8,6.1c-9.6,1.9,16.4,2.2,27.9,0.4c19.4-3-11.4,7.8-37.1,5.5c-8.1-0.7,11.5,5.9,20.5,6.2
				c8.5,0.3-14.5,2.8-23.4,3.1c-7.9,0.4,15.7,6.6,29.7,5.7c9.6-0.6-9.5,6.7-36.8,6.6c-29-0.2,11,7.1,22.5,6.2
				c5.8-0.4-7.1,5.1-27.1,5.8c-16.1,0.6,15.9,6.8,31.5,4.8c10.5-1.3-4.3,4.1-13.4,5.4c-12.7,1.8,19.6,6.3,29.9,5.9
				c15.6-0.7-35.9,6.8-65,3.6c-8.9-1,18.7,7.6,29.7,8.4c11,0.8-17.7,4-25.7,5.6c-9,1.9,25,6.4,43.7,3c8.8-1.6-31.4,11.2-43.8,11
				c-12.8-0.3-2.6,5.6,28.9,2.7c10.6-1-20.3,6.7-29.8,6.3c-16.9-0.6,3.1,7.1,39.2,1.7c14.8-2.2-22.3,10.7-57.1,8.4
				c-10.8-0.7,5.3,7.6,36,4.1c4.9-0.6-19.8,6.1-29,6.4c-9.2,0.3,8.4,4.4,34.9,1.9c26.6-2.5-6.6,5.5-14.3,6.1
				c-7.7,0.7-0.9,3.5,14.5,2.1c16.8-1.6-38.4,9.3-53.9,9.5c-25.7,0.3,10.3,7.4,30.5,4.9c9.9-1.2-12.5,6.3-21.7,6.7
				c-9.2,0.4,9.7,4.2,27.5,1.1c18-3.1-0.7,6.5-8,9.1c-21.4,7.4,26.7-2.3,39.4-8.8c5.5-2.8-6.5,12.6-11.6,15.8
				c-15,9.7,25.2-6.7,33.1-13.9c5.4-4.9,6.8,8.1,4.6,12.7c-2.4,5.1,7.7-0.1,13.5-11.6c5.1-10,3.3,9.9,2.2,14.8
				c-1.1,5,9.4-2,11.9-12.9c1.8-7.7,5.6-0.2,8.6,6.6c2.9,6.8,8,14.4,7,5.4C249.7,463.8,251.7,454.7,255.4,460.5z"/>
			<path class="st2" d="M950.1,460.5c-6.9,10.9-24.1,19.1-22.6,15.4c0.6-1.5,12.2-14.4,8-11.1c-8.3,6.5-26,14.5-18.5,7.9
				c3.4-3,10.4-9.9,7.4-9.1c-5,1.3-25.3,2.8-21.5,0.6c0.6-0.4,19.8-9.2,13.5-7.2c-5.1,1.6-24.3,5.6-35.6,5.2
				c-4.2-0.1,18.3-6.6,11.7-5.4c-13.2,2.4-44,2-39.2-0.5c5.7-2.9,21.3-9.2,17.7-7.8c-9,3.6-53.6,7.2-47.3,3.9
				c3.5-1.9,29.3-8.2,20.7-6.9c-5.5,0.9-36-0.8-29.7-2.5c6.1-1.7,25.9-1.6,38.3-5.8c7.1-2.4-30.7-0.2-22.5-2.4
				c4.5-1.3,24.1-3.3,19.3-4.5c-4.4-1.1-16.4,1.1-27.9-1c-3.6-0.7,26.6-2.3,21.6-3.9c-3.4-1.1-11.6-1.4-20.3-5.9
				c-1.4-0.8,36.2,3.6,28.4,1.8c-4.2-1-7.7-2.3-14-6.4c-5.8-3.8,18.9,1.3,28.6,0.9c18.6-0.6-51.1-12.7-37.1-14
				c6.8-0.6,31.2,1.8,28.8,0.5c-7.2-3.8-38.6-15.2-29.6-14.4c7.4,0.7,32.4,6.7,26.9,4.4c-5.5-2.3-22-17.4-11.8-13
				c7.9,3.5,46.8,7.1,39.6,6.2c-8.4-1-20.5-5.6-15.3-5.3c6,0.3,17.9-1.4,9.4-2.4c-7.3-0.9-28.2-3.6-23.7-4.3
				c1.7-0.3,22.5-1.9,16.5-3c-4.8-0.9-23.1-8.1-16.3-7.3c31.1,3.7,46-1.5,42-1.5c-14.8-0.1-25.6-2.2-18.5-2.5
				c8.1-0.3,11.9-2.9,8.3-2.7c-7.5,0.4-35.8-2.4-29-2.7c11.5-0.5,25.7-0.1,18.5-1.4c-9.8-1.8-22.7-8.4-16.7-7.1
				c38.4,8.6,73.9,4.9,62.6,3.9c-7-0.6-27.9-4.5-18.1-4.9c2.3-0.1,21.9-1.7,15-2c-11.7-0.5-28.6-4.1-24.5-4.5
				c5.7-0.6,20.5-4,14.6-3.7c-11,0.5-30.5-3.5-23.9-3.7c9.3-0.3,16.6-3.9,12.4-4.1c-4.2-0.2-14.2-3.8-19.7-6.7
				c-5.5-2.9,26.8,1,20-2.8c-6.8-3.8-32.3-23.3-18.2-17.9c34.3,13.2,56,6.5,43.7,6.4c-7.8-0.1-18.9-2-11.4-2.5
				c7.5-0.5,19-4.8,12.1-4c-18.2,2.1-31.5-2.6-28-2.7c0.6,0,17.6,0.6,15.1,0.2c-8.1-1.2-32.4-12.2-22.9-9.8
				c25.6,6.6,66.1,6.2,53.1,4.3c-8.7-1.3-25.6-5.3-13.9-5.7c9.2-0.3,22.9-3.4,14.1-3.9c-8.8-0.4-28.5-3.5-19.6-4.8
				c8.9-1.3,17.9-7.3,11.6-5.5c-11.8,3.3-32.7,3-25.5,1c7.2-2,12.8-6.8,8.6-5.6c-16.4,4.8-29.6,0.2-26.6,0.1
				c13.4-0.3,36.1-7.1,28.7-6.3c-4.3,0.4-23,0-15-1.4c6.8-1.2,12.3-3.7,6.6-3.7c-12.1-0.1-20.3-4.1-16.2-3.8
				c9.5,0.7,45.2-1.6,35.1-2.9c-8.2-1.1-18.5-6.8-13.6-5.9c9.9,1.8,26.6,2.4,20.3,1c-3.1-0.7-21-5.9-11.7-5.3
				c9.8,0.6,16.7-1.8,12.7-2.2c-16.9-1.5-31.3-9.3-25.7-8.4c19.7,3.2,48.3-5.1,35.9-6.6c-5.5-0.7-23.1-5.4-13.1-4.9
				c7.1,0.3,19.8-3,15.8-3c-7.7-0.1-27.9-6.5-21.5-6.1c6.9,0.4,20.4-1.7,16.3-2.4c-4.4-0.8-20.6-7.6-11.3-7.1
				c7.4,0.4,20.7-4.1,14.9-4.4c-4.4-0.2-18.7-5.3-9.1-5.2c1.6,0,18.5-1.9,13.3-2.9c-7.6-1.5-18.6-7.4-9.6-6.4
				c2.8,0.3,11.8,0.7,12.8-1.5c0.9-2-0.4-9.3,2.9-14.1c3-4.4-2.6,13.7,4.7,14.2c1.6,0.1,3.2,0.2,9.7,0.2c5.5,0.1-16.3,5.9-8.7,7.1
				c6.5,1.1,9.8,0.5,12.4,0c5.8-1.2-3.1,6.1-11.2,8.2c-3.7,0.9,11.5,2.7,18.9,0.6c5.7-1.6-3.7,5-14.8,5.3c-9.5,0.2,8.4,4.6,12.3,4.8
				c3.9,0.2-6.3,3.3-14.4,3.9c-6.7,0.5,13.6,4.4,17.9,4.6c4.8,0.2-3.4,3.2-14.2,4.9c-8.3,1.3,15.4,7.4,30.2,4.3
				c6.6-1.4-11.6,8.1-23,10c-6.1,1,23.7,0.2,34.6-3.1c12.1-3.7-7.5,9.1-24,10.6c-10.5,1,9,2.7,16,2.6c8,0-8.7,5.1-27.1,1.9
				c-7.5-1.3,14.2,12.9,44.9,9.9c26-2.6-8.8,7.6-24.4,7.4c-7.8-0.1,10.2,3.9,17.6,5c7.3,1-22.6,5-33.1,3.1
				c-10.5-1.9,14.3,6.7,23.6,5.7c9.3-1-13.9,4.2-24.7,4c-10.9-0.2,17.6,5.9,38.9-2.1c7.4-2.8-6.5,7.8-12.2,10.3
				c-5.2,2.3,5.5,2.7,9.6,2.3c7.2-0.7-12.1,5-23.2,5.5c-11.1,0.5,24.7,2.2,34.8,1.8c12.1-0.5-16.9,6.6-30.3,4.9
				c-8.1-1,17.3,4.2,26.8,6.1c9.6,1.9-16.4,2.2-27.9,0.4c-19.4-3,11.4,7.8,37.1,5.5c8.1-0.7-11.5,5.9-20.5,6.2
				c-8.5,0.3,14.5,2.8,23.4,3.1c7.9,0.4-15.7,6.6-29.7,5.7c-9.6-0.6,9.5,6.7,36.8,6.6c29-0.2-11,7.1-22.5,6.2
				c-5.8-0.4,7.1,5.1,27.1,5.8c16.1,0.6-15.9,6.8-31.5,4.8c-10.5-1.3,4.3,4.1,13.4,5.4c12.7,1.8-19.6,6.3-29.9,5.9
				c-15.6-0.7,35.9,6.8,65,3.6c8.9-1-18.7,7.6-29.7,8.4c-11,0.8,17.7,4,25.7,5.6c9,1.9-25,6.4-43.7,3c-8.8-1.6,31.4,11.2,43.8,11
				c12.8-0.3,2.6,5.6-28.9,2.7c-10.6-1,20.3,6.7,29.8,6.3c16.9-0.6-3.1,7.1-39.2,1.7c-14.8-2.2,22.3,10.7,57.1,8.4
				c10.8-0.7-5.3,7.6-36,4.1c-4.9-0.6,19.8,6.1,29,6.4c9.2,0.3-8.4,4.4-34.9,1.9c-26.6-2.5,6.6,5.5,14.3,6.1
				c7.7,0.7,0.9,3.5-14.5,2.1c-16.8-1.6,38.4,9.3,53.9,9.5c25.7,0.3-10.3,7.4-30.5,4.9c-9.9-1.2,12.5,6.3,21.7,6.7
				c9.2,0.4-9.7,4.2-27.5,1.1c-18-3.1,0.7,6.5,8,9.1c21.4,7.4-26.7-2.3-39.4-8.8c-5.5-2.8,6.5,12.6,11.6,15.8
				c15,9.7-25.2-6.7-33.1-13.9c-5.4-4.9-6.8,8.1-4.6,12.7c2.4,5.1-7.7-0.1-13.5-11.6c-5.1-10-3.3,9.9-2.2,14.8
				c1.1,5-9.4-2-11.9-12.9c-1.8-7.7-5.6-0.2-8.6,6.6c-2.9,6.8-8,14.4-7,5.4C955.7,463.8,953.7,454.7,950.1,460.5z"/>
			<path class="st4" d="M1236.7,574c12.5,19.9,44,34.8,41.2,28.1c-1.2-2.8-22.2-26.3-14.6-20.4c15.1,11.8,47.5,26.5,33.7,14.4
				c-6.3-5.5-19-18.1-13.5-16.6c9.1,2.5,46.2,5.2,39.2,1.1c-1.2-0.7-36.2-16.8-24.6-13.2c9.3,2.9,44.5,10.2,65.1,9.6
				c7.7-0.2-33.4-12.1-21.3-9.9c24,4.4,80.4,3.6,71.6-0.8c-10.4-5.2-38.8-16.8-32.4-14.2c16.4,6.6,97.9,13.2,86.4,7.1
				c-6.5-3.4-53.5-15.1-37.9-12.6c10,1.6,65.8-1.5,54.3-4.6c-11.2-3.1-47.2-2.8-70-10.6c-13-4.4,56.2-0.3,41.1-4.5
				c-8.3-2.3-44-6-35.3-8.2c8.1-2.1,29.9,2.1,51.1-1.8c6.5-1.2-48.5-4.1-39.5-7.2c6.2-2.1,21.2-2.5,37.2-10.8
				c2.6-1.4-66.2,6.5-51.9,3.3c7.8-1.8,14-4.3,25.6-11.7c10.7-6.9-34.5,2.3-52.3,1.7c-34-1.1,93.4-23.2,67.8-25.5
				c-12.5-1.1-57.1,3.2-52.6,0.9c13.2-7,70.5-27.9,54.2-26.4c-13.5,1.2-59.2,12.3-49.2,8.1c10-4.2,40.1-31.9,21.6-23.7
				c-14.5,6.4-85.5,12.9-72.4,11.3c15.3-1.9,37.4-10.3,27.9-9.7c-11,0.6-32.7-2.6-17.1-4.5c13.4-1.6,51.5-6.6,43.3-7.8
				c-3.2-0.5-41.2-3.4-30.1-5.5c8.8-1.7,42.1-14.8,29.8-13.4c-56.8,6.8-84.1-2.7-76.7-2.8c27-0.2,46.7-4.1,33.7-4.6
				c-14.9-0.6-21.7-5.2-15.2-4.9c13.6,0.7,65.5-4.3,53-4.9c-21.1-1-47-0.2-33.8-2.5c17.9-3.2,41.4-15.4,30.5-13
				c-70.2,15.6-135,9-114.3,7.2c12.8-1.1,51-8.2,33.1-8.9c-4.1-0.2-40.1-3.2-27.4-3.7c21.4-0.9,52.2-7.4,44.8-8.2
				c-10.4-1-37.5-7.2-26.6-6.7c20,1,55.7-6.4,43.6-6.8c-17-0.5-30.4-7-22.7-7.4c7.7-0.4,26-7,35.9-12.2c10-5.2-48.9,1.8-36.5-5.1
				c12.4-6.9,59.1-42.6,33.2-32.7c-62.6,24.1-102.2,11.9-79.9,11.7c14.2-0.1,34.5-3.6,20.9-4.5c-13.6-0.9-34.7-8.8-22.1-7.3
				c33.2,3.8,57.6-4.8,51.2-4.9c-1.2,0-32.1,1.1-27.6,0.5c14.9-2.3,59.2-22.4,41.8-17.9c-46.8,12-120.7,11.3-97,7.8
				c16-2.3,46.7-9.7,25.4-10.5c-16.8-0.6-41.9-6.3-25.8-7c16.1-0.8,52.2-6.4,35.9-8.8c-16.3-2.4-32.6-13.3-21.1-10
				c21.6,6.1,59.8,5.5,46.7,1.9c-13.2-3.6-23.4-12.5-15.8-10.3c30,8.7,54.1,0.4,48.6,0.3c-24.5-0.6-65.9-12.9-52.4-11.5
				c7.8,0.8,42,0,27.5-2.6c-12.5-2.3-22.5-6.7-12.1-6.8c22.1-0.1,37.1-7.5,29.6-7c-17.4,1.3-82.7-2.8-64.2-5.4
				c15.1-2.1,33.8-12.4,24.9-10.8c-18.1,3.3-48.6,4.4-37.2,1.8c5.7-1.3,38.3-10.7,21.4-9.6c-18,1.1-30.6-3.3-23.2-4
				c30.9-2.8,57.2-17,47-15.4c-36.1,5.8-88.2-9.3-65.6-12c10-1.2,42.2-9.9,23.9-9c-13,0.6-36.2-5.4-28.9-5.5
				c14.1-0.2,51-11.9,39.4-11.2c-12.6,0.7-37.4-3.1-29.8-4.4c8.1-1.4,37.7-13.9,20.6-13c-13.5,0.7-37.7-7.4-27.1-8
				c8.1-0.4,34.2-9.8,16.7-9.4c-2.8,0.1-33.8-3.4-24.2-5.3c13.9-2.8,34-13.5,17.6-11.8c-5.1,0.5-21.5,1.3-23.3-2.7
				c-1.7-3.6,0.7-17-5.2-25.7c-5.4-8,4.7,25.1-8.5,25.9c-2.9,0.2-5.8,0.3-17.8,0.4c-10.1,0.1,29.8,10.7,15.9,13.1
				c-11.9,2-18,1-22.7,0c-10.6-2.3,5.7,11.2,20.5,14.9c6.8,1.7-21,5-34.5,1.1c-10.4-3,6.7,9.2,27,9.6c17.4,0.4-15.4,8.4-22.5,8.7
				c-7.1,0.3,11.5,6.1,26.4,7.2c12.3,0.9-24.8,8.1-32.6,8.4c-8.8,0.4,6.2,5.8,25.9,8.9c15.2,2.4-28.2,13.5-55.2,7.8
				c-12-2.5,21.2,14.8,42,18.2c11.2,1.8-43.2,0.4-63.2-5.6c-22.1-6.7,13.7,16.6,43.8,19.4c19.2,1.8-16.4,4.9-29.2,4.8
				c-14.6-0.1,16,9.4,49.5,3.5c13.7-2.4-25.9,23.6-82,18.1c-47.6-4.7,16,13.9,44.6,13.6c14.2-0.2-18.7,7.1-32.1,9
				c-13.4,1.9,41.3,9.1,60.4,5.6c19.1-3.5-26.2,12.2-43.1,10.4c-16.9-1.8,25.4,7.7,45.2,7.3c19.9-0.4-32.2,10.8-71.2-3.9
				c-13.6-5.1,11.9,14.3,22.4,18.9c9.6,4.2-10.1,4.9-17.6,4.1c-13.1-1.3,22.2,9.2,42.4,10.1c20.2,1-45.1,4.1-63.5,3.3
				c-22.2-1,30.9,12,55.3,8.9c14.9-1.9-31.6,7.6-49,11.1c-17.6,3.5,29.9,3.9,51.1,0.7c35.4-5.5-20.8,14.3-67.9,10
				c-14.8-1.3,21.1,10.8,37.4,11.3c15.6,0.5-26.6,5-42.8,5.8c-14.5,0.6,28.6,12,54.2,10.3c17.5-1.2-17.4,12.3-67.3,12
				c-53.1-0.3,20.1,12.9,41.1,11.4c10.6-0.8-12.9,9.3-49.4,10.6c-29.5,1,29,12.4,57.6,8.8c19.2-2.4-7.8,7.4-24.5,9.8
				c-23.1,3.3,35.9,11.6,54.6,10.7c28.5-1.4-65.6,12.4-118.7,6.6c-16.3-1.8,34.1,13.8,54.2,15.3c20.1,1.5-32.4,7.2-47,10.2
				c-16.5,3.4,45.8,11.7,79.9,5.6c16.1-2.9-57.4,20.5-80,20.1c-23.4-0.5-4.7,10.3,52.8,4.9c19.3-1.8-37.2,12.2-54.5,11.6
				c-30.9-1.1,5.8,13,71.6,3c27-4.1-40.7,19.6-104.2,15.4c-19.7-1.3,9.8,13.8,65.7,7.5c9-1-36.1,11.1-53,11.7
				c-16.9,0.5,15.3,8,63.8,3.4c48.5-4.7-12,10-26.1,11.2c-14.1,1.2-1.7,6.5,26.5,3.8c30.6-2.9-70.2,17-98.4,17.3
				c-47,0.5,18.8,13.6,55.7,8.9c18.1-2.3-22.9,11.5-39.6,12.3c-16.7,0.8,17.7,7.6,50.3,1.9c32.9-5.7-1.3,12-14.6,16.6
				c-39.1,13.5,48.8-4.2,72.1-16.1c10-5.1-11.9,22.9-21.2,28.9c-27.5,17.8,46-12.2,60.4-25.4c9.8-9,12.4,14.8,8.5,23.3
				c-4.4,9.3,14-0.2,24.8-21.2c9.4-18.3,6,18.1,4.1,27.1c-1.9,9.1,17.2-3.7,21.7-23.6c3.2-14.1,10.3-0.4,15.7,12
				c5.4,12.4,14.6,26.2,12.8,10C1226.4,580.2,1230,563.4,1236.7,574z"/>
			<path class="st4" d="M1015.1,788.9c-12.4,19.7-43.7,34.5-40.9,27.9c1.2-2.8,22-26.1,14.5-20.2c-15,11.7-47.1,26.2-33.5,14.3
				c6.2-5.5,18.8-17.9,13.4-16.5c-9,2.4-45.8,5.1-38.9,1.1c1.2-0.7,35.9-16.7,24.4-13c-9.2,2.9-44.1,10.1-64.5,9.5
				c-7.6-0.2,33.1-12,21.1-9.9c-23.8,4.4-79.8,3.6-71-0.8c10.3-5.2,38.5-16.7,32.1-14.1c-16.3,6.6-97.1,13.1-85.7,7
				c6.4-3.4,53-14.9,37.6-12.5c-10,1.6-65.2-1.5-53.8-4.6c11.1-3,46.8-2.8,69.4-10.5c12.9-4.4-55.7-0.3-40.8-4.4
				c8.2-2.3,43.6-5.9,35-8.1c-8-2-29.6,2-50.6-1.8c-6.5-1.2,48.1-4.1,39.1-7.1c-6.1-2.1-21-2.5-36.9-10.7
				c-2.6-1.4,65.6,6.5,51.4,3.2c-7.7-1.8-13.9-4.2-25.4-11.6c-10.6-6.8,34.2,2.3,51.8,1.7c33.7-1.1-92.6-23-67.2-25.3
				c12.4-1.1,56.6,3.2,52.2,0.9c-13.1-6.9-69.9-27.6-53.7-26.2c13.4,1.2,58.7,12.2,48.8,8c-10-4.1-39.8-31.6-21.4-23.5
				c14.4,6.4,84.8,12.8,71.8,11.2c-15.2-1.9-37.1-10.2-27.7-9.7c10.9,0.6,32.4-2.6,17-4.4c-13.3-1.6-51.1-6.6-43-7.8
				c3.1-0.5,40.8-3.4,29.9-5.5c-8.7-1.7-41.8-14.7-29.5-13.3c56.3,6.7,83.4-2.7,76.1-2.8c-26.7-0.2-46.3-4-33.5-4.5
				c14.7-0.6,21.6-5.2,15.1-4.9c-13.5,0.7-64.9-4.3-52.5-4.9c20.9-1,46.6-0.2,33.5-2.5c-17.8-3.2-41.1-15.3-30.2-12.9
				c69.6,15.5,133.9,8.9,113.4,7.1c-12.7-1.1-50.6-8.1-32.9-8.8c4.1-0.2,39.8-3.1,27.2-3.7c-21.2-0.9-51.8-7.3-44.4-8.1
				c10.3-1,37.2-7.2,26.4-6.6c-19.9,1-55.2-6.4-43.3-6.7c16.9-0.5,30.1-7,22.5-7.3c-7.7-0.4-25.8-7-35.6-12.1
				c-9.9-5.2,48.5,1.7,36.2-5.1c-12.3-6.9-58.6-42.3-32.9-32.4c62.1,23.9,101.4,11.8,79.2,11.6c-14.1-0.1-34.2-3.5-20.7-4.5
				c13.5-0.9,34.4-8.7,21.9-7.3c-32.9,3.7-57.1-4.8-50.7-4.9c1.2,0,31.8,1.1,27.4,0.4c-14.7-2.3-58.7-22.2-41.5-17.7
				c46.4,11.9,119.7,11.2,96.2,7.7c-15.8-2.3-46.3-9.6-25.1-10.4c16.6-0.6,41.5-6.2,25.6-7c-15.9-0.7-51.7-6.4-35.6-8.7
				c16.2-2.4,32.4-13.1,21-9.9c-21.4,6-59.3,5.4-46.3,1.9c13.1-3.6,23.2-12.4,15.7-10.2c-29.8,8.6-53.7,0.4-48.2,0.3
				c24.3-0.6,65.4-12.8,51.9-11.4c-7.8,0.8-41.7,0-27.3-2.6c12.4-2.3,22.3-6.7,12-6.7c-21.9-0.1-36.8-7.5-29.4-6.9
				c17.2,1.3,82-2.8,63.6-5.3c-14.9-2.1-33.5-12.3-24.7-10.7c18,3.3,48.2,4.4,36.8,1.8c-5.7-1.3-38-10.6-21.2-9.6
				c17.8,1.1,30.3-3.3,23-3.9c-30.6-2.8-56.7-16.9-46.6-15.2c35.8,5.8,87.5-9.2,65-11.9c-9.9-1.2-41.9-9.8-23.7-9
				c12.9,0.6,35.9-5.4,28.6-5.5c-14-0.2-50.6-11.8-39-11.1c12.5,0.7,37-3,29.6-4.4c-8.1-1.4-37.4-13.8-20.4-12.9
				c13.4,0.7,37.4-7.4,26.9-7.9c-8.1-0.4-33.9-9.7-16.5-9.3c2.8,0.1,33.5-3.4,24-5.3c-13.7-2.8-33.7-13.4-17.5-11.7
				c5,0.5,21.3,1.3,23.1-2.7c1.6-3.6-0.7-16.9,5.2-25.5c5.4-8-4.7,24.9,8.5,25.7c2.9,0.2,5.8,0.3,17.7,0.4c10,0.1-29.6,10.6-15.7,13
				c11.8,2,17.8,1,22.6,0c10.5-2.2-5.7,11.1-20.4,14.8c-6.8,1.7,20.8,4.9,34.2,1.1c10.3-2.9-6.7,9.1-26.8,9.5
				c-17.3,0.4,15.3,8.3,22.3,8.6c7,0.3-11.4,6.1-26.2,7.1c-12.2,0.9,24.6,8,32.4,8.3c8.7,0.4-6.2,5.8-25.7,8.8
				c-15.1,2.3,28,13.3,54.8,7.7c11.9-2.5-21,14.7-41.7,18.1c-11.1,1.8,42.9,0.4,62.7-5.6c21.9-6.6-13.6,16.4-43.5,19.2
				c-19.1,1.8,16.3,4.8,29,4.8c14.5-0.1-15.8,9.3-49.1,3.5c-13.5-2.4,25.7,23.4,81.3,17.9c47.2-4.6-15.9,13.8-44.3,13.5
				c-14.1-0.2,18.5,7.1,31.8,9c13.3,1.9-41,9.1-59.9,5.6c-19-3.5,25.9,12.1,42.7,10.3c16.8-1.8-25.2,7.6-44.8,7.2
				c-19.7-0.4,31.9,10.7,70.6-3.9c13.5-5.1-11.8,14.2-22.2,18.7c-9.5,4.1,10,4.8,17.5,4.1c13-1.3-22,9.1-42.1,10
				c-20.1,1,44.7,4,63,3.2c22-1-30.6,11.9-54.9,8.8c-14.7-1.9,31.3,7.6,48.6,11.1c17.4,3.5-29.6,3.9-50.6,0.7
				c-35.1-5.4,20.6,14.2,67.3,10c14.6-1.3-20.9,10.7-37.1,11.3c-15.5,0.5,26.4,5,42.4,5.7c14.4,0.6-28.4,11.9-53.8,10.2
				c-17.3-1.1,17.2,12.2,66.7,11.9c52.6-0.3-19.9,12.8-40.8,11.3c-10.5-0.8,12.8,9.2,49,10.5c29.2,1-28.8,12.3-57.1,8.7
				c-19.1-2.4,7.7,7.4,24.3,9.7c22.9,3.2-35.6,11.5-54.1,10.6c-28.3-1.4,65.1,12.3,117.7,6.6c16.1-1.8-33.8,13.7-53.8,15.2
				c-20,1.5,32.1,7.2,46.6,10.2c16.4,3.4-45.4,11.6-79.2,5.5c-16-2.9,56.9,20.3,79.3,19.9c23.2-0.5,4.6,10.2-52.3,4.9
				c-19.1-1.8,36.9,12.1,54,11.5c30.6-1.1-5.7,12.9-71,3c-26.8-4.1,40.4,19.5,103.4,15.3c19.6-1.3-9.7,13.7-65.2,7.4
				c-9-1,35.8,11,52.6,11.6c16.7,0.5-15.1,8-63.3,3.4c-48.1-4.6,11.9,9.9,25.9,11.1c14,1.2,1.6,6.4-26.3,3.8
				c-30.3-2.8,69.6,16.9,97.6,17.2c46.6,0.5-18.6,13.5-55.3,8.9c-18-2.3,22.7,11.4,39.3,12.2c16.6,0.8-17.6,7.6-49.9,1.9
				c-32.6-5.7,1.2,11.9,14.5,16.4c38.8,13.4-48.4-4.2-71.5-16c-10-5.1,11.8,22.7,21,28.7c27.3,17.7-45.6-12.1-59.9-25.2
				c-9.7-8.9-12.3,14.7-8.4,23.1c4.3,9.2-13.9-0.2-24.5-21.1c-9.3-18.1-5.9,17.9-4,26.9c1.9,9-17-3.6-21.5-23.4
				c-3.2-14-10.2-0.4-15.6,11.9c-5.3,12.3-14.5,26-12.7,9.9C1025.3,795,1021.7,778.5,1015.1,788.9z"/>
			<path class="st4" d="M-16.6,701.2c-15.2,24.1-53.4,42.2-50,34.1c1.4-3.4,27-32,17.7-24.7c-18.3,14.3-57.6,32.1-40.9,17.5
				c7.6-6.7,23-21.9,16.4-20.2c-11.1,3-56,6.3-47.6,1.3c1.4-0.8,43.9-20.4,29.9-16c-11.2,3.6-54,12.4-79,11.6
				c-9.3-0.3,40.5-14.7,25.9-12.1c-29.2,5.3-97.6,4.4-86.8-1c12.6-6.4,47.1-20.4,39.3-17.2c-20,8.1-118.8,16-104.8,8.6
				c7.9-4.2,64.9-18.3,46-15.3c-12.2,1.9-79.8-1.8-65.9-5.6c13.6-3.7,57.3-3.4,84.9-12.8c15.8-5.4-68.1-0.3-49.9-5.4
				c10-2.8,53.4-7.2,42.8-9.9c-9.8-2.5-36.2,2.5-61.9-2.2c-7.9-1.5,58.8-5,47.9-8.7c-7.5-2.5-25.7-3-45.1-13.1
				c-3.2-1.7,80.3,7.9,62.9,4c-9.4-2.1-17-5.2-31.1-14.2c-12.9-8.3,41.8,2.8,63.4,2.1c41.2-1.4-113.3-28.2-82.3-30.9
				c15.2-1.3,69.2,3.9,63.8,1.1c-16-8.5-85.5-33.8-65.7-32c16.3,1.5,71.8,14.9,59.7,9.8c-12.2-5-48.6-38.6-26.2-28.7
				c17.6,7.8,103.7,15.7,87.8,13.7c-18.6-2.3-45.3-12.4-33.9-11.8c13.3,0.7,39.7-3.2,20.7-5.4c-16.3-1.9-62.5-8-52.6-9.5
				c3.8-0.6,50-4.1,36.5-6.7c-10.7-2.1-51.1-18-36.1-16.2c68.9,8.2,102-3.3,93.1-3.4c-32.7-0.3-56.6-5-40.9-5.6
				c18-0.7,26.4-6.3,18.4-5.9c-16.5,0.8-79.4-5.3-64.2-6c25.6-1.2,57-0.2,41-3.1c-21.8-3.9-50.2-18.7-37-15.7
				c85.1,19,163.7,10.9,138.7,8.7c-15.6-1.4-61.9-9.9-40.2-10.8c5-0.2,48.6-3.8,33.3-4.5c-25.9-1.1-63.3-9-54.3-9.9
				c12.6-1.3,45.5-8.8,32.3-8.1c-24.3,1.2-67.6-7.8-52.9-8.2c20.7-0.6,36.9-8.5,27.5-9c-9.4-0.4-31.5-8.5-43.6-14.8
				c-12.1-6.3,59.4,2.1,44.3-6.2c-15.1-8.4-71.7-51.7-40.3-39.6c76,29.2,124,14.4,96.9,14.1c-17.2-0.2-41.8-4.3-25.3-5.5
				c16.5-1.1,42.1-10.7,26.8-8.9c-40.3,4.6-69.9-5.9-62.1-6c1.4,0,38.9,1.4,33.5,0.5c-18-2.8-71.8-27.1-50.7-21.7
				c56.7,14.6,146.4,13.6,117.7,9.5c-19.4-2.8-56.6-11.8-30.8-12.7c20.3-0.7,50.8-7.6,31.3-8.5c-19.5-0.9-63.3-7.8-43.5-10.7
				c19.8-2.9,39.6-16.1,25.7-12.2c-26.2,7.4-72.6,6.6-56.6,2.3c16-4.4,28.4-15.1,19.2-12.4c-36.4,10.6-65.7,0.5-58.9,0.3
				c29.7-0.7,79.9-15.6,63.5-14c-9.5,0.9-51,0-33.3-3.2c15.1-2.8,27.3-8.2,14.7-8.2c-26.8-0.1-45-9.1-35.9-8.4
				c21.1,1.6,100.3-3.4,77.9-6.5c-18.3-2.5-41-15-30.2-13.1c22,4,59,5.3,45.1,2.1c-6.9-1.6-46.4-13-26-11.7
				c21.8,1.4,37.1-4,28.1-4.8c-37.4-3.4-69.4-20.6-57-18.6c43.8,7.1,107-11.3,79.5-14.6c-12.1-1.5-51.2-12-28.9-11
				c15.7,0.7,43.9-6.6,35-6.7c-17.1-0.2-61.9-14.4-47.8-13.6c15.2,0.9,45.3-3.7,36.2-5.3c-9.9-1.7-45.7-16.8-25-15.7
				c16.4,0.9,45.8-9,32.9-9.7c-9.9-0.5-41.5-11.8-20.2-11.4c3.4,0.1,41-4.1,29.4-6.5c-16.8-3.4-41.2-16.4-21.4-14.3
				c6.2,0.7,26.1,1.5,28.3-3.3c2-4.4-0.8-20.6,6.4-31.2C5,31.5-7.3,71.7,8.8,72.7c3.5,0.2,7.1,0.4,21.6,0.5
				c12.2,0.1-36.2,13-19.3,15.8c14.4,2.4,21.8,1.2,27.6,0c12.9-2.7-6.9,13.6-24.9,18.1c-8.3,2.1,25.5,6,41.8,1.4
				c12.6-3.6-8.1,11.1-32.8,11.6c-21.1,0.4,18.7,10.1,27.2,10.6c8.6,0.4-14,7.4-32,8.7c-14.9,1.1,30.1,9.8,39.6,10.2
				c10.6,0.5-7.6,7.1-31.5,10.8c-18.5,2.9,34.2,16.3,67,9.4c14.5-3-25.7,18-51,22.1c-13.6,2.2,52.4,0.5,76.7-6.8
				c26.8-8.1-16.6,20.1-53.2,23.5c-23.3,2.2,19.9,5.9,35.4,5.9c17.7-0.1-19.4,11.4-60.1,4.3c-16.6-2.9,31.4,28.6,99.5,21.9
				c57.7-5.7-19.5,16.9-54.2,16.5c-17.2-0.2,22.7,8.7,38.9,11c16.3,2.3-50.1,11.1-73.3,6.8c-23.2-4.3,31.7,14.8,52.2,12.6
				c20.5-2.2-30.9,9.3-54.8,8.8c-24.1-0.5,39,13.1,86.3-4.7c16.5-6.2-14.5,17.4-27.1,22.9c-11.6,5.1,12.2,5.9,21.4,5
				c15.9-1.6-26.9,11.1-51.5,12.3c-24.5,1.2,54.7,4.9,77,3.9c26.9-1.2-37.5,14.5-67.1,10.8c-18-2.3,38.3,9.3,59.4,13.5
				c21.3,4.3-36.2,4.8-61.9,0.8c-43-6.7,25.2,17.3,82.3,12.2c17.9-1.6-25.5,13.1-45.4,13.8c-18.9,0.6,32.2,6.1,51.9,7
				c17.6,0.8-34.7,14.6-65.8,12.5c-21.2-1.4,21.1,14.9,81.6,14.5c64.4-0.4-24.4,15.7-49.9,13.8c-12.9-0.9,15.7,11.3,60,12.8
				c35.8,1.2-35.2,15.1-69.8,10.7c-23.3-3,9.4,9,29.7,11.9c28.1,4-43.5,14.1-66.2,13c-34.6-1.7,79.6,15,144,8
				c19.8-2.1-41.3,16.8-65.8,18.6c-24.4,1.8,39.3,8.8,57,12.4c20,4.1-55.5,14.2-96.9,6.8c-19.6-3.5,69.6,24.9,97.1,24.3
				c28.4-0.6,5.7,12.5-64,6c-23.4-2.2,45.1,14.8,66.1,14.1c37.5-1.3-7,15.8-86.9,3.7c-32.7-5,49.4,23.8,126.5,18.7
				c23.9-1.6-11.8,16.8-79.7,9.1c-10.9-1.2,43.8,13.5,64.3,14.2c20.5,0.6-18.5,9.8-77.4,4.1c-58.8-5.6,14.6,12.1,31.7,13.5
				c17.1,1.4,2,7.8-32.1,4.7c-37.1-3.5,85.1,20.7,119.4,21c57,0.6-22.8,16.5-67.6,10.8c-22-2.8,27.8,14,48.1,15
				c20.3,1-21.5,9.3-61,2.4c-39.9-7,1.5,14.5,17.7,20.1c47.5,16.4-59.2-5.1-87.4-19.5c-12.2-6.2,14.5,27.8,25.7,35.1
				c33.3,21.6-55.8-14.8-73.3-30.8c-11.9-10.9-15.1,17.9-10.3,28.2c5.3,11.3-17-0.3-30-25.8c-11.4-22.2-7.3,21.9-4.9,32.9
				c2.4,11-20.8-4.4-26.3-28.6c-3.9-17.1-12.5-0.5-19,14.5c-6.5,15-17.7,31.8-15.5,12.1C-4.1,708.7-8.5,688.4-16.6,701.2z"/>
			<path class="st4" d="M182.6,744.1c11.6,18.5,40.9,32.4,38.3,26.1c-1.1-2.6-20.7-24.5-13.5-18.9c14,11,44.2,24.6,31.4,13.4
				c-5.8-5.1-17.7-16.8-12.6-15.4c8.5,2.3,42.9,4.8,36.5,1c-1.1-0.6-33.6-15.6-22.9-12.2c8.6,2.7,41.3,9.5,60.5,8.9
				c7.2-0.2-31-11.3-19.8-9.2c22.3,4.1,74.7,3.4,66.5-0.8c-9.6-4.9-36.1-15.6-30.1-13.2c15.3,6.2,91,12.3,80.3,6.6
				c-6-3.2-49.7-14-35.2-11.7c9.3,1.5,61.1-1.4,50.5-4.3c-10.4-2.9-43.9-2.6-65.1-9.8c-12.1-4.1,52.2-0.3,38.2-4.2
				c-7.7-2.1-40.9-5.5-32.8-7.6c7.5-1.9,27.8,1.9,47.5-1.7c6.1-1.1-45.1-3.8-36.7-6.7c5.7-1.9,19.7-2.3,34.5-10.1
				c2.5-1.3-61.5,6.1-48.2,3c7.2-1.6,13.1-4,23.8-10.9c9.9-6.4-32,2.1-48.6,1.6c-31.6-1,86.8-21.6,63-23.7c-11.6-1-53,3-48.9,0.8
				c12.2-6.5,65.5-25.9,50.3-24.5c-12.5,1.1-55,11.4-45.7,7.5c9.3-3.9,37.3-29.6,20.1-22c-13.5,6-79.5,12-67.3,10.5
				c14.2-1.8,34.7-9.5,26-9.1c-10.2,0.6-30.4-2.4-15.9-4.2c12.5-1.5,47.9-6.2,40.3-7.3c-2.9-0.4-38.3-3.2-28-5.1
				c8.2-1.6,39.1-13.8,27.7-12.4c-52.8,6.3-78.2-2.5-71.3-2.6c25.1-0.2,43.4-3.8,31.4-4.3c-13.8-0.5-20.2-4.8-14.1-4.6
				c12.7,0.6,60.8-4,49.2-4.6c-19.6-0.9-43.7-0.1-31.4-2.4c16.7-3,38.5-14.3,28.3-12c-65.2,14.5-125.5,8.3-106.3,6.7
				c11.9-1,47.4-7.6,30.8-8.3c-3.8-0.2-37.3-2.9-25.5-3.5c19.8-0.9,48.5-6.9,41.6-7.6c-9.7-1-34.9-6.7-24.7-6.2
				c18.6,0.9,51.8-6,40.5-6.3c-15.8-0.5-28.2-6.5-21.1-6.9c7.2-0.3,24.1-6.5,33.4-11.4c9.3-4.8-45.5,1.6-33.9-4.8
				c11.5-6.4,54.9-39.6,30.9-30.4c-58.2,22.4-95,11-74.2,10.8c13.2-0.1,32-3.3,19.4-4.2c-12.7-0.9-32.3-8.2-20.5-6.8
				c30.8,3.5,53.6-4.5,47.6-4.6c-1.1,0-29.8,1.1-25.7,0.4c13.8-2.1,55-20.8,38.9-16.6c-43.5,11.2-112.2,10.5-90.1,7.2
				c14.8-2.2,43.4-9,23.6-9.7c-15.6-0.6-38.9-5.8-24-6.5c14.9-0.7,48.5-6,33.3-8.2c-15.2-2.2-30.3-12.3-19.7-9.3
				c20.1,5.7,55.6,5.1,43.4,1.7c-12.2-3.3-21.7-11.6-14.7-9.5c27.9,8.1,50.3,0.4,45.1,0.2c-22.8-0.6-61.3-12-48.7-10.7
				c7.3,0.7,39.1,0,25.5-2.4c-11.6-2.1-20.9-6.3-11.2-6.3c20.5-0.1,34.5-7,27.5-6.5c-16.1,1.2-76.8-2.6-59.6-5
				c14-1.9,31.4-11.5,23.2-10c-16.9,3.1-45.2,4.1-34.5,1.6c5.3-1.2,35.6-10,19.9-9c-16.7,1.1-28.4-3.1-21.6-3.7
				c28.7-2.6,53.2-15.8,43.7-14.3c-33.5,5.4-82-8.6-60.9-11.2c9.3-1.1,39.2-9.2,22.2-8.4c-12,0.6-33.6-5.1-26.8-5.1
				c13.1-0.2,47.4-11,36.6-10.4c-11.7,0.7-34.7-2.9-27.7-4.1c7.6-1.3,35-12.9,19.1-12.1c-12.6,0.7-35.1-6.9-25.2-7.4
				c7.6-0.4,31.8-9.1,15.5-8.8c-2.6,0.1-31.4-3.2-22.5-5c12.9-2.6,31.6-12.6,16.4-10.9c-4.7,0.5-20,1.2-21.7-2.6
				c-1.5-3.4,0.6-15.8-4.9-23.9c-5.1-7.5,4.4,23.3-7.9,24.1c-2.7,0.2-5.4,0.3-16.5,0.4c-9.3,0.1,27.7,10,14.8,12.1
				c-11.1,1.9-16.7,0.9-21.1,0c-9.9-2.1,5.3,10.4,19.1,13.8c6.3,1.6-19.5,4.6-32,1c-9.7-2.8,6.2,8.5,25.1,8.9
				c16.2,0.3-14.3,7.8-20.9,8.1c-6.6,0.3,10.7,5.7,24.5,6.7c11.4,0.8-23,7.5-30.3,7.8c-8.1,0.4,5.8,5.4,24.1,8.3
				c14.2,2.2-26.2,12.5-51.3,7.2c-11.1-2.3,19.7,13.8,39.1,17c10.4,1.7-40.2,0.4-58.8-5.2c-20.6-6.2,12.7,15.4,40.7,18
				c17.9,1.7-15.3,4.5-27.2,4.5c-13.6-0.1,14.8,8.7,46,3.3c12.7-2.2-24.1,21.9-76.2,16.8c-44.2-4.4,14.9,13,41.5,12.6
				c13.2-0.2-17.4,6.6-29.8,8.4c-12.5,1.8,38.4,8.5,56.2,5.2c17.8-3.3-24.3,11.4-40,9.6c-15.7-1.7,23.6,7.1,42,6.8
				c18.5-0.4-29.9,10.1-66.1-3.6c-12.6-4.8,11.1,13.3,20.8,17.5c8.9,3.9-9.4,4.5-16.4,3.8c-12.2-1.2,20.6,8.5,39.4,9.4
				c18.8,0.9-41.9,3.8-59,3c-20.6-0.9,28.7,11.1,51.4,8.2c13.8-1.8-29.4,7.1-45.5,10.4c-16.3,3.3,27.8,3.7,47.4,0.6
				c32.9-5.1-19.3,13.3-63.1,9.3c-13.7-1.2,19.6,10,34.8,10.5c14.5,0.5-24.7,4.7-39.8,5.3c-13.5,0.6,26.6,11.2,50.4,9.6
				c16.2-1.1-16.1,11.4-62.5,11.1c-49.3-0.3,18.7,12,38.2,10.6c9.9-0.7-12,8.6-45.9,9.8c-27.4,1,27,11.6,53.5,8.2
				c17.9-2.3-7.2,6.9-22.8,9.1c-21.5,3,33.4,10.8,50.7,9.9c26.5-1.3-61,11.5-110.3,6.2c-15.1-1.6,31.7,12.9,50.4,14.3
				c18.7,1.4-30.1,6.7-43.7,9.5c-15.3,3.1,42.5,10.9,74.2,5.2c15-2.7-53.3,19.1-74.4,18.6c-21.8-0.4-4.3,9.6,49,4.6
				c17.9-1.7-34.5,11.3-50.7,10.8c-28.7-1,5.3,12.1,66.5,2.8c25.1-3.8-37.8,18.2-96.9,14.3c-18.3-1.2,9.1,12.8,61.1,6.9
				c8.4-1-33.6,10.4-49.3,10.8c-15.7,0.5,14.2,7.5,59.3,3.2c45.1-4.3-11.2,9.3-24.3,10.4c-13.1,1.1-1.5,6,24.6,3.6
				c28.4-2.7-65.2,15.8-91.5,16.1c-43.7,0.5,17.4,12.6,51.8,8.3c16.8-2.1-21.3,10.7-36.8,11.5c-15.5,0.7,16.5,7.1,46.8,1.8
				c30.6-5.3-1.2,11.1-13.6,15.4c-36.4,12.6,45.4-3.9,67-15c9.3-4.8-11.1,21.3-19.7,26.9c-25.5,16.5,42.8-11.4,56.2-23.6
				c9.1-8.3,11.6,13.7,7.9,21.6c-4.1,8.7,13-0.2,23-19.7c8.7-17,5.6,16.8,3.8,25.2c-1.8,8.4,15.9-3.4,20.2-21.9
				c3-13.1,9.6-0.4,14.6,11.1c5,11.5,13.5,24.4,11.9,9.3C173.1,749.8,176.4,734.3,182.6,744.1z"/>
			<path class="st4" d="M892.7,1051.5c12.4,19.7,43.7,34.5,40.9,27.9c-1.2-2.8-22-26.1-14.5-20.2c15,11.7,47.1,26.2,33.5,14.3
				c-6.2-5.5-18.8-17.9-13.4-16.5c9,2.4,45.8,5.1,38.9,1.1c-1.2-0.7-35.9-16.7-24.4-13c9.2,2.9,44.1,10.1,64.5,9.5
				c7.6-0.2-33.1-12-21.1-9.9c23.8,4.4,79.8,3.6,71-0.8c-10.3-5.2-38.5-16.7-32.1-14.1c16.3,6.6,97.1,13.1,85.7,7
				c-6.4-3.4-53-14.9-37.6-12.5c10,1.6,65.2-1.5,53.8-4.6c-11.1-3-46.8-2.8-69.4-10.5c-12.9-4.4,55.7-0.3,40.8-4.4
				c-8.2-2.3-43.6-5.9-35-8.1c8-2,29.6,2,50.6-1.8c6.5-1.2-48.1-4.1-39.1-7.1c6.1-2.1,21-2.5,36.9-10.7c2.6-1.4-65.6,6.5-51.4,3.2
				c7.7-1.8,13.9-4.2,25.4-11.6c10.6-6.8-34.2,2.3-51.8,1.7c-33.7-1.1,92.6-23,67.2-25.3c-12.4-1.1-56.6,3.2-52.2,0.9
				c13.1-6.9,69.9-27.6,53.7-26.2c-13.4,1.2-58.7,12.2-48.8,8c10-4.1,39.8-31.6,21.4-23.5c-14.4,6.4-84.8,12.8-71.8,11.2
				c15.2-1.9,37.1-10.2,27.7-9.7c-10.9,0.6-32.4-2.6-17-4.4c13.3-1.6,51.1-6.6,43-7.8c-3.1-0.5-40.8-3.4-29.9-5.5
				c8.7-1.7,41.8-14.7,29.5-13.3c-56.3,6.7-83.4-2.7-76.1-2.8c26.7-0.2,46.3-4,33.5-4.5c-14.7-0.6-21.6-5.2-15.1-4.9
				c13.5,0.7,64.9-4.3,52.5-4.9c-20.9-1-46.6-0.2-33.5-2.5c17.8-3.2,41.1-15.3,30.2-12.9c-69.6,15.5-133.9,8.9-113.4,7.1
				c12.7-1.1,50.6-8.1,32.9-8.8c-4.1-0.2-39.8-3.1-27.2-3.7c21.2-0.9,51.8-7.3,44.4-8.1c-10.3-1-37.2-7.2-26.4-6.6
				c19.9,1,55.2-6.4,43.3-6.7c-16.9-0.5-30.1-7-22.5-7.3c7.7-0.4,25.8-7,35.6-12.1c9.9-5.2-48.5,1.7-36.2-5.1
				c12.3-6.9,58.6-42.3,32.9-32.4c-62.1,23.9-101.4,11.8-79.2,11.6c14.1-0.1,34.2-3.5,20.7-4.5c-13.5-0.9-34.4-8.7-21.9-7.3
				c32.9,3.7,57.1-4.8,50.7-4.9c-1.2,0-31.8,1.1-27.4,0.4c14.7-2.3,58.7-22.2,41.5-17.7c-46.4,11.9-119.7,11.2-96.2,7.7
				c15.8-2.3,46.3-9.6,25.1-10.4c-16.6-0.6-41.5-6.2-25.6-7c15.9-0.7,51.7-6.4,35.6-8.7c-16.2-2.4-32.4-13.1-21-9.9
				c21.4,6,59.3,5.4,46.3,1.9c-13.1-3.6-23.2-12.4-15.7-10.2c29.8,8.6,53.7,0.4,48.2,0.3c-24.3-0.6-65.4-12.8-51.9-11.4
				c7.8,0.8,41.7,0,27.3-2.6c-12.4-2.3-22.3-6.7-12-6.7c21.9-0.1,36.8-7.5,29.4-6.9c-17.2,1.3-82-2.8-63.6-5.3
				c14.9-2.1,33.5-12.3,24.7-10.7c-18,3.3-48.2,4.4-36.8,1.8c5.7-1.3,38-10.6,21.2-9.6c-17.8,1.1-30.3-3.3-23-3.9
				c30.6-2.8,56.7-16.9,46.6-15.2c-35.8,5.8-87.5-9.2-65-11.9c9.9-1.2,41.9-9.8,23.7-9c-12.9,0.6-35.9-5.4-28.6-5.5
				c14-0.2,50.6-11.8,39-11.1c-12.5,0.7-37-3-29.6-4.4c8.1-1.4,37.4-13.8,20.4-12.9c-13.4,0.7-37.4-7.4-26.9-7.9
				c8.1-0.4,33.9-9.7,16.5-9.3c-2.8,0.1-33.5-3.4-24-5.3c13.7-2.8,33.7-13.4,17.5-11.7c-5,0.5-21.3,1.3-23.1-2.7
				c-1.6-3.6,0.7-16.9-5.2-25.5c-5.4-8,4.7,24.9-8.5,25.7c-2.9,0.2-5.8,0.3-17.7,0.4c-10,0.1,29.6,10.6,15.7,13
				c-11.8,2-17.8,1-22.6,0c-10.5-2.2,5.7,11.1,20.4,14.8c6.8,1.7-20.8,4.9-34.2,1.1c-10.3-2.9,6.7,9.1,26.8,9.5
				c17.3,0.4-15.3,8.3-22.3,8.6c-7,0.3,11.4,6.1,26.2,7.1c12.2,0.9-24.6,8-32.4,8.3c-8.7,0.4,6.2,5.8,25.7,8.8
				c15.1,2.3-28,13.3-54.8,7.7c-11.9-2.5,21,14.7,41.7,18.1c11.1,1.8-42.9,0.4-62.7-5.6c-21.9-6.6,13.6,16.4,43.5,19.2
				c19.1,1.8-16.3,4.8-29,4.8c-14.5-0.1,15.8,9.3,49.1,3.5c13.5-2.4-25.7,23.4-81.3,17.9c-47.2-4.6,15.9,13.8,44.3,13.5
				c14.1-0.2-18.5,7.1-31.8,9c-13.3,1.9,41,9.1,59.9,5.6c19-3.5-25.9,12.1-42.7,10.3c-16.8-1.8,25.2,7.6,44.8,7.2
				c19.7-0.4-31.9,10.7-70.6-3.9c-13.5-5.1,11.8,14.2,22.2,18.7c9.5,4.1-10,4.8-17.5,4.1c-13-1.3,22,9.1,42.1,10
				c20.1,1-44.7,4-63,3.2c-22-1,30.6,11.9,54.9,8.8c14.7-1.9-31.3,7.6-48.6,11.1c-17.4,3.5,29.6,3.9,50.6,0.7
				c35.1-5.4-20.6,14.2-67.3,10c-14.6-1.3,20.9,10.7,37.1,11.3c15.5,0.5-26.4,5-42.4,5.7c-14.4,0.6,28.4,11.9,53.8,10.2
				c17.3-1.1-17.2,12.2-66.7,11.9c-52.6-0.3,19.9,12.8,40.8,11.3c10.5-0.8-12.8,9.2-49,10.5c-29.2,1,28.8,12.3,57.1,8.7
				c19.1-2.4-7.7,7.4-24.3,9.7c-22.9,3.2,35.6,11.5,54.1,10.6c28.3-1.4-65.1,12.3-117.7,6.6c-16.1-1.8,33.8,13.7,53.8,15.2
				c20,1.5-32.1,7.2-46.6,10.2c-16.4,3.4,45.4,11.6,79.2,5.5c16-2.9-56.9,20.3-79.3,19.9c-23.2-0.5-4.6,10.2,52.3,4.9
				c19.1-1.8-36.9,12.1-54,11.5c-30.6-1.1,5.7,12.9,71,3c26.8-4.1-40.4,19.5-103.4,15.3c-19.6-1.3,9.7,13.7,65.2,7.4
				c9-1-35.8,11-52.6,11.6c-16.7,0.5,15.1,8,63.3,3.4c48.1-4.6-11.9,9.9-25.9,11.1c-14,1.2-1.6,6.4,26.3,3.8
				c30.3-2.8-69.6,16.9-97.6,17.2c-46.6,0.5,18.6,13.5,55.3,8.9c18-2.3-22.7,11.4-39.3,12.2c-16.6,0.8,17.6,7.6,49.9,1.9
				c32.6-5.7-1.2,11.9-14.5,16.4c-38.8,13.4,48.4-4.2,71.5-16c10-5.1-11.8,22.7-21,28.7c-27.3,17.7,45.6-12.1,59.9-25.2
				c9.7-8.9,12.3,14.7,8.4,23.1c-4.3,9.2,13.9-0.2,24.5-21.1c9.3-18.1,5.9,17.9,4,26.9c-1.9,9,17-3.6,21.5-23.4
				c3.2-14,10.2-0.4,15.6,11.9c5.3,12.3,14.5,26,12.7,9.9C882.5,1057.6,886.1,1041,892.7,1051.5z"/>
			<path class="st4" d="M341.8,1051.5c-12.4,19.7-43.7,34.5-40.9,27.9c1.2-2.8,22-26.1,14.5-20.2c-15,11.7-47.1,26.2-33.5,14.3
				c6.2-5.5,18.8-17.9,13.4-16.5c-9,2.4-45.8,5.1-38.9,1.1c1.2-0.7,35.9-16.7,24.4-13c-9.2,2.9-44.1,10.1-64.5,9.5
				c-7.6-0.2,33.1-12,21.1-9.9c-23.8,4.4-79.8,3.6-71-0.8c10.3-5.2,38.5-16.7,32.1-14.1c-16.3,6.6-97.1,13.1-85.7,7
				c6.4-3.4,53-14.9,37.6-12.5c-10,1.6-65.2-1.5-53.8-4.6c11.1-3,46.8-2.8,69.4-10.5c12.9-4.4-55.7-0.3-40.8-4.4
				c8.2-2.3,43.6-5.9,35-8.1c-8-2-29.6,2-50.6-1.8c-6.5-1.2,48.1-4.1,39.1-7.1c-6.1-2.1-21-2.5-36.9-10.7
				c-2.6-1.4,65.6,6.5,51.4,3.2c-7.7-1.8-13.9-4.2-25.4-11.6c-10.6-6.8,34.2,2.3,51.8,1.7c33.7-1.1-92.6-23-67.2-25.3
				c12.4-1.1,56.6,3.2,52.2,0.9c-13.1-6.9-69.9-27.6-53.7-26.2c13.4,1.2,58.7,12.2,48.8,8c-10-4.1-39.8-31.6-21.4-23.5
				c14.4,6.4,84.8,12.8,71.8,11.2c-15.2-1.9-37.1-10.2-27.7-9.7c10.9,0.6,32.4-2.6,17-4.4c-13.3-1.6-51.1-6.6-43-7.8
				c3.1-0.5,40.8-3.4,29.9-5.5c-8.7-1.7-41.8-14.7-29.5-13.3c56.3,6.7,83.4-2.7,76.1-2.8c-26.7-0.2-46.3-4-33.5-4.5
				c14.7-0.6,21.6-5.2,15.1-4.9c-13.5,0.7-64.9-4.3-52.5-4.9c20.9-1,46.6-0.2,33.5-2.5c-17.8-3.2-41.1-15.3-30.2-12.9
				c69.6,15.5,133.9,8.9,113.4,7.1c-12.7-1.1-50.6-8.1-32.9-8.8c4.1-0.2,39.8-3.1,27.2-3.7c-21.2-0.9-51.8-7.3-44.4-8.1
				c10.3-1,37.2-7.2,26.4-6.6c-19.9,1-55.2-6.4-43.3-6.7c16.9-0.5,30.1-7,22.5-7.3c-7.7-0.4-25.8-7-35.6-12.1
				c-9.9-5.2,48.5,1.7,36.2-5.1c-12.3-6.9-58.6-42.3-32.9-32.4c62.1,23.9,101.4,11.8,79.2,11.6c-14.1-0.1-34.2-3.5-20.7-4.5
				c13.5-0.9,34.4-8.7,21.9-7.3c-32.9,3.7-57.1-4.8-50.7-4.9c1.2,0,31.8,1.1,27.4,0.4c-14.7-2.3-58.7-22.2-41.5-17.7
				c46.4,11.9,119.7,11.2,96.2,7.7c-15.8-2.3-46.3-9.6-25.1-10.4c16.6-0.6,41.5-6.2,25.6-7c-15.9-0.7-51.7-6.4-35.6-8.7
				c16.2-2.4,32.4-13.1,21-9.9c-21.4,6-59.3,5.4-46.3,1.9c13.1-3.6,23.2-12.4,15.7-10.2c-29.8,8.6-53.7,0.4-48.2,0.3
				c24.3-0.6,65.4-12.8,51.9-11.4c-7.8,0.8-41.7,0-27.3-2.6c12.4-2.3,22.3-6.7,12-6.7c-21.9-0.1-36.8-7.5-29.4-6.9
				c17.2,1.3,82-2.8,63.6-5.3c-14.9-2.1-33.5-12.3-24.7-10.7c18,3.3,48.2,4.4,36.8,1.8c-5.7-1.3-38-10.6-21.2-9.6
				c17.8,1.1,30.3-3.3,23-3.9c-30.6-2.8-56.7-16.9-46.6-15.2c35.8,5.8,87.5-9.2,65-11.9c-9.9-1.2-41.9-9.8-23.7-9
				c12.9,0.6,35.9-5.4,28.6-5.5c-14-0.2-50.6-11.8-39-11.1c12.5,0.7,37-3,29.6-4.4c-8.1-1.4-37.4-13.8-20.4-12.9
				c13.4,0.7,37.4-7.4,26.9-7.9c-8.1-0.4-33.9-9.7-16.5-9.3c2.8,0.1,33.5-3.4,24-5.3c-13.7-2.8-33.7-13.4-17.5-11.7
				c5,0.5,21.3,1.3,23.1-2.7c1.6-3.6-0.7-16.9,5.2-25.5c5.4-8-4.7,24.9,8.5,25.7c2.9,0.2,5.8,0.3,17.7,0.4c10,0.1-29.6,10.6-15.7,13
				c11.8,2,17.8,1,22.6,0c10.5-2.2-5.7,11.1-20.4,14.8c-6.8,1.7,20.8,4.9,34.2,1.1c10.3-2.9-6.7,9.1-26.8,9.5
				c-17.3,0.4,15.3,8.3,22.3,8.6c7,0.3-11.4,6.1-26.2,7.1c-12.2,0.9,24.6,8,32.4,8.3c8.7,0.4-6.2,5.8-25.7,8.8
				c-15.1,2.3,28,13.3,54.8,7.7c11.9-2.5-21,14.7-41.7,18.1c-11.1,1.8,42.9,0.4,62.7-5.6c21.9-6.6-13.6,16.4-43.5,19.2
				c-19.1,1.8,16.3,4.8,29,4.8c14.5-0.1-15.8,9.3-49.1,3.5c-13.5-2.4,25.7,23.4,81.3,17.9c47.2-4.6-15.9,13.8-44.3,13.5
				c-14.1-0.2,18.5,7.1,31.8,9c13.3,1.9-41,9.1-59.9,5.6c-19-3.5,25.9,12.1,42.7,10.3c16.8-1.8-25.2,7.6-44.8,7.2
				c-19.7-0.4,31.9,10.7,70.6-3.9c13.5-5.1-11.8,14.2-22.2,18.7c-9.5,4.1,10,4.8,17.5,4.1c13-1.3-22,9.1-42.1,10
				c-20.1,1,44.7,4,63,3.2c22-1-30.6,11.9-54.9,8.8c-14.7-1.9,31.3,7.6,48.6,11.1c17.4,3.5-29.6,3.9-50.6,0.7
				c-35.1-5.4,20.6,14.2,67.3,10c14.6-1.3-20.9,10.7-37.1,11.3c-15.5,0.5,26.4,5,42.4,5.7c14.4,0.6-28.4,11.9-53.8,10.2
				c-17.3-1.1,17.2,12.2,66.7,11.9c52.6-0.3-19.9,12.8-40.8,11.3c-10.5-0.8,12.8,9.2,49,10.5c29.2,1-28.8,12.3-57.1,8.7
				c-19.1-2.4,7.7,7.4,24.3,9.7c22.9,3.2-35.6,11.5-54.1,10.6c-28.3-1.4,65.1,12.3,117.7,6.6c16.1-1.8-33.8,13.7-53.8,15.2
				c-20,1.5,32.1,7.2,46.6,10.2c16.4,3.4-45.4,11.6-79.2,5.5c-16-2.9,56.9,20.3,79.3,19.9c23.2-0.5,4.6,10.2-52.3,4.9
				c-19.1-1.8,36.9,12.1,54,11.5c30.6-1.1-5.7,12.9-71,3c-26.8-4.1,40.4,19.5,103.4,15.3c19.6-1.3-9.7,13.7-65.2,7.4
				c-9-1,35.8,11,52.6,11.6c16.7,0.5-15.1,8-63.3,3.4c-48.1-4.6,11.9,9.9,25.9,11.1c14,1.2,1.6,6.4-26.3,3.8
				c-30.3-2.8,69.6,16.9,97.6,17.2c46.6,0.5-18.6,13.5-55.3,8.9c-18-2.3,22.7,11.4,39.3,12.2c16.6,0.8-17.6,7.6-49.9,1.9
				c-32.6-5.7,1.2,11.9,14.5,16.4c38.8,13.4-48.4-4.2-71.5-16c-10-5.1,11.8,22.7,21,28.7c27.3,17.7-45.6-12.1-59.9-25.2
				c-9.7-8.9-12.3,14.7-8.4,23.1c4.3,9.2-13.9-0.2-24.5-21.1c-9.3-18.1-5.9,17.9-4,26.9c1.9,9-17-3.6-21.5-23.4
				c-3.2-14-10.2-0.4-15.6,11.9c-5.3,12.3-14.5,26-12.7,9.9C352,1057.6,348.4,1041,341.8,1051.5z"/>
		</g>
	</g>
	<path class="st1" d="M450.4,299.4c1.3,2,4.5,3.6,4.2,2.9c-0.1-0.3-2.3-2.7-1.5-2.1c1.5,1.2,4.9,2.7,3.5,1.5
		c-0.6-0.6-1.9-1.9-1.4-1.7c0.9,0.3,4.7,0.5,4,0.1c-0.1-0.1-3.7-1.7-2.5-1.3c0.9,0.3,4.6,1,6.7,1c0.8,0-3.4-1.2-2.2-1
		c2.5,0.4,8.2,0.4,7.3-0.1c-1.1-0.5-4-1.7-3.3-1.5c1.7,0.7,10,1.4,8.9,0.7c-0.7-0.4-5.5-1.5-3.9-1.3c1,0.2,6.7-0.2,5.6-0.5
		c-1.1-0.3-4.8-0.3-7.2-1.1c-1.3-0.5,5.8,0,4.2-0.5c-0.8-0.2-4.5-0.6-3.6-0.8c0.8-0.2,3.1,0.2,5.2-0.2c0.7-0.1-5-0.4-4-0.7
		c0.6-0.2,2.2-0.3,3.8-1.1c0.3-0.1-6.8,0.7-5.3,0.3c0.8-0.2,1.4-0.4,2.6-1.2c1.1-0.7-3.5,0.2-5.4,0.2c-3.5-0.1,9.6-2.4,6.9-2.6
		c-1.3-0.1-5.8,0.3-5.4,0.1c1.3-0.7,7.2-2.9,5.5-2.7c-1.4,0.1-6.1,1.3-5,0.8c1-0.4,4.1-3.3,2.2-2.4c-1.5,0.7-8.8,1.3-7.4,1.2
		c1.6-0.2,3.8-1.1,2.9-1c-1.1,0.1-3.4-0.3-1.8-0.5c1.4-0.2,5.3-0.7,4.4-0.8c-0.3,0-4.2-0.3-3.1-0.6c0.9-0.2,4.3-1.5,3-1.4
		c-5.8,0.7-8.6-0.3-7.9-0.3c2.8,0,4.8-0.4,3.5-0.5c-1.5-0.1-2.2-0.5-1.6-0.5c1.4,0.1,6.7-0.4,5.4-0.5c-2.2-0.1-4.8,0-3.5-0.3
		c1.8-0.3,4.2-1.6,3.1-1.3c-7.2,1.6-13.8,0.9-11.7,0.7c1.3-0.1,5.2-0.8,3.4-0.9c-0.4,0-4.1-0.3-2.8-0.4c2.2-0.1,5.3-0.8,4.6-0.8
		c-1.1-0.1-3.8-0.7-2.7-0.7c2.1,0.1,5.7-0.7,4.5-0.7c-1.7-0.1-3.1-0.7-2.3-0.8c0.8,0,2.7-0.7,3.7-1.3c1-0.5-5,0.2-3.7-0.5
		c1.3-0.7,6.1-4.4,3.4-3.3c-6.4,2.5-10.5,1.2-8.2,1.2c1.5,0,3.5-0.4,2.1-0.5c-1.4-0.1-3.6-0.9-2.3-0.8c3.4,0.4,5.9-0.5,5.2-0.5
		c-0.1,0-3.3,0.1-2.8,0c1.5-0.2,6.1-2.3,4.3-1.8c-4.8,1.2-12.4,1.2-9.9,0.8c1.6-0.2,4.8-1,2.6-1.1c-1.7-0.1-4.3-0.6-2.6-0.7
		c1.6-0.1,5.3-0.7,3.7-0.9c-1.7-0.2-3.3-1.4-2.2-1c2.2,0.6,6.1,0.6,4.8,0.2c-1.3-0.4-2.4-1.3-1.6-1.1c3.1,0.9,5.5,0,5,0
		c-2.5-0.1-6.7-1.3-5.4-1.2c0.8,0.1,4.3,0,2.8-0.3c-1.3-0.2-2.3-0.7-1.2-0.7c2.3,0,3.8-0.8,3-0.7c-1.8,0.1-8.5-0.3-6.6-0.6
		c1.5-0.2,3.5-1.3,2.6-1.1c-1.9,0.3-5,0.5-3.8,0.2c0.6-0.1,3.9-1.1,2.2-1c-1.8,0.1-3.1-0.3-2.4-0.4c3.2-0.3,5.9-1.7,4.8-1.6
		c-3.7,0.6-9-1-6.7-1.2c1-0.1,4.3-1,2.4-0.9c-1.3,0.1-3.7-0.6-3-0.6c1.4,0,5.2-1.2,4-1.1c-1.3,0.1-3.8-0.3-3.1-0.5
		c0.8-0.1,3.9-1.4,2.1-1.3c-1.4,0.1-3.9-0.8-2.8-0.8c0.8,0,3.5-1,1.7-1c-0.3,0-3.5-0.3-2.5-0.5c1.4-0.3,3.5-1.4,1.8-1.2
		c-0.5,0.1-2.2,0.1-2.4-0.3c-0.2-0.4,0.1-1.7-0.5-2.6c-0.6-0.8,0.5,2.6-0.9,2.7c-0.3,0-0.6,0-1.8,0c-1,0,3.1,1.1,1.6,1.3
		c-1.2,0.2-1.8,0.1-2.3,0c-1.1-0.2,0.6,1.1,2.1,1.5c0.7,0.2-2.1,0.5-3.5,0.1c-1.1-0.3,0.7,0.9,2.8,1c1.8,0-1.6,0.9-2.3,0.9
		c-0.7,0,1.2,0.6,2.7,0.7c1.3,0.1-2.5,0.8-3.3,0.9c-0.9,0,0.6,0.6,2.7,0.9c1.6,0.2-2.9,1.4-5.7,0.8c-1.2-0.3,2.2,1.5,4.3,1.9
		c1.1,0.2-4.4,0-6.5-0.6c-2.3-0.7,1.4,1.7,4.5,2c2,0.2-1.7,0.5-3,0.5c-1.5,0,1.6,1,5.1,0.4c1.4-0.2-2.7,2.4-8.4,1.9
		c-4.9-0.5,1.6,1.4,4.6,1.4c1.5,0-1.9,0.7-3.3,0.9c-1.4,0.2,4.2,0.9,6.2,0.6c2-0.4-2.7,1.3-4.4,1.1c-1.7-0.2,2.6,0.8,4.6,0.7
		c2,0-3.3,1.1-7.3-0.4c-1.4-0.5,1.2,1.5,2.3,1.9c1,0.4-1,0.5-1.8,0.4c-1.3-0.1,2.3,0.9,4.3,1c2.1,0.1-4.6,0.4-6.5,0.3
		c-2.3-0.1,3.2,1.2,5.7,0.9c1.5-0.2-3.2,0.8-5,1.1c-1.8,0.4,3.1,0.4,5.2,0.1c3.6-0.6-2.1,1.5-6.9,1c-1.5-0.1,2.2,1.1,3.8,1.2
		c1.6,0.1-2.7,0.5-4.4,0.6c-1.5,0.1,2.9,1.2,5.6,1.1c1.8-0.1-1.8,1.3-6.9,1.2c-5.4,0,2.1,1.3,4.2,1.2c1.1-0.1-1.3,1-5.1,1.1
		c-3,0.1,3,1.3,5.9,0.9c2-0.3-0.8,0.8-2.5,1c-2.4,0.3,3.7,1.2,5.6,1.1c2.9-0.1-6.7,1.3-12.2,0.7c-1.7-0.2,3.5,1.4,5.6,1.6
		c2.1,0.2-3.3,0.7-4.8,1c-1.7,0.3,4.7,1.2,8.2,0.6c1.7-0.3-5.9,2.1-8.2,2.1c-2.4,0-0.5,1.1,5.4,0.5c2-0.2-3.8,1.3-5.6,1.2
		c-3.2-0.1,0.6,1.3,7.3,0.3c2.8-0.4-4.2,2-10.7,1.6c-2-0.1,1,1.4,6.7,0.8c0.9-0.1-3.7,1.1-5.4,1.2c-1.7,0.1,1.6,0.8,6.5,0.3
		c5-0.5-1.2,1-2.7,1.1c-1.4,0.1-0.2,0.7,2.7,0.4c3.1-0.3-7.2,1.7-10.1,1.8c-4.8,0,1.9,1.4,5.7,0.9c1.9-0.2-2.3,1.2-4.1,1.3
		c-1.7,0.1,1.8,0.8,5.2,0.2c3.4-0.6-0.1,1.2-1.5,1.7c-4,1.4,5-0.4,7.4-1.6c1-0.5-1.2,2.3-2.2,3c-2.8,1.8,4.7-1.3,6.2-2.6
		c1-0.9,1.3,1.5,0.9,2.4c-0.4,1,1.4,0,2.5-2.2c1-1.9,0.6,1.9,0.4,2.8c-0.2,0.9,1.8-0.4,2.2-2.4c0.3-1.4,1.1,0,1.6,1.2
		c0.6,1.3,1.5,2.7,1.3,1C449.4,300,449.8,298.3,450.4,299.4z"/>
	<path class="st1" d="M414.3,296.7c-1.6,2.5-5.6,4.4-5.2,3.6c0.1-0.4,2.8-3.4,1.9-2.6c-1.9,1.5-6,3.4-4.3,1.8
		c0.8-0.7,2.4-2.3,1.7-2.1c-1.2,0.3-5.9,0.7-5,0.1c0.2-0.1,4.6-2.1,3.1-1.7c-1.2,0.4-5.7,1.3-8.3,1.2c-1,0,4.2-1.5,2.7-1.3
		c-3.1,0.6-10.2,0.5-9.1-0.1c1.3-0.7,4.9-2.1,4.1-1.8c-2.1,0.8-12.5,1.7-11,0.9c0.8-0.4,6.8-1.9,4.8-1.6c-1.3,0.2-8.4-0.2-6.9-0.6
		c1.4-0.4,6-0.4,8.9-1.3c1.7-0.6-7.1,0-5.2-0.6c1.1-0.3,5.6-0.8,4.5-1c-1-0.3-3.8,0.3-6.5-0.2c-0.8-0.2,6.2-0.5,5-0.9
		c-0.8-0.3-2.7-0.3-4.7-1.4c-0.3-0.2,8.4,0.8,6.6,0.4c-1-0.2-1.8-0.5-3.3-1.5c-1.4-0.9,4.4,0.3,6.6,0.2c4.3-0.1-11.9-3-8.6-3.2
		c1.6-0.1,7.3,0.4,6.7,0.1c-1.7-0.9-9-3.5-6.9-3.4c1.7,0.2,7.5,1.6,6.3,1c-1.3-0.5-5.1-4.1-2.8-3c1.8,0.8,10.9,1.6,9.2,1.4
		c-1.9-0.2-4.8-1.3-3.6-1.2c1.4,0.1,4.2-0.3,2.2-0.6c-1.7-0.2-6.6-0.8-5.5-1c0.4-0.1,5.2-0.4,3.8-0.7c-1.1-0.2-5.4-1.9-3.8-1.7
		c7.2,0.9,10.7-0.3,9.8-0.4c-3.4,0-5.9-0.5-4.3-0.6c1.9-0.1,2.8-0.7,1.9-0.6c-1.7,0.1-8.3-0.6-6.7-0.6c2.7-0.1,6,0,4.3-0.3
		c-2.3-0.4-5.3-2-3.9-1.6c8.9,2,17.2,1.1,14.5,0.9c-1.6-0.1-6.5-1-4.2-1.1c0.5,0,5.1-0.4,3.5-0.5c-2.7-0.1-6.6-0.9-5.7-1
		c1.3-0.1,4.8-0.9,3.4-0.9c-2.5,0.1-7.1-0.8-5.5-0.9c2.2-0.1,3.9-0.9,2.9-0.9c-1,0-3.3-0.9-4.6-1.6c-1.3-0.7,6.2,0.2,4.6-0.7
		c-1.6-0.9-7.5-5.4-4.2-4.2c8,3.1,13,1.5,10.2,1.5c-1.8,0-4.4-0.5-2.7-0.6c1.7-0.1,4.4-1.1,2.8-0.9c-4.2,0.5-7.3-0.6-6.5-0.6
		c0.1,0,4.1,0.1,3.5,0.1c-1.9-0.3-7.5-2.8-5.3-2.3c5.9,1.5,15.3,1.4,12.3,1c-2-0.3-5.9-1.2-3.2-1.3c2.1-0.1,5.3-0.8,3.3-0.9
		c-2-0.1-6.6-0.8-4.6-1.1c2.1-0.3,4.1-1.7,2.7-1.3c-2.7,0.8-7.6,0.7-5.9,0.2c1.7-0.5,3-1.6,2-1.3c-3.8,1.1-6.9,0.1-6.2,0
		c3.1-0.1,8.4-1.6,6.7-1.5c-1,0.1-5.3,0-3.5-0.3c1.6-0.3,2.9-0.9,1.5-0.9c-2.8,0-4.7-1-3.8-0.9c2.2,0.2,10.5-0.4,8.2-0.7
		c-1.9-0.3-4.3-1.6-3.2-1.4c2.3,0.4,6.2,0.6,4.7,0.2c-0.7-0.2-4.9-1.4-2.7-1.2c2.3,0.1,3.9-0.4,3-0.5c-3.9-0.4-7.3-2.2-6-2
		c4.6,0.7,11.2-1.2,8.3-1.5c-1.3-0.2-5.4-1.3-3-1.1c1.6,0.1,4.6-0.7,3.7-0.7c-1.8,0-6.5-1.5-5-1.4c1.6,0.1,4.8-0.4,3.8-0.6
		c-1-0.2-4.8-1.8-2.6-1.7c1.7,0.1,4.8-0.9,3.5-1c-1-0.1-4.4-1.2-2.1-1.2c0.4,0,4.3-0.4,3.1-0.7c-1.8-0.4-4.3-1.7-2.2-1.5
		c0.6,0.1,2.7,0.2,3-0.3c0.2-0.5-0.1-2.2,0.7-3.3c0.7-1-0.6,3.2,1.1,3.3c0.4,0,0.7,0,2.3,0.1c1.3,0-3.8,1.4-2,1.7
		c1.5,0.3,2.3,0.1,2.9,0c1.4-0.3-0.7,1.4-2.6,1.9c-0.9,0.2,2.7,0.6,4.4,0.1c1.3-0.4-0.9,1.2-3.4,1.2c-2.2,0,2,1.1,2.9,1.1
		c0.9,0-1.5,0.8-3.4,0.9c-1.6,0.1,3.2,1,4.2,1.1c1.1,0-0.8,0.7-3.3,1.1c-1.9,0.3,3.6,1.7,7,1c1.5-0.3-2.7,1.9-5.3,2.3
		c-1.4,0.2,5.5,0.1,8-0.7c2.8-0.9-1.7,2.1-5.6,2.5c-2.4,0.2,2.1,0.6,3.7,0.6c1.9,0-2,1.2-6.3,0.5c-1.7-0.3,3.3,3,10.4,2.3
		c6-0.6-2,1.8-5.7,1.7c-1.8,0,2.4,0.9,4.1,1.2c1.7,0.2-5.3,1.2-7.7,0.7c-2.4-0.4,3.3,1.6,5.5,1.3c2.2-0.2-3.2,1-5.7,0.9
		c-2.5,0,4.1,1.4,9-0.5c1.7-0.7-1.5,1.8-2.8,2.4c-1.2,0.5,1.3,0.6,2.2,0.5c1.7-0.2-2.8,1.2-5.4,1.3c-2.6,0.1,5.7,0.5,8.1,0.4
		c2.8-0.1-3.9,1.5-7,1.1c-1.9-0.2,4,1,6.2,1.4c2.2,0.4-3.8,0.5-6.5,0.1c-4.5-0.7,2.6,1.8,8.6,1.3c1.9-0.2-2.7,1.4-4.8,1.4
		c-2,0.1,3.4,0.6,5.4,0.7c1.8,0.1-3.6,1.5-6.9,1.3c-2.2-0.1,2.2,1.6,8.6,1.5c6.7,0-2.6,1.6-5.2,1.4c-1.4-0.1,1.6,1.2,6.3,1.3
		c3.8,0.1-3.7,1.6-7.3,1.1c-2.4-0.3,1,0.9,3.1,1.2c2.9,0.4-4.6,1.5-6.9,1.4c-3.6-0.2,8.3,1.6,15.1,0.8c2.1-0.2-4.3,1.8-6.9,2
		c-2.6,0.2,4.1,0.9,6,1.3c2.1,0.4-5.8,1.5-10.2,0.7c-2.1-0.4,7.3,2.6,10.2,2.6c3-0.1,0.6,1.3-6.7,0.6c-2.5-0.2,4.7,1.6,6.9,1.5
		c3.9-0.1-0.7,1.7-9.1,0.4c-3.4-0.5,5.2,2.5,13.3,2c2.5-0.2-1.2,1.8-8.4,1c-1.1-0.1,4.6,1.4,6.7,1.5c2.1,0.1-1.9,1-8.1,0.4
		c-6.2-0.6,1.5,1.3,3.3,1.4c1.8,0.2,0.2,0.8-3.4,0.5c-3.9-0.4,8.9,2.2,12.5,2.2c6,0.1-2.4,1.7-7.1,1.1c-2.3-0.3,2.9,1.5,5,1.6
		c2.1,0.1-2.3,1-6.4,0.2c-4.2-0.7,0.2,1.5,1.9,2.1c5,1.7-6.2-0.5-9.2-2c-1.3-0.7,1.5,2.9,2.7,3.7c3.5,2.3-5.9-1.6-7.7-3.2
		c-1.2-1.1-1.6,1.9-1.1,3c0.6,1.2-1.8,0-3.1-2.7c-1.2-2.3-0.8,2.3-0.5,3.5c0.2,1.2-2.2-0.5-2.8-3c-0.4-1.8-1.3-0.1-2,1.5
		c-0.7,1.6-1.9,3.3-1.6,1.3C415.6,297.5,415.1,295.4,414.3,296.7z"/>
	<g>
		<path class="st2" d="M572,454.3c7.8,0.7,28,2,28-1.7c0-2.8-2.8-4.6-6.2-5.1c-8.4-2-16.3-2.6-24.1-3c0,2.6,0,5.1,0,7.7
			C569.7,453.3,570.7,454.2,572,454.3z"/>
		<path class="st2" d="M575.6,348.2c0.1,11.3-13.3,44.1-17.8,56.3c-1.6,5.6-15.8,3.1-14.1-3.8c5.4-22.7,0.3-42.4,12.7-59
			C562.2,342.4,569.7,347.4,575.6,348.2z"/>
		<path class="st2" d="M568.6,351.4c-1.7,6.4-3.4,8.6-2.9,15.7c0.9,12.3,4.2,32.3,5.2,40.1c0.7,5.8,13.4,2.2,14.4-4.8
			c2.6-18.5,2.1-31.6,1.9-50.2C581,351.9,574.8,351.7,568.6,351.4z"/>
		<path class="st2" d="M583.7,445.8c-5.3-1-11.2,5.5-14.8,3.2c-0.8-26.2,0.2-37.5,3-48.3c2.2-8.4,14-10.1,13.3-0.9
			C584.7,407.1,584.7,439.1,583.7,445.8z"/>
		<path class="st2" d="M576.6,303.7c9.8-4.3,31.8-12.5,40.5-16.3c6.8-1.4,8,4.3,3.8,7.8c-7.3,6.2-27.2,16.2-35.9,19.4
			C574.7,318.4,567.2,307.8,576.6,303.7z"/>
		<path class="st2" d="M634.9,275.6c-2.6,5.9-10.8,16.8-14.1,19.6c-4.9,4.1-15.6,0.5-11.5-4.1c3.2-3.7,12.1-15.4,16-20.6
			C627.1,271.2,632,273.4,634.9,275.6z"/>
		<path class="st2" d="M541.5,451.3c7.8,0.6,27.9,1.8,27.9-1.7c0-2.8-2.8-4.6-6.2-5.1c-8.6-1.8-16.5-2.6-24.1-3c0,2.5,0,5.1,0,7.6
			C539.1,450.2,540.2,451.2,541.5,451.3z"/>
		<path class="st2" d="M553.3,442.3c-5.2-1.4-12.2,5.9-15.6,3.4c1.5-26.2,2.3-32.5,6.1-46.3c2.3-8.4,15.5-5.4,14,3.8
			C554.9,421.6,554.9,435.8,553.3,442.3z"/>
		<path class="st2" d="M544.6,305.6c5.5-5.7,35.9-4.7,39.8-1.2c1.3,7.4,1,22.8,5.2,49.8c0.5,3-13.5,6.7-16,2.5
			c-1.7,5.7-28.3,1.7-26.2-4.8c3.4-10.8,1.2-23,0.6-29.2C547.4,316.5,541.5,308.9,544.6,305.6z"/>
		<path class="st2" d="M543.8,307.2c-3.8,8.8-10.9,24.2-10.4,31.9c0.4,5.7,7.3,5.1,9.8-0.3c3.1-6.7,7.4-13.5,12.1-23.2
			C559.5,307.1,547.3,298.9,543.8,307.2z"/>
		<path class="st2" d="M572.5,293.2V304c-0.5,4-13,4.2-12.7-1.4l0-9.4C559.9,288.2,572.5,288.2,572.5,293.2z"/>
		<path class="st2" d="M570.9,267.9c-14-0.5-17.9,11.2-14.5,19.4c1.6,3.9,6.6,11.4,15.3,11.6c5.5,0.2,10.2-5.2,11.9-11.9
			C586.1,278.1,583.2,268.5,570.9,267.9z"/>
		<path class="st2" d="M565.7,269.8c-1.9,7.9,0,21.6-5.8,24.1C549.3,285.6,546.2,265.1,565.7,269.8z"/>
		<path class="st2" d="M558.1,273.6c5.2-9.1,16.7-7.6,23.7-2.6c2.3,1.6,4.3,5.4,7.2,4.3C590,280.2,581.9,283.7,558.1,273.6z"/>
		<path class="st2" d="M534.1,359.8c-0.8-6.2-1.8-21.1-0.3-24.8c2.2-5.4,11.6-5.6,11.4,0c-0.2,5.6,0.8,18.8,0.1,24.8
			C542.7,360.8,537.9,360.8,534.1,359.8z"/>
		<path class="st2" d="M634.8,266.1c2.3-3.2,4-6.2,2.9-6.4c-1.7-0.4-4.2,5.1-6.8,6.8c0.5-1,1.2-2.6,0.5-2.9
			c-2.4-1.1-6.1,10.6-2.9,12.1c5.3,2.5,16.3-10.6,14.3-11.8c-0.7-0.4-1.1,1.4-4,3.7c2.4-2.6,4.9-5.7,3.4-6.4
			c-0.8-0.4-3.3,3.9-5.5,5.8c1.8-2.5,5.1-7,4-7.3C639.3,259.2,637.2,263.9,634.8,266.1z"/>
		<path class="st2" d="M542.7,367.8c0.1-0.5,0.1-1,0.3-1.4c0.2,1,1.6,2.4,2.3,2.3c2.7-0.2-2.9-11.2-6.6-11c-3.3,0.2-5,4.9-5.3,9.3
			c-0.2,2.5,2.1,2.5,4.4,2.6C540.3,369.7,542.6,369.8,542.7,367.8z"/>
	</g>
	<path class="st2" d="M817.8,328.9c-1.3,2.8-7.3,14.4-7.8,15.3c-5.9,3.3-11.9,5.1-19,5.8h-58c0,0-9.4-9.5-10.2-11.3
		C756.9,342.5,786.8,340.5,817.8,328.9z"/>
	<path class="st2" d="M743.4,339.8l2.6-0.4c-0.1-0.3-0.1-0.6-0.2-0.8c1.3-0.3,2.8-1.5,4.1-1.8C759.8,343.2,743.5,350.1,743.4,339.8z
		"/>
	<path class="st2" d="M744.1,328.2c-2.3-0.7-7.4-2.1-9.4-2.7c-1.5-0.2-1.6,1.1-0.6,1.8c1.8,1.2,7.1,3.3,9.1,3.9
		C745.6,331.7,746.3,328.9,744.1,328.2z"/>
	<path class="st2" d="M730.4,323.2c0.8,1.2,2.9,3.5,3.7,4c1.2,0.8,3.5-0.2,2.4-1.1c-0.8-0.7-3.2-3.1-4.2-4.2
		C731.9,322.1,731,322.7,730.4,323.2z"/>
	<path class="st2" d="M751.4,329.3c-1.4-1.1-8.2-1.4-9-0.5c-0.1,1.7,0.6,5.4,0.5,11.4c0,1.3,10.2,0.8,9.2-1.4c-1.1-2.3-1-5-1-6.4
		C751.1,331.1,752.2,330,751.4,329.3z"/>
	<path class="st2" d="M751.8,330.8c-0.6,2-1.2,4.8-2.5,6.2c-0.9,1-2.1,0.2-1.8-1c0.4-1.6,0.7-3.7,1.2-6
		C749.2,328,752.3,328.9,751.8,330.8z"/>
	<path class="st2" d="M744.8,326.4l0.3,2.4c0.2,0.9,3,0.7,2.7-0.6l-0.3-2.1C747.4,325.1,744.6,325.3,744.8,326.4z"/>
	<path class="st2" d="M745.2,321c3.1,0.1,3.7,2.7,2.8,4.5c-0.4,0.8-1.7,2.4-3.6,2.4c-1.2,0-2.1-1.3-2.4-2.8
		C741.7,323.1,742.5,321,745.2,321z"/>
	<path class="st2" d="M746.4,321.5c0.2,1.8-0.5,4.8,0.8,5.4C749.6,325.2,750,320.9,746.4,321.5z"/>
	<path class="st2" d="M748,322.5c-0.9-2.1-3.5-1.9-5.2-0.9C737.7,324.7,745.6,323.3,748,322.5z"/>
	<path class="st2" d="M742.1,338.3c1.7-0.1,5.7-0.6,6.6-1c1.3-0.6,1-2.3-0.5-2c-1.5,0.3-5,0.6-6.6,1
		C741.5,336.8,741.7,337.6,742.1,338.3z"/>
	<path class="st2" d="M730.8,320.8c-0.4-0.8-0.6-1.5-0.4-1.5c0.4,0,0.7,1.2,1.2,1.7c-0.1-0.2-0.2-0.6,0-0.7c0.6-0.2,0.9,2.5,0.2,2.7
		c-1.3,0.4-3.2-2.7-2.7-2.9c0.2-0.1,0.2,0.3,0.7,0.9c-0.4-0.6-0.9-1.4-0.5-1.5c0.2-0.1,0.6,0.9,1,1.4c-0.3-0.6-0.9-1.7-0.6-1.7
		C730,319.2,730.3,320.3,730.8,320.8z"/>
	<path class="st2" d="M739.1,336.7c0.5,0,0.7,0,1.1-0.1c-0.3,0-0.7-0.1-0.7-0.3c0.1-0.5,3.1,0.4,3.1,1c0,0.6-1.3,1-2.5,1
		C739.6,338.3,737.7,336.6,739.1,336.7z"/>
	<path class="st2" d="M551.4,381.3L551.4,381.3l0.2,0v0l0.2,0v0l0.2,0v0l0.2,0v0l0.2,0v0l0.2,0v0l0.2,0v0l0.2,0v0l0.2,0l0.2,0v0
		l0.2,0v0l0.2,0v0l0.2,0.1v0l0.2,0.1l0.2,0.1v0l0.2,0.1l0.2,0.1v0l0.2,0.1l0.2,0.1l0.2,0.1v0l0.2,0.1v0l0.2,0.1l0.2,0.1l0.2,0.1
		l0.2,0.1h0l0.2,0.1l0.1,0.1h0l0.1,0.1l0.1,0.1l0.1,0.1h0l0.1,0.1h0l0.1,0.1l0,0l0.1,0.1h0l0.1,0.1l0.1,0.1v0l0.1,0.1l0.1,0.1l0,0
		l0.1,0.1l0,0l0.1,0.1l0.1,0.1h0l0.1,0.1h0l0.1,0.1l0,0l0.1,0.1h0l0.1,0.1l0,0l0.1,0.1l0,0l0.1,0.1l0,0l0.1,0.1h0l0.1,0.1l0.1,0.1
		l0,0l0.1,0.2h0l0.1,0.2l0,0l0.1,0.2l0,0l0.1,0.2h0l0,0.2h0l0,0.2h0l0,0.2h0l0,0.2h0l0,0.2h0l0,0.2l0,0l0,0.2h0c0,0.2,0,0.3,0,0.5
		v0.4l0,0v8h0h1.8h1h0.9l0,0l0,0l0,0l0,0l0,0l0,0l0,0l0,0l0,0l0,0l0,0l0,0l0,0l0,0l0,0l0,0l0,0l0,0l0,0l0,0l0,0l0,0v0l0,0l0,0l0,0v0
		l0,0l0,0l0,0l0,0l0,0h0l0,0l0,0l0,0l0,0l0,0l0,0l0,0v0l0,0l0,0l0,0l0,0l0,0l0,0l0,0h0l0,0l0,0l0,0l0,0l0,0l0,0v0l0,0l0,0v0l0,0l0,0
		l0,0l0,0l0,0l0,0l0,0l0,0l0,0l0,0l0,0l0,0l0,0l0,0l0,0h0l0,0l0,0l0,0l0,0l0,0l0,0l0,0l0,0l0,0l0,0l0,0l0,0l0,0l0,0l0,0h0l0,0l0,0
		l0,0l0,0l0,0l0,0l0,0l0,0v0l0,0v6.9l0,0V422c0,0.8-0.8,1.5-1.8,1.5h-3.7v0.7c0,3-2.5,5.5-5.8,6.3v6.4c0,1.4-1.4,2.6-3.2,2.6h-1
		h-2.8h-23.3h-2.8h-1c-1.8,0-3.2-1.2-3.2-2.6v-6.4c-3.3-0.8-5.8-3.3-5.8-6.3v-0.7h-3.7c-1,0-1.8-0.7-1.8-1.5v-17.4v-6.9v0l0,0v0l0,0
		v0l0,0v0l0,0v0l0,0l0,0l0,0l0,0v0l0,0l0,0v0l0,0v0l0,0v0l0,0l0,0l0,0l0,0l0,0v0l0,0l0,0v0l0,0v0l0-0.1h0l0,0h0l0,0l0,0l0,0h0l0,0
		l0,0l0,0l0,0h0l0,0h0l0,0h0l0,0v0l0,0l0,0h0l0,0h0l0,0l0,0l0,0h0l0,0h0l0,0h0l0,0l0,0h0l0,0h0l0,0h0l0,0h0l0,0h0l0,0h0l0,0h0l0,0h0
		l0,0l0,0h0l0,0h0l0,0h0l0,0h0l0,0h0l0,0h0l0,0h0l0,0h0l0,0h0l0,0h0l0,0h0l0,0h0l0,0h0h0.9h1h1.8v-8v-0.4v0l0-0.2v0l0-0.2v0l0-0.2
		l0-0.2v0l0-0.2v0l0-0.2l0-0.2v0l0-0.2l0-0.2l0,0l0-0.2v0l0.1-0.2l0.1-0.2l0.1-0.2v0l0.1-0.2l0.1-0.1l0,0l0.1-0.1l0,0l0.1-0.1
		l0.1-0.1l0.1-0.1l0.1-0.1l0.1-0.1l0.1-0.1l0.1-0.1l0.1-0.1l0,0l0.1-0.1l0.1-0.1l0.1-0.1h0l0.1-0.1h0l0.1-0.1l0,0l0.1-0.1v0l0.1-0.1
		l0.1-0.1l0.1-0.1l0.1-0.1h0l0.1-0.1h0l0.1-0.1l0.1-0.1h0l0.2-0.1v0l0.2-0.1h0l0.2-0.1h0l0.2-0.1l0,0l0.2-0.1l0,0l0.2-0.1l0,0
		l0.2-0.1h0l0.2-0.1h0l0.2-0.1l0,0l0.2-0.1v0l0.2-0.1l0,0l0.2-0.1h0l0.2-0.1l0,0l0.2-0.1l0,0l0.2,0l0,0l0.2,0l0,0l0.2,0h0l0.2,0l0,0
		l0.2,0l0,0l0.2,0l0,0l0.2,0l0,0l0.2,0l0,0l0.2,0l0,0l0.2,0l0,0l0.2,0l0,0l0.2,0l0,0l0.2,0h-13.4v-4.6v-4.6h15.5h2.8h23.3h2.8h15.5
		v4.6v4.6h-13.4L551.4,381.3z"/>
	<path class="st5" d="M524.9,376.5c4.4-13.2,22.3-16.3,20.6,1.1"/>
	<g>
		<path class="st2" d="M755.5,425c-0.2,3-0.8,5.7-0.4,7.8c1,5.1,7.5,7.4,6.6,10.2c-2.9,8.4-0.7,11.4-3.8,11.5l-9,0
			c-2.8,0-2-3.8,3.6-4.3c3.5-0.3,2.5-7.4,0.8-8.2c-3.6-1.7-19.5-4-23.3-13.9c-0.1-0.3-0.5-0.3-1.1-0.2
			C735.6,422,750,417.7,755.5,425z"/>
		<path class="st2" d="M699.8,412.7c-0.7,6,0.2,33-2.1,36.3c-1,1.4-5.3,1-6.9,1.9c-2.3,1.3-2.9,3.6,0.8,3.6h10.7
			c3.3,0.1,0.3-14.2,11.9-29.1C725.8,410.5,700.3,408.1,699.8,412.7z"/>
		<path class="st2" d="M703.9,388.8c5.7,8.6,9.4,12.6,20.6,15.5c5.6,1.5,30.7-1.2,41.6,7.3c10,7.8,6.4,16.2,8.1,21.3
			c1.8,5.1,8.7,7.4,8.1,10.2c-1.6,8.4,1,11.5-2,11.5l-9,0c-2.8,0-2.6-3.8,3-4.3c3.5-0.3,1.4-7.4-0.5-8.2c-3.9-1.7-20.2-4-25.4-13.9
			c-1.1-2.1-13.2,7.5-34.4,2.5c-13.8-3.3-20.2-10.5-18.2-31.8C695.8,397.5,701.7,385.5,703.9,388.8z"/>
		<path class="st2" d="M759.9,410.2c7.1-1.5,10.3,8.3,19,11.4c9.6,3.3,14.7,1.1,13.5,2.7c-1.2,1.6-14.9,2.6-25-4.2
			C757.4,413.3,757.3,410.8,759.9,410.2z"/>
		<path class="st2" d="M715.5,391.3c0,3.4-2.6,5.8-3.5,9.1c-1.5,5.2-4.3,7.1-10.3,7.2c-6.6,0.1-7.9-2.9-9.8-7.6
			c-1.3-3.1-4-5.6-4-8.8C688,379.1,715.5,379.1,715.5,391.3z"/>
		<path class="st2" d="M709.7,383.7c4.5,2.1,9,6.1,10.3,8.5c1.2,2.4-0.8,9.3-3.3,8c-2.5-1.3-8-14.4-8.4-15.6
			C707.9,383.5,708.6,383.1,709.7,383.7z"/>
		<path class="st2" d="M693.9,383.7c-4.5,2.1-9,6.1-10.3,8.5c-1.2,2.4,1.5,10.5,4,9.2c2.5-1.3,7.3-15.6,7.7-16.8
			C695.7,383.5,695,383.1,693.9,383.7z"/>
		<path class="st2" d="M724.4,427c9,0.6,19.9-2.3,24.1,1.2c-3.2,0.3-15.7,6.9-34.4,2.5c-4.7-1.1-8.6-2.8-11.7-5.4
			C697.2,420.8,721.7,426.8,724.4,427z"/>
		<path class="st2" d="M706.4,412.7c1.4,6,11.9,33.2,10.8,36.5c-0.5,1.4-5.3,0.9-6.6,1.8c-1.9,1.3-1.7,3.6,2.1,3.6h10.7
			c3.3,0.1-4.6-14.2,1.9-29.1C731.7,410.5,705.4,408.1,706.4,412.7z"/>
	</g>
</g>
</svg>
