<?xml version="1.0" encoding="utf-8"?>
<!-- Generator: Adobe Illustrator 26.0.1, SVG Export Plug-In . SVG Version: 6.00 Build 0)  -->
<svg version="1.1" id="OBJECTS" xmlns="http://www.w3.org/2000/svg" xmlns:xlink="http://www.w3.org/1999/xlink" x="0px" y="0px"
	 viewBox="0 0 968 500" style="enable-background:new 0 0 968 500;" xml:space="preserve">
<style type="text/css">
	.st0{fill-rule:evenodd;clip-rule:evenodd;fill:#EBF5FF;}
	.st1{fill-rule:evenodd;clip-rule:evenodd;fill:#FFFFFF;}
	.st2{fill-rule:evenodd;clip-rule:evenodd;fill:#688CAD;}
	.st3{fill-rule:evenodd;clip-rule:evenodd;fill:#486E91;}
	.st4{fill-rule:evenodd;clip-rule:evenodd;fill:#9CC4EA;}
	.st5{fill-rule:evenodd;clip-rule:evenodd;fill:#2C4359;}
	.st6{clip-path:url(#SVGID_00000119819040190233128270000008249561756613835662_);}
	.st7{fill-rule:evenodd;clip-rule:evenodd;fill:#17232E;}
	.st8{clip-path:url(#SVGID_00000122711873462400103770000010684192412174915475_);}
	.st9{fill-rule:evenodd;clip-rule:evenodd;fill:#9DC5EA;}
	.st10{fill-rule:evenodd;clip-rule:evenodd;fill:#93DBCE;}
</style>
<g>
	<path class="st0" d="M856.5,168.9c15.3-28.7,81.8-44.6,111.4-2.1v58.8h-968v-81.7c27.5-13.9,70.4-13.5,91.4,20.4
		c7.6-6.2,20.5-3.5,27.9,1.9c30-14.4,78.7-6.2,85.9,19.5c11.1-2.5,23.3-1.8,29.1,5.1c21.7-9.5,73.1-6.5,72.8,7.4c0,0,0,0.1,0,0.1
		c14.9-3,31.5-0.7,41,8.8c16.6-31.2,90-48.1,120.4,0.8c7.5-6.1,19.7-4.1,27.7,0.8c15.9-7.7,39.2-7.5,50.9,4.2
		c13.1-24.6,63.8-39.8,96.7-16.9c10.6-7.8,33.1-12,48.9-7.5c14.7-22.4,54.5-26.9,80.6-16.9c6.7-1.8,14.9-1.5,20.9,1.7
		C806.9,157.9,841.5,153.8,856.5,168.9z"/>
	<path class="st1" d="M856.5,282.4c15.3,28.7,81.8,44.6,111.4,2.1v-58.8h-968v81.7c27.5,13.9,70.4,13.5,91.4-20.4
		c7.6,6.2,20.5,3.5,27.9-1.9c30,14.4,78.7,6.2,85.9-19.5c11.1,2.5,23.3,1.8,29.1-5.1c21.7,9.5,73.1,6.5,72.8-7.4c0,0,0-0.1,0-0.1
		c14.9,3,31.5,0.7,41-8.8c16.6,31.2,90,48.1,120.4-0.8c7.5,6.1,19.7,4.1,27.7-0.8c15.9,7.7,39.2,7.5,50.9-4.2
		c13.1,24.6,63.8,39.8,96.7,16.9c10.6,7.8,33.1,12,48.9,7.5c14.7,22.4,54.5,26.9,80.6,16.9c6.7,1.8,14.9,1.5,20.9-1.7
		C806.9,293.4,841.5,297.5,856.5,282.4z"/>
	<g>
		<path class="st2" d="M968,291.7c-74.1,4.2-186.9-45.8-257.2-47.2c-22.2-0.4-89.9-0.5-156.9-18.9H968V291.7z"/>
		<g>
			<g>
				<polygon class="st2" points="859.1,273.1 904.6,273.1 881.8,300.8 				"/>
				<polygon class="st2" points="862.5,285.7 901.2,285.7 881.8,309.4 				"/>
				<polygon class="st2" points="867.8,299.6 895.9,299.6 881.8,316.7 				"/>
				<polygon class="st2" points="873.2,313.4 890.5,313.4 881.8,324 				"/>
			</g>
			<g>
				<polygon class="st2" points="840.4,268.8 871.7,268.8 856,287.9 				"/>
				<polygon class="st2" points="842.7,277.5 869.4,277.5 856,293.8 				"/>
				<polygon class="st2" points="846.4,287.1 865.7,287.1 856,298.8 				"/>
				<polygon class="st2" points="850.1,296.6 862,296.6 856,303.9 				"/>
			</g>
			<g>
				<polygon class="st2" points="776,250.5 821.5,250.5 798.7,278.2 				"/>
				<polygon class="st2" points="779.4,263.1 818.1,263.1 798.7,286.8 				"/>
				<polygon class="st2" points="784.7,277 812.8,277 798.7,294.1 				"/>
				<polygon class="st2" points="790.1,290.8 807.4,290.8 798.7,301.4 				"/>
			</g>
			<g>
				<polygon class="st2" points="694,240.3 725.3,240.3 709.7,259.3 				"/>
				<polygon class="st2" points="696.3,249 723,249 709.7,265.2 				"/>
				<polygon class="st2" points="700,258.5 719.3,258.5 709.7,270.3 				"/>
				<polygon class="st2" points="703.7,268 715.6,268 709.7,275.3 				"/>
			</g>
			<g>
				<polygon class="st2" points="654.9,240.3 700.4,240.3 677.7,268 				"/>
				<polygon class="st2" points="658.3,252.9 697,252.9 677.7,276.5 				"/>
				<polygon class="st2" points="663.6,266.7 691.7,266.7 677.7,283.9 				"/>
				<polygon class="st2" points="669,280.6 686.3,280.6 677.7,291.2 				"/>
			</g>
			<g>
				<polygon class="st2" points="945.9,290.3 965.8,290.3 955.8,302.5 				"/>
				<polygon class="st2" points="947.3,295.9 964.3,295.9 955.8,306.2 				"/>
				<polygon class="st2" points="949.7,301.9 961.9,301.9 955.8,309.4 				"/>
				<polygon class="st2" points="952,308 959.6,308 955.8,312.6 				"/>
			</g>
		</g>
	</g>
	<g>
		<path class="st2" d="M-0.1,300.3c74.1,4.8,122.5-40.6,180-49c41.6-6,140.1,3.6,234.1-25.7H-0.1V300.3z"/>
		<g>
			<g>
				<polygon class="st2" points="66.3,272.7 111.8,272.7 89,300.5 				"/>
				<polygon class="st2" points="69.7,285.4 108.4,285.4 89,309 				"/>
				<polygon class="st2" points="75,299.2 103.1,299.2 89,316.3 				"/>
				<polygon class="st2" points="80.4,313.1 97.7,313.1 89,323.7 				"/>
			</g>
			<g>
				<polygon class="st2" points="102.4,264.1 133.7,264.1 118,283.2 				"/>
				<polygon class="st2" points="104.7,272.8 131.3,272.8 118,289.1 				"/>
				<polygon class="st2" points="108.4,282.3 127.7,282.3 118,294.1 				"/>
				<polygon class="st2" points="112.1,291.9 124,291.9 118,299.1 				"/>
			</g>
			<g>
				<polygon class="st2" points="18.2,296.3 43.5,296.3 30.9,311.7 				"/>
				<polygon class="st2" points="20.1,303.3 41.6,303.3 30.9,316.4 				"/>
				<polygon class="st2" points="23.1,311 38.7,311 30.9,320.5 				"/>
				<polygon class="st2" points="26.1,318.7 35.7,318.7 30.9,324.6 				"/>
			</g>
			<g>
				<polygon class="st2" points="320.2,240 342.3,240 331.3,253.5 				"/>
				<polygon class="st2" points="321.8,246.1 340.7,246.1 331.3,257.7 				"/>
				<polygon class="st2" points="324.4,252.9 338.1,252.9 331.3,261.2 				"/>
				<polygon class="st2" points="327,259.6 335.5,259.6 331.3,264.8 				"/>
			</g>
			<g>
				<polygon class="st2" points="306,242.5 323.2,242.5 314.6,253 				"/>
				<polygon class="st2" points="307.3,247.3 321.9,247.3 314.6,256.2 				"/>
				<polygon class="st2" points="309.3,252.5 319.9,252.5 314.6,259 				"/>
				<polygon class="st2" points="311.3,257.8 317.9,257.8 314.6,261.8 				"/>
			</g>
		</g>
	</g>
	<g>
		<path class="st3" d="M675.9,267.2l-6.8,6.1l11.2,0.6l-14.3,2.5c-2.3,0.4-7-0.3-14.4-2.2c-8.3-1.7-17.2-4.4-19.8-5.6
			c-4.9-2.4,14.4-5.5,14.4-5.5S674.8,260.9,675.9,267.2z"/>
		<path class="st4" d="M647.9,270.7l19.3,0.9c1.3-1,2.7-2.1,3.8-3.1l-15.2,0.6C653,269.2,649.7,269.8,647.9,270.7z"/>
		<path class="st3" d="M675.9,267.2c-5.8,0.3-11.7,0.6-17.3,0.8c-11.3,0.5-21.5,0.7-26.7,0.7h0h0c0.3,0.1,0.7,0.3,1.1,0.5
			c5.5,0,15.1-0.3,25.6-0.7c5.4-0.2,11.2-0.5,16.7-0.8L675.9,267.2z"/>
		<path class="st3" d="M690.1,266.6c0.1-0.1,0.2-0.2,0.1-0.3c-0.1-0.1-0.3-0.1-0.4-0.1l-0.3,0.2c-2.2,1.3-4.2,2.4-5.7,2.5l0,0v0
			c-9.1,0.6-18.7,1.2-28.2,1.7c-9.5,0.4-19,0.7-28.2,0.7c-0.2,0-0.3,0.1-0.3,0.2c0,0.1,0.1,0.2,0.3,0.2c9.2,0,18.7-0.2,28.2-0.7
			c9.5-0.4,19.1-1,28.2-1.7v0c1.7-0.1,3.7-1.3,6-2.6L690.1,266.6z"/>
		<path class="st3" d="M681.9,267c0.1-0.1,0-0.3-0.2-0.3c-0.2,0-0.3,0-0.4,0.1l-1.2,2.4c-0.1,0.1,0,0.3,0.2,0.3c0.2,0,0.3,0,0.4-0.1
			L681.9,267z"/>
		<path class="st3" d="M703.6,258.6c2,0,2.5,1.1,0.9,2l-7.3,4.2c-2.4,1.4-5.7,1.4-7.3,1.5l-1,0.1h0c-19.8,1.3-47.1,2.3-57.2,2.3
			c-1.2,0-2.3,0-3.1,0c0.2-0.6,0.6-1.2,1.2-1.9c0.3,0,0.7,0,1.1,0c2.5-3,8.1-7,11.8-8.2H703.6z"/>
		<path class="st3" d="M705,258.8c0.2,0.1,0.4,0.3,0.5,0.5c-22.4,1.1-45.1,1.4-67.6,1.7c0.1,0,0.2-0.1,0.3-0.2
			C660.3,260.5,683,259.9,705,258.8z"/>
		<path class="st3" d="M631,266.8c18.1-0.1,44.5-1.2,62.6-2.2l0.4-0.5c-18.2,1-44.7,2.4-62.9,2.5L631,266.8z"/>
		<path class="st3" d="M671.3,265.7c4.4-0.2,17.7-0.8,22.2-1.1l2.2-1.7l-22.6,1.3L671.3,265.7z"/>
		<path class="st3" d="M655.1,265.6l4.7-0.2c0.3,0,0.6-0.2,0.6-0.5v0c0-0.2-0.3-0.4-0.6-0.4l-4.7,0.2c-0.3,0-0.6,0.2-0.6,0.5v0
			C654.6,265.4,654.8,265.6,655.1,265.6z"/>
		<path class="st3" d="M646,265.8l4.7-0.1c0.3,0,0.6-0.2,0.6-0.5v0c0-0.2-0.3-0.4-0.6-0.4l-4.7,0.1c-0.3,0-0.6,0.2-0.6,0.5v0
			C645.4,265.7,645.7,265.8,646,265.8z"/>
		<path class="st3" d="M637.1,265.9l4.7-0.1c0.3,0,0.6-0.2,0.6-0.5v0c0-0.2-0.3-0.4-0.6-0.4l-4.7,0.1c-0.3,0-0.6,0.2-0.6,0.5v0
			C636.5,265.7,636.8,265.9,637.1,265.9z"/>
		<polygon class="st3" points="682,265.6 684.8,263.2 684.6,263 681.8,265.5 		"/>
		<polygon class="st3" points="680.3,274 686,279.2 681.8,279.1 675.5,273.7 		"/>
		<path class="st3" d="M669.6,272.9l-0.5,0.5l-28.2-1.6c-0.7-0.2-1.5-0.4-2.2-0.6L669.6,272.9L669.6,272.9z M671.5,273.5l0.5,0v0
			L671.5,273.5z"/>
		<path class="st3" d="M630.6,268.8c0.1-0.1,0-0.3-0.2-0.3c-0.2,0-0.3,0-0.4,0.1l-1.3,2.8c-0.1,0.1,0,0.3,0.2,0.3
			c0.2,0,0.3,0,0.4-0.1L630.6,268.8z"/>
		<path class="st2" d="M640.1,269c0.1-0.1,0-0.3-0.2-0.3c-0.2,0-0.3,0-0.4,0.1l-1.1,2.2c-0.1,0.1,0,0.3,0.2,0.3c0.2,0,0.3,0,0.4-0.1
			L640.1,269z"/>
		<path class="st3" d="M650.5,268.7c0.1-0.1,0-0.3-0.2-0.3c-0.2,0-0.3,0-0.4,0.1l-1.2,2.5c-0.1,0.1,0,0.3,0.2,0.3
			c0.2,0,0.3,0,0.4-0.1L650.5,268.7z"/>
		<path class="st3" d="M660.9,268.2c0.1-0.1,0-0.3-0.2-0.3c-0.2,0-0.3,0-0.4,0.1l-1.2,2.5c-0.1,0.1,0,0.3,0.2,0.3
			c0.2,0,0.3,0,0.4-0.1L660.9,268.2z"/>
		<path class="st3" d="M671.6,267.8c0.1-0.1,0-0.3-0.2-0.3c-0.2,0-0.3,0-0.4,0.1l-1.1,2.3c-0.1,0.1,0,0.3,0.2,0.3
			c0.2,0,0.3,0,0.4-0.1L671.6,267.8z"/>
		<path class="st4" d="M657.6,275l-10.5-2.4l16.9,1.3C662.3,274.9,659.1,275.3,657.6,275z"/>
		<path class="st3" d="M666.4,274.8c0.3,0,0.5-0.2,0.5-0.4c0-0.2-0.2-0.4-0.5-0.4c-0.3,0-0.5,0.2-0.5,0.4
			C665.9,274.7,666.1,274.8,666.4,274.8z"/>
		<polygon class="st3" points="682.1,278 686,281.6 684.6,281.6 680.3,277.9 		"/>
		<path class="st3" d="M684.6,282.9h2.5c0.3,0,0.5-0.2,0.5-0.4V282c0-0.2-0.2-0.4-0.5-0.4h-2.5c-0.3,0-0.5,0.2-0.5,0.4v0.6
			C684.1,282.8,684.3,282.9,684.6,282.9z"/>
		<rect x="684.1" y="282.1" class="st3" width="3.6" height="0.3"/>
		<path class="st3" d="M638.5,268.7c-2.7,0.1-4.9,0.1-6.7,0.1c-1.2,0-2.3,0-3.1,0c0.2-0.6,0.6-1.2,1.2-1.9c0.3,0,0.7,0,1.1,0
			c2.5-3,8.1-7,11.8-8.2h9.7c-3.7,1.2-9.3,5.2-11.8,8.2c-0.4,0-0.7,0-1.1,0C639,267.5,638.6,268.1,638.5,268.7z"/>
		<path class="st3" d="M637.1,265.9l4.4-0.1c0.2-0.3,0.5-0.5,0.8-0.8c-0.1-0.1-0.3-0.1-0.4-0.1l-4.7,0.1c-0.3,0-0.6,0.2-0.6,0.5v0
			C636.5,265.7,636.8,265.9,637.1,265.9z"/>
		<path class="st3" d="M631,266.8c3.1,0,6.4-0.1,9.8-0.1c0.1-0.1,0.1-0.1,0.2-0.2c-3.5,0.1-6.8,0.1-9.9,0.2
			C631,266.7,631,266.7,631,266.8L631,266.8L631,266.8z"/>
		<path class="st3" d="M647.8,260.9c-3.3,0-6.6,0.1-9.9,0.1h0c0,0,0.1,0,0.1-0.1l0,0l0.2-0.1c3.3,0,6.6-0.1,9.9-0.1
			C648.1,260.7,648,260.8,647.8,260.9z"/>
	</g>
	<g>
		<path class="st2" d="M-0.1,151c74.1-4.8,122.5,40.6,180,49c41.6,6,140.1-3.6,234.1,25.7H-0.1V151z"/>
		<g>
			<g>
				<polygon class="st2" points="66.3,178.6 111.8,178.6 89,150.8 				"/>
				<polygon class="st2" points="69.7,165.9 108.4,165.9 89,142.3 				"/>
				<polygon class="st2" points="75,152.1 103.1,152.1 89,134.9 				"/>
				<polygon class="st2" points="80.4,138.2 97.7,138.2 89,127.6 				"/>
			</g>
			<g>
				<polygon class="st2" points="102.4,187.2 133.7,187.2 118,168.1 				"/>
				<polygon class="st2" points="104.7,178.5 131.3,178.5 118,162.2 				"/>
				<polygon class="st2" points="108.4,169 127.7,169 118,157.2 				"/>
				<polygon class="st2" points="112.1,159.4 124,159.4 118,152.1 				"/>
			</g>
			<g>
				<polygon class="st2" points="18.2,155 43.5,155 30.9,139.6 				"/>
				<polygon class="st2" points="20.1,148 41.6,148 30.9,134.8 				"/>
				<polygon class="st2" points="23.1,140.3 38.7,140.3 30.9,130.8 				"/>
				<polygon class="st2" points="26.1,132.6 35.7,132.6 30.9,126.7 				"/>
			</g>
			<g>
				<polygon class="st2" points="320.2,211.3 342.3,211.3 331.3,197.8 				"/>
				<polygon class="st2" points="321.8,205.2 340.7,205.2 331.3,193.6 				"/>
				<polygon class="st2" points="324.4,198.4 338.1,198.4 331.3,190 				"/>
				<polygon class="st2" points="327,191.6 335.5,191.6 331.3,186.5 				"/>
			</g>
			<g>
				<polygon class="st2" points="306,208.8 323.2,208.8 314.6,198.3 				"/>
				<polygon class="st2" points="307.3,204 321.9,204 314.6,195.1 				"/>
				<polygon class="st2" points="309.3,198.8 319.9,198.8 314.6,192.3 				"/>
				<polygon class="st2" points="311.3,193.5 317.9,193.5 314.6,189.5 				"/>
			</g>
		</g>
	</g>
	<g>
		<path class="st2" d="M968,159.6c-74.1-4.2-186.9,45.8-257.2,47.2c-22.2,0.4-89.9,0.5-156.9,18.9H968V159.6z"/>
		<g>
			<g>
				<polygon class="st2" points="859.1,178.2 904.6,178.2 881.8,150.4 				"/>
				<polygon class="st2" points="862.5,165.5 901.2,165.5 881.8,141.9 				"/>
				<polygon class="st2" points="867.8,151.7 895.9,151.7 881.8,134.6 				"/>
				<polygon class="st2" points="873.2,137.8 890.5,137.8 881.8,127.3 				"/>
			</g>
			<g>
				<polygon class="st2" points="840.4,182.5 871.7,182.5 856,163.4 				"/>
				<polygon class="st2" points="842.7,173.8 869.4,173.8 856,157.5 				"/>
				<polygon class="st2" points="846.4,164.2 865.7,164.2 856,152.4 				"/>
				<polygon class="st2" points="850.1,154.7 862,154.7 856,147.4 				"/>
			</g>
			<g>
				<polygon class="st2" points="776,200.8 821.5,200.8 798.7,173 				"/>
				<polygon class="st2" points="779.4,188.1 818.1,188.1 798.7,164.5 				"/>
				<polygon class="st2" points="784.7,174.3 812.8,174.3 798.7,157.2 				"/>
				<polygon class="st2" points="790.1,160.4 807.4,160.4 798.7,149.9 				"/>
			</g>
			<g>
				<polygon class="st2" points="694,211 725.3,211 709.7,191.9 				"/>
				<polygon class="st2" points="696.3,202.3 723,202.3 709.7,186.1 				"/>
				<polygon class="st2" points="700,192.8 719.3,192.8 709.7,181 				"/>
				<polygon class="st2" points="703.7,183.3 715.6,183.3 709.7,176 				"/>
			</g>
			<g>
				<polygon class="st2" points="654.9,211 700.4,211 677.7,183.3 				"/>
				<polygon class="st2" points="658.3,198.4 697,198.4 677.7,174.8 				"/>
				<polygon class="st2" points="663.6,184.5 691.7,184.5 677.7,167.4 				"/>
				<polygon class="st2" points="669,170.7 686.3,170.7 677.7,160.1 				"/>
			</g>
			<g>
				<polygon class="st2" points="945.9,161 965.8,161 955.8,148.8 				"/>
				<polygon class="st2" points="947.3,155.4 964.3,155.4 955.8,145.1 				"/>
				<polygon class="st2" points="949.7,149.4 961.9,149.4 955.8,141.9 				"/>
				<polygon class="st2" points="952,143.3 959.6,143.3 955.8,138.7 				"/>
			</g>
		</g>
	</g>
	<path class="st3" d="M968,331c-207.2-14.8-350.1,21.4-409.2,19.4c-33.2-1.2-238.3-33.2-558.8-19.4v147.6h968V331z"/>
	<g>
		<polygon class="st3" points="691.9,345.6 766.9,345.6 729.4,299.8 		"/>
		<polygon class="st3" points="697.4,324.7 761.3,324.7 729.4,285.7 		"/>
		<polygon class="st3" points="706.2,301.9 752.5,301.9 729.4,273.6 		"/>
		<polygon class="st3" points="715.1,279 743.7,279 729.4,261.5 		"/>
	</g>
	<g>
		<polygon class="st3" points="789.7,334.6 887.2,334.6 838.5,275.1 		"/>
		<polygon class="st3" points="797,307.5 880,307.5 838.5,256.8 		"/>
		<polygon class="st3" points="808.4,277.8 868.5,277.8 838.5,241.1 		"/>
		<polygon class="st3" points="819.9,248.1 857,248.1 838.5,225.5 		"/>
	</g>
	<g>
		<polygon class="st3" points="197.7,334.6 272.7,334.6 235.2,288.8 		"/>
		<polygon class="st3" points="203.2,313.7 267.1,313.7 235.2,274.7 		"/>
		<polygon class="st3" points="212,290.9 258.3,290.9 235.2,262.6 		"/>
		<polygon class="st3" points="220.9,268 249.5,268 235.2,250.6 		"/>
	</g>
	<g>
		<polygon class="st3" points="97.4,341 194.8,341 146.1,281.5 		"/>
		<polygon class="st3" points="104.6,313.9 187.6,313.9 146.1,263.2 		"/>
		<polygon class="st3" points="116.1,284.2 176.2,284.2 146.1,247.5 		"/>
		<polygon class="st3" points="127.5,254.5 164.7,254.5 146.1,231.8 		"/>
	</g>
	<path class="st5" d="M-0.1,370.8c207.2-13.3,355.8,25.4,414.9,23.5c33.2-1,232.7-35.9,553.2-23.5v132.5h-968V370.8z"/>
	<g>
		<polygon class="st5" points="707,385.8 844.1,385.8 775.5,302.2 		"/>
		<polygon class="st5" points="717.2,347.7 833.9,347.7 775.5,276.4 		"/>
		<polygon class="st5" points="733.3,306 817.8,306 775.5,254.3 		"/>
		<polygon class="st5" points="749.4,264.2 801.7,264.2 775.5,232.3 		"/>
	</g>
	<g>
		<polygon class="st5" points="135.1,385.8 245.4,385.8 190.2,318.5 		"/>
		<polygon class="st5" points="143.3,355.1 237.2,355.1 190.2,297.8 		"/>
		<polygon class="st5" points="156.2,321.6 224.3,321.6 190.2,280.1 		"/>
		<polygon class="st5" points="169.2,288 211.3,288 190.2,262.3 		"/>
	</g>
	<g>
		<polygon class="st5" points="87.3,408.6 197.5,408.6 142.4,341.3 		"/>
		<polygon class="st5" points="95.4,377.9 189.3,377.9 142.4,320.6 		"/>
		<polygon class="st5" points="108.3,344.3 176.4,344.3 142.4,302.8 		"/>
		<polygon class="st5" points="121.3,310.7 163.4,310.7 142.4,285.1 		"/>
	</g>
	<g>
		<defs>
			<rect id="SVGID_1_" x="-0.1" y="166.2" width="163.3" height="337.1"/>
		</defs>
		<clipPath id="SVGID_00000060031602534549612360000008963410447949917881_">
			<use xlink:href="#SVGID_1_"  style="overflow:visible;"/>
		</clipPath>
		<g style="clip-path:url(#SVGID_00000060031602534549612360000008963410447949917881_);">
			<g>
				<polygon class="st3" points="-38.2,359.3 59.2,359.3 10.5,299.8 				"/>
				<polygon class="st3" points="-31,332.2 52,332.2 10.5,281.5 				"/>
				<polygon class="st3" points="-19.6,302.5 40.5,302.5 10.5,265.8 				"/>
				<polygon class="st3" points="-8.1,272.8 29.1,272.8 10.5,250.1 				"/>
			</g>
			<g>
				<polygon class="st5" points="-24.5,385.8 162.4,385.8 68.9,271.7 				"/>
				<polygon class="st5" points="-10.7,333.8 148.5,333.8 68.9,236.7 				"/>
				<polygon class="st5" points="11.3,276.9 126.6,276.9 68.9,206.5 				"/>
				<polygon class="st5" points="33.3,219.9 104.6,219.9 68.9,176.4 				"/>
			</g>
			<g>
				<polygon class="st5" points="-65.9,393.4 44.3,393.4 -10.8,326.2 				"/>
				<polygon class="st5" points="-57.7,362.8 36.1,362.8 -10.8,305.5 				"/>
				<polygon class="st5" points="-44.8,329.2 23.2,329.2 -10.8,287.7 				"/>
				<polygon class="st5" points="-31.8,295.6 10.2,295.6 -10.8,270 				"/>
			</g>
			<g>
				<polygon class="st7" points="-115.3,570.7 158.1,570.7 21.4,403.8 				"/>
				<polygon class="st7" points="-95,494.7 137.8,494.7 21.4,352.5 				"/>
				<polygon class="st7" points="-63,411.4 105.8,411.4 21.4,308.4 				"/>
				<polygon class="st7" points="-30.7,328.1 73.5,328.1 21.4,264.4 				"/>
			</g>
			<g>
				<polygon class="st7" points="59,489.8 189.2,489.8 124.1,410.3 				"/>
				<polygon class="st7" points="68.7,453.6 179.5,453.6 124.1,385.9 				"/>
				<polygon class="st7" points="84,414 164.3,414 124.1,364.9 				"/>
				<polygon class="st7" points="99.3,374.3 148.9,374.3 124.1,344 				"/>
			</g>
		</g>
	</g>
	<g>
		<polygon class="st5" points="771.5,410.1 881.7,410.1 826.6,342.8 		"/>
		<polygon class="st5" points="779.7,379.4 873.6,379.4 826.6,322.1 		"/>
		<polygon class="st5" points="792.6,345.9 860.7,345.9 826.6,304.3 		"/>
		<polygon class="st5" points="805.6,312.3 847.7,312.3 826.6,286.6 		"/>
	</g>
	<g>
		<defs>
			<rect id="SVGID_00000099660943601322308070000002460125746624184193_" x="804.7" y="166.2" width="163.3" height="337.1"/>
		</defs>
		<clipPath id="SVGID_00000052089620535057823640000007864297097400794255_">
			<use xlink:href="#SVGID_00000099660943601322308070000002460125746624184193_"  style="overflow:visible;"/>
		</clipPath>
		<g style="clip-path:url(#SVGID_00000052089620535057823640000007864297097400794255_);">
			<g>
				<polygon class="st3" points="903,350.1 1000.4,350.1 951.7,290.7 				"/>
				<polygon class="st3" points="910.2,323 993.2,323 951.7,272.4 				"/>
				<polygon class="st3" points="921.6,293.4 981.7,293.4 951.7,256.7 				"/>
				<polygon class="st3" points="933.1,263.7 970.3,263.7 951.7,241 				"/>
			</g>
			<g>
				<polygon class="st5" points="992.4,385.8 805.6,385.8 899,271.7 				"/>
				<polygon class="st5" points="978.6,333.8 819.4,333.8 899,236.7 				"/>
				<polygon class="st5" points="956.7,276.9 841.3,276.9 899,206.5 				"/>
				<polygon class="st5" points="934.6,219.9 863.4,219.9 899,176.4 				"/>
			</g>
			<g>
				<polygon class="st5" points="914.9,393.4 1025.1,393.4 970,326.2 				"/>
				<polygon class="st5" points="923.1,362.8 1017,362.8 970,305.5 				"/>
				<polygon class="st5" points="936,329.2 1004,329.2 970,287.7 				"/>
				<polygon class="st5" points="949,295.6 991.1,295.6 970,270 				"/>
			</g>
			<g>
				<polygon class="st7" points="812.5,594.6 1105.3,594.6 958.9,415.9 				"/>
				<polygon class="st7" points="834.2,513.2 1083.6,513.2 958.9,361 				"/>
				<polygon class="st7" points="868.5,424 1049.2,424 958.9,313.7 				"/>
				<polygon class="st7" points="903.1,334.8 1014.7,334.8 958.9,266.6 				"/>
			</g>
			<g>
				<polygon class="st7" points="806.7,485.9 906.9,485.9 856.8,424.7 				"/>
				<polygon class="st7" points="814.1,458 899.5,458 856.8,405.8 				"/>
				<polygon class="st7" points="825.9,427.4 887.8,427.4 856.8,389.7 				"/>
				<polygon class="st7" points="837.7,396.9 875.9,396.9 856.8,373.5 				"/>
			</g>
		</g>
	</g>
	<g>
		<g>
			<path class="st2" d="M496.3,119.1c18.5,1.2,29.1,4.3,37.3,11.5c1.9-9.5,8.6-16.6,23.3-25.4c-15.4,6.9-22.9,12-26,18.3
				C523.9,119.6,514.1,118.4,496.3,119.1z"/>
			<path class="st2" d="M630.7,96.4c-14.3-2.6-22.1-6-27.4-12.4c-2.9,7.3-9.2,12.2-22,17.7c13.1-4,19.7-7.3,23-11.9
				C609.2,93.5,616.7,95.3,630.7,96.4z"/>
			<path class="st2" d="M518.7,84.4c14.4,2.1,22.4,5.1,28.2,11.2c2.4-7.4,8.4-12.5,20.8-18.6c-12.8,4.5-19.2,8.1-22.2,12.9
				C540.4,86.3,532.7,84.9,518.7,84.4z"/>
			<path class="st2" d="M646,111.2c10.1,1.4,15.7,3.6,19.8,7.9c1.7-5.2,5.9-8.8,14.6-13c-9,3.2-13.4,5.7-15.6,9
				C661.2,112.6,655.8,111.5,646,111.2z"/>
		</g>
		<path class="st2" d="M547.6,89.6c2.9,2.3,4.2,5,2.9,5.9c-1.3,1-4.7-0.1-7.6-2.5c-2.9-2.3-4.2-5-2.9-5.9
			C541.3,86.2,544.7,87.3,547.6,89.6z"/>
		<path class="st2" d="M531.7,123.4c3.4,2.7,4.9,5.8,3.4,6.9s-5.4-0.2-8.7-2.9c-3.4-2.7-4.9-5.8-3.4-6.9
			C524.4,119.5,528.3,120.8,531.7,123.4z"/>
		<path class="st2" d="M605.6,85.4c2.5,2,3.6,4.3,2.5,5.1c-1.1,0.8-4-0.1-6.5-2.1c-2.5-2-3.6-4.3-2.5-5.1
			C600.1,82.5,603.1,83.4,605.6,85.4z"/>
		<path class="st2" d="M665.2,114.4c2.2,1.7,3.2,3.7,2.2,4.5c-1,0.7-3.5-0.1-5.7-1.9c-2.2-1.7-3.2-3.7-2.2-4.5
			C660.4,111.8,663,112.7,665.2,114.4z"/>
	</g>
	<path class="st7" d="M968,444.5c-207.2-13.3-355.8,25.4-414.9,23.5c-33.2-1-232.7-49.8-553.2-37.5v72.8h968V444.5z"/>
	<g>
		<path class="st3" d="M675.9,249.9l-6.8-6.1l11.2-0.6l-14.3-2.5c-2.3-0.4-7,0.3-14.4,2.2c-8.3,1.7-17.2,4.4-19.8,5.6
			c-4.9,2.4,14.4,5.5,14.4,5.5S674.8,256.2,675.9,249.9z"/>
		<path class="st9" d="M647.9,246.4l19.3-0.9c1.3,1,2.7,2.1,3.8,3.1l-15.2-0.6C653,248,649.7,247.3,647.9,246.4z"/>
		<path class="st3" d="M675.9,249.9c-5.8-0.3-11.7-0.6-17.3-0.8c-11.3-0.5-21.5-0.7-26.7-0.7h0h0c0.3-0.1,0.7-0.3,1.1-0.5
			c5.5,0,15.1,0.3,25.6,0.7c5.4,0.2,11.2,0.5,16.7,0.8L675.9,249.9z"/>
		<path class="st3" d="M690.1,250.6c0.1,0.1,0.2,0.2,0.1,0.3c-0.1,0.1-0.3,0.1-0.4,0.1l-0.3-0.2c-2.2-1.3-4.2-2.4-5.7-2.5l0,0v0
			c-9.1-0.6-18.7-1.2-28.2-1.7c-9.5-0.4-19-0.7-28.2-0.7c-0.2,0-0.3-0.1-0.3-0.2c0-0.1,0.1-0.2,0.3-0.2c9.2,0,18.7,0.2,28.2,0.7
			c9.5,0.4,19.1,1,28.2,1.7v0c1.7,0.1,3.7,1.3,6,2.6L690.1,250.6z"/>
		<path class="st3" d="M681.9,250.2c0.1,0.1,0,0.3-0.2,0.3c-0.2,0-0.3,0-0.4-0.1l-1.2-2.4c-0.1-0.1,0-0.3,0.2-0.3
			c0.2,0,0.3,0,0.4,0.1L681.9,250.2z"/>
		<path class="st3" d="M703.6,258.6c2,0,2.5-1.1,0.9-2l-7.3-4.2c-2.4-1.4-5.7-1.4-7.3-1.5l-1-0.1h0c-19.8-1.3-47.1-2.3-57.2-2.3
			c-1.2,0-2.3,0-3.1,0c0.2,0.6,0.6,1.2,1.2,1.9c0.3,0,0.7,0,1.1,0c2.5,3,8.1,7,11.8,8.2H703.6z"/>
		<path class="st3" d="M705,258.3c0.2-0.1,0.4-0.3,0.5-0.5c-22.4-1.1-45.1-1.4-67.6-1.7c0.1,0,0.2,0.1,0.3,0.2
			C660.3,256.6,683,257.3,705,258.3z"/>
		<path class="st3" d="M631,250.4c18.1,0.1,44.5,1.2,62.6,2.2l0.4,0.5c-18.2-1-44.7-2.4-62.9-2.5L631,250.4z"/>
		<path class="st3" d="M671.3,251.5c4.4,0.2,17.7,0.8,22.2,1.1l2.2,1.7l-22.6-1.3L671.3,251.5z"/>
		<path class="st3" d="M655.1,251.6l4.7,0.2c0.3,0,0.6,0.2,0.6,0.5v0c0,0.2-0.3,0.4-0.6,0.4l-4.7-0.2c-0.3,0-0.6-0.2-0.6-0.5v0
			C654.6,251.8,654.8,251.6,655.1,251.6z"/>
		<path class="st3" d="M646,251.3l4.7,0.1c0.3,0,0.6,0.2,0.6,0.5v0c0,0.2-0.3,0.4-0.6,0.4l-4.7-0.1c-0.3,0-0.6-0.2-0.6-0.5v0
			C645.4,251.5,645.7,251.3,646,251.3z"/>
		<path class="st3" d="M637.1,251.2l4.7,0.1c0.3,0,0.6,0.2,0.6,0.5v0c0,0.2-0.3,0.4-0.6,0.4l-4.7-0.1c-0.3,0-0.6-0.2-0.6-0.5v0
			C636.5,251.4,636.8,251.2,637.1,251.2z"/>
		<polygon class="st3" points="682,251.5 684.8,254 684.6,254.1 681.8,251.7 		"/>
		<polygon class="st3" points="680.3,243.2 686,238 681.8,238 675.5,243.4 		"/>
		<path class="st3" d="M669.6,244.2l-0.5-0.5l-28.2,1.6c-0.7,0.2-1.5,0.4-2.2,0.6L669.6,244.2L669.6,244.2z M671.5,243.6l0.5,0v0
			L671.5,243.6z"/>
		<path class="st3" d="M630.6,248.4c0.1,0.1,0,0.3-0.2,0.3c-0.2,0-0.3,0-0.4-0.1l-1.3-2.8c-0.1-0.1,0-0.3,0.2-0.3
			c0.2,0,0.3,0,0.4,0.1L630.6,248.4z"/>
		<path class="st2" d="M640.1,248.2c0.1,0.1,0,0.3-0.2,0.3c-0.2,0-0.3,0-0.4-0.1l-1.1-2.2c-0.1-0.1,0-0.3,0.2-0.3
			c0.2,0,0.3,0,0.4,0.1L640.1,248.2z"/>
		<path class="st3" d="M650.5,248.5c0.1,0.1,0,0.3-0.2,0.3c-0.2,0-0.3,0-0.4-0.1l-1.2-2.5c-0.1-0.1,0-0.3,0.2-0.3
			c0.2,0,0.3,0,0.4,0.1L650.5,248.5z"/>
		<path class="st3" d="M660.9,249c0.1,0.1,0,0.3-0.2,0.3c-0.2,0-0.3,0-0.4-0.1l-1.2-2.5c-0.1-0.1,0-0.3,0.2-0.3c0.2,0,0.3,0,0.4,0.1
			L660.9,249z"/>
		<path class="st3" d="M671.6,249.4c0.1,0.1,0,0.3-0.2,0.3c-0.2,0-0.3,0-0.4-0.1l-1.1-2.3c-0.1-0.1,0-0.3,0.2-0.3
			c0.2,0,0.3,0,0.4,0.1L671.6,249.4z"/>
		<path class="st9" d="M657.6,242.2l-10.5,2.4l16.9-1.3C662.3,242.3,659.1,241.8,657.6,242.2z"/>
		<path class="st3" d="M666.4,243.1c0.3,0,0.5-0.2,0.5-0.4c0-0.2-0.2-0.4-0.5-0.4c-0.3,0-0.5,0.2-0.5,0.4
			C665.9,242.9,666.1,243.1,666.4,243.1z"/>
		<polygon class="st3" points="682.1,239.1 686,235.6 684.6,235.6 680.3,239.3 		"/>
		<path class="st3" d="M684.6,234.2h2.5c0.3,0,0.5,0.2,0.5,0.4v0.6c0,0.2-0.2,0.4-0.5,0.4h-2.5c-0.3,0-0.5-0.2-0.5-0.4v-0.6
			C684.1,234.4,684.3,234.2,684.6,234.2z"/>
		<rect x="684.1" y="234.7" class="st3" width="3.6" height="0.3"/>
		<path class="st3" d="M638.5,248.5c-2.7-0.1-4.9-0.1-6.7-0.1c-1.2,0-2.3,0-3.1,0c0.2,0.6,0.6,1.2,1.2,1.9c0.3,0,0.7,0,1.1,0
			c2.5,3,8.1,7,11.8,8.2h9.7c-3.7-1.2-9.3-5.2-11.8-8.2c-0.4,0-0.7,0-1.1,0C639,249.7,638.6,249,638.5,248.5z"/>
		<path class="st3" d="M637.1,251.2l4.4,0.1c0.2,0.3,0.5,0.5,0.8,0.8c-0.1,0.1-0.3,0.1-0.4,0.1l-4.7-0.1c-0.3,0-0.6-0.2-0.6-0.5v0
			C636.5,251.4,636.8,251.2,637.1,251.2z"/>
		<path class="st3" d="M631,250.4c3.1,0,6.4,0.1,9.8,0.1c0.1,0.1,0.1,0.1,0.2,0.2c-3.5-0.1-6.8-0.1-9.9-0.2
			C631,250.5,631,250.4,631,250.4L631,250.4L631,250.4z"/>
		<path class="st3" d="M647.8,256.3c-3.3,0-6.6-0.1-9.9-0.1h0c0,0,0.1,0,0.1,0.1l0,0l0.2,0.1c3.3,0,6.6,0.1,9.9,0.1
			C648.1,256.4,648,256.4,647.8,256.3z"/>
	</g>
	<path class="st10" d="M873.4,283.1c-0.2,0.3-0.3,0.6-0.4,0.9c-0.1,0-0.3,0-0.4-0.1C872.8,283.6,873.1,283.3,873.4,283.1z"/>
	<polygon class="st10" points="873.9,282.3 873.9,282.4 873.9,282.3 	"/>
	<path class="st10" d="M878.8,280c-0.1,0-0.2,0-0.3,0l0.1-0.1C878.7,280,878.7,280,878.8,280z"/>
	<g>
		<g>
			<path class="st7" d="M380.8,450.7c6.1,0.5,21.8,1.5,21.8-1.3c0-2.1-2.2-3.4-4.8-3.7c-6.6-1.5-12.8-1.9-18.8-2.2
				c0,1.9,0,3.8,0,5.7C378.9,450,379.7,450.6,380.8,450.7z"/>
			<path class="st7" d="M383.9,373.2c0.6,8.4-9.5,31.1-12.4,40.3c-1,4.2-12.2,2.8-11.2-2.3c3.1-17-1.9-31.4,7-44
				C371.8,367.5,379.3,372.9,383.9,373.2z"/>
			<path class="st7" d="M377.5,374.5c-1.3,4.8-3.3,6.4-2.9,11.6c0.7,9.1,2.8,17.9,3.6,23.7c0.6,4.3,9.7,7.2,10.9,2.1
				c3.3-13.4,3.1-23,3-36.8C387.2,374.9,382.3,374.7,377.5,374.5z"/>
			<path class="st7" d="M388.9,444.6c-4.2-0.7-7,3.8-9.9,2.2c-1.2-19.4-1.5-28.4,0.4-36.4c1.5-6.2,11.5-6.9,11.2,0
				C390.3,415.7,389.5,439.7,388.9,444.6z"/>
			<path class="st7" d="M385.9,338.3c7.7-3.2,22.7-8.5,29.5-11.3c5.3-1,6.2,3.2,2.9,5.8c-5.7,4.6-21.2,12-28,14.4
				C382.2,350,378.5,341.4,385.9,338.3z"/>
			<path class="st7" d="M391.8,319.4c-2.6,0.7-4.5,2.6-4,3.2c0.7,0.7,1.3-0.7,4.6-1.5c1.1-0.3,2.4-0.1,3.6,0.2
				c-1.7,0.9-2.8,1.2-2.7,1.6c0.3,1.7,9.7-2.2,7.9-5.2c-2.3-3.8-14.4-1.6-13.5,0.3c0.2,0.5,1.9-0.6,3.9-0.4c-2.9,0.5-5.7,2-4.8,3
				C387.3,321.1,388.8,319.1,391.8,319.4z"/>
			<path class="st7" d="M401.8,317.2c5.5,1.9,15.5,7.3,18,9.5c3.6,3.2-2.3,7.9-6.5,5.2c-3.3-2.1-12-6.5-16.8-9.1
				C397.1,321.6,399.5,318.8,401.8,317.2z"/>
			<path class="st7" d="M358.6,448.5c6.1,0.4,21.8,1.3,21.8-1.2c0-2.1-2.2-3.4-4.8-3.7c-6.7-1.3-12.9-1.9-18.8-2.2
				c0,1.9,0,3.8,0,5.6C356.8,447.7,357.6,448.4,358.6,448.5z"/>
			<path class="st7" d="M365.8,442.9c-4.1-1-7.4,3.3-10.1,1.4c1.2-19.4,1.8-24.1,4.8-34.3c1.8-6.2,12.1-4,10.9,2.8
				C369.1,426.5,367,438.1,365.8,442.9z"/>
			<path class="st7" d="M358.7,340.5c4.3-4.2,29.7-3.9,32.8-1.3c2.7,2.3-0.9,17.3,2.4,37.3c0.4,2.2-10.5,5-12.5,1.9
				c-1.3,4.3-22.1,1.3-20.5-3.6c2.7-8,0.9-17,0.5-21.6C360.9,348.6,356.2,343,358.7,340.5z"/>
			<path class="st7" d="M357.2,340.9c-6.6,4.6-19.2,14.4-22.4,19.6c-2.3,3.8,2.7,5.4,6.8,2.6c5.2-3.5,15.3-7.9,20.1-13.9
				C366.4,343.4,363.4,336.6,357.2,340.9z"/>
			<path class="st7" d="M375.8,327.8L375.8,327.8c2.7,0,4.9,1.3,4.9,2.9v8.4c-0.8,1-0.8,2.8-1.7,4.2c-2-1-6-3.9-8.1-5.2l0-7.3
				C370.9,329.2,373.1,327.8,375.8,327.8z"/>
			<path class="st7" d="M379.7,311.6c-10.9-0.4-12.9,8.5-12.3,15.7c0.3,3,5.8,8.2,12.6,8.4c4.3,0.1,8.8-4.6,10.1-9.6
				C391.7,319.5,389.3,312,379.7,311.6z"/>
			<path class="st7" d="M384,315.7c4.4,3.4,6.5,6.1,5.9,10.6C391.1,324.1,393.8,314.4,384,315.7z"/>
			<path class="st7" d="M375.7,312.7c-1.5,6.2-4.5,10.7-8.4,12.6C365.2,321,365.7,310.4,375.7,312.7z"/>
			<path class="st7" d="M369.5,315.7c4.2-7,13.7-5.9,19.4-2c1.9,1.3,3.5,4.2,5.9,3.4C395.5,320.8,389,323.4,369.5,315.7z"/>
			<path class="st7" d="M360.4,371.5c2.7-0.1,5.4,1.1,5.2,1.8c-0.3,0.9-1.6-0.3-5-0.1c-1.1,0.1-2.3,0.6-3.2,1.2
				c2,0.3,3.1,0.3,3.3,0.7c0.5,1.7-10.1,0.7-9.8-2.5c0.3-4.2,11.5-5.5,11.5-3.5c0,0.5-1.3,0.1-2.7,0.6c2.9-0.4,5.1,1.1,4.4,1.7
				C363.5,371.8,362.4,370.6,360.4,371.5z"/>
			<path class="st7" d="M349.9,374.5c-4.8-2.8-13.2-8-15-10.5c-2.6-3.7,4.5-7.3,7.9-4c2.6,2.6,10,6.6,13.9,9.9
				C355.7,370.9,352.6,373.3,349.9,374.5z"/>
		</g>
		<path class="st7" d="M384.8,342L384.8,342l0.1,0v0l0.1,0v0l0.1,0v0l0.1,0v0l0.1,0v0l0.1,0l0,0l0.1,0l0,0l0.1,0v0l0.1,0l0.1,0v0
			l0.1,0v0l0.1,0v0l0.1,0v0l0.1,0l0.1,0v0l0.1,0l0.1,0l0,0l0.1,0l0.1,0l0.1,0.1v0l0.1,0.1v0l0.1,0.1l0.1,0.1l0.1,0.1l0.1,0.1h0
			l0.1,0.1l0.1,0.1h0l0.1,0.1l0.1,0.1l0.1,0.1l0,0l0.1,0.1l0,0l0.1,0.1l0,0l0.1,0.1h0l0.1,0.1l0.1,0.1v0l0.1,0.1l0.1,0.1l0,0
			l0.1,0.1h0l0.1,0.1l0.1,0.1h0l0.1,0.1h0l0.1,0.1v0l0.1,0.1h0l0.1,0.1l0,0l0.1,0.1l0,0l0.1,0.1l0,0l0.1,0.1h0l0.1,0.1l0,0.1l0,0
			l0,0.1l0,0l0,0.1l0,0l0,0.1l0,0l0,0.1l0,0l0,0.1h0l0,0.1h0l0,0.1h0l0,0.1h0l0,0.1h0l0,0.1h0l0,0.1h0c0,0.1,0,0.2,0,0.3v0.3v0v5.3
			l0,0h1.2h0.7h0.6l0,0l0,0l0,0l0,0l0,0l0,0l0,0l0,0l0,0l0,0l0,0l0,0l0,0h0l0,0l0,0l0,0l0,0l0,0l0,0l0,0l0,0v0l0,0h0l0,0v0l0,0l0,0
			l0,0h0l0,0h0l0,0l0,0l0,0l0,0l0,0l0,0l0,0v0l0,0l0,0l0,0l0,0l0,0l0,0l0,0h0l0,0l0,0v0l0,0l0,0l0,0v0l0,0l0,0v0l0,0h0l0,0l0,0l0,0
			l0,0l0,0l0,0l0,0l0,0l0,0l0,0l0,0l0,0l0,0h0l0,0h0l0,0l0,0l0,0l0,0l0,0l0,0l0,0h0l0,0l0,0l0,0l0,0l0,0l0,0l0,0h0l0,0l0,0l0,0l0,0
			l0,0l0,0v0l0,0v4.5l0,0v11.4c0,0.5-0.6,1-1.2,1h-2.6v0.5c0,2-1.7,3.6-4,4.1v4.2c0,0.9-1,1.7-2.2,1.7h-0.7h-1.9h-16.1h-1.9h-0.7
			c-1.2,0-2.2-0.8-2.2-1.7v-4.2c-2.3-0.5-4-2.2-4-4.1v-0.5h-2.6c-0.7,0-1.2-0.4-1.2-1v-11.4v-4.5v0l0,0v0l0,0v0l0,0v0l0,0l0,0l0,0
			l0,0l0,0l0,0l0,0l0,0l0,0v0l0,0v0l0,0l0,0l0,0l0,0l0,0l0,0l0,0v0l0,0l0,0v0l0,0l0,0l0,0h0l0,0h0l0,0l0,0l0,0h0l0,0l0,0l0,0l0,0h0
			l0,0h0l0,0h0l0,0v0l0,0l0,0h0l0,0h0l0,0l0,0l0,0h0l0,0h0l0,0h0l0,0l0,0l0,0l0,0h0l0,0h0l0,0l0,0l0,0h0l0,0h0l0,0h0l0,0h0l0,0l0,0
			h0l0,0h0l0,0h0l0,0h0l0,0h0l0,0h0l0,0h0l0,0h0l0,0h0l0,0h0l0,0h0l0,0l0,0l0,0h0h0.6h0.7h1.2v-5.3v-0.3v0l0-0.1v0l0-0.1v0l0-0.1
			l0-0.1l0,0l0-0.1l0,0l0-0.1l0-0.1v0l0-0.1l0-0.1v0l0-0.1v0l0-0.1l0-0.1l0-0.1v0l0-0.1l0-0.1v0l0.1-0.1v0l0.1-0.1l0.1-0.1l0.1-0.1
			l0.1-0.1l0.1-0.1l0.1-0.1l0.1-0.1l0.1-0.1l0,0l0.1-0.1l0.1-0.1l0.1-0.1l0,0l0.1-0.1h0l0.1-0.1l0,0l0.1-0.1v0l0.1-0.1l0.1-0.1
			l0.1-0.1l0.1-0.1h0l0.1-0.1h0l0.1-0.1l0.1-0.1h0l0.1-0.1v0l0.1-0.1h0l0.1-0.1h0l0.1-0.1h0l0.1-0.1l0,0l0.1-0.1l0,0l0.1-0.1h0
			l0.1,0l0,0l0.1,0h0l0.1,0v0l0.1,0l0,0l0.1,0h0l0.1,0v0l0.1,0l0,0l0.1,0l0,0l0.1,0l0,0l0.1,0h0l0.1,0v0l0.1,0l0,0l0.1,0h0l0.1,0
			l0,0l0.1,0l0,0l0.1,0l0,0l0.1,0l0,0l0.1,0l0,0l0.1,0l0,0l0.1,0h-9.3v-3v-3h10.8h1.9h16.1h1.9H394v3v3h-9.3L384.8,342z"/>
		<g>
			<polygon class="st7" points="302.2,433.5 304.1,433.5 296.5,417.8 294.5,417.8 			"/>
			<path class="st7" d="M304.1,416.3h-8.9c-0.9,0-1.7,0.6-1.7,1.3v0c0,0.7,0.8,1.3,1.7,1.3h8.9c0.9,0,1.7-0.6,1.7-1.3v0
				C305.8,416.9,305,416.3,304.1,416.3z"/>
			<g>
				<g>
					<rect x="367.8" y="408.5" class="st7" width="0.6" height="50.3"/>
					<rect x="362.7" y="408.5" class="st7" width="0.6" height="50.3"/>
				</g>
				<g>
					<polygon class="st7" points="356.6,409.4 357.2,409.2 379.4,456.5 378.8,456.7 					"/>
					<polygon class="st7" points="351.8,410.8 352.4,410.6 374.6,457.9 374,458 					"/>
				</g>
				<g>
					<polygon class="st7" points="346.4,413.3 346.9,413 388.6,451.5 388.2,451.8 					"/>
					<polygon class="st7" points="342.5,415.8 343,415.5 384.8,454 384.3,454.3 					"/>
				</g>
				<g>
					<polygon class="st7" points="338.6,419.6 338.9,419.2 395.1,444.3 394.8,444.7 					"/>
					<polygon class="st7" points="336.1,423 336.4,422.5 392.6,447.7 392.3,448.1 					"/>
				</g>
				<g>
					<polygon class="st7" points="334,427.6 334.1,427.1 398.1,435.8 397.9,436.3 					"/>
					<polygon class="st7" points="333.1,431.5 333.2,431 397.2,439.7 397.1,440.2 					"/>
				</g>
				<g>
					<polygon class="st7" points="333.2,436.3 333.1,435.8 397.1,427.1 397.2,427.6 					"/>
					<polygon class="st7" points="334.1,440.2 334,439.7 397.9,431 398.1,431.5 					"/>
				</g>
				<g>
					<polygon class="st7" points="336.4,444.7 336.1,444.3 392.3,419.2 392.6,419.6 					"/>
					<polygon class="st7" points="338.9,448.1 338.6,447.7 394.8,422.5 395.1,423 					"/>
				</g>
				<g>
					<polygon class="st7" points="343,451.8 342.5,451.5 384.3,413 384.8,413.3 					"/>
					<polygon class="st7" points="346.9,454.3 346.4,454 388.2,415.5 388.6,415.8 					"/>
				</g>
				<g>
					<polygon class="st7" points="352.4,456.7 351.8,456.5 374,409.2 374.6,409.4 					"/>
					<polygon class="st7" points="357.2,458 356.6,457.9 378.8,410.6 379.4,410.8 					"/>
				</g>
			</g>
			<g>
				<g>
					<rect x="259" y="408.5" class="st7" width="0.6" height="50.3"/>
					<rect x="253.9" y="408.5" class="st7" width="0.6" height="50.3"/>
				</g>
				<g>
					<polygon class="st7" points="247.7,409.4 248.3,409.2 270.6,456.5 269.9,456.7 					"/>
					<polygon class="st7" points="243,410.8 243.6,410.6 265.8,457.9 265.2,458 					"/>
				</g>
				<g>
					<polygon class="st7" points="237.6,413.3 238.1,413 279.8,451.5 279.3,451.8 					"/>
					<polygon class="st7" points="233.7,415.8 234.2,415.5 276,454 275.5,454.3 					"/>
				</g>
				<g>
					<polygon class="st7" points="229.8,419.6 230.1,419.2 286.3,444.3 286,444.7 					"/>
					<polygon class="st7" points="227.2,423 227.6,422.5 283.8,447.7 283.5,448.1 					"/>
				</g>
				<g>
					<polygon class="st7" points="225.2,427.6 225.3,427.1 289.2,435.8 289.1,436.3 					"/>
					<polygon class="st7" points="224.3,431.5 224.4,431 288.4,439.7 288.2,440.2 					"/>
				</g>
				<g>
					<polygon class="st7" points="224.4,436.3 224.3,435.8 288.2,427.1 288.4,427.6 					"/>
					<polygon class="st7" points="225.3,440.2 225.2,439.7 289.1,431 289.2,431.5 					"/>
				</g>
				<g>
					<polygon class="st7" points="227.6,444.7 227.2,444.3 283.5,419.2 283.8,419.6 					"/>
					<polygon class="st7" points="230.1,448.1 229.8,447.7 286,422.5 286.3,423 					"/>
				</g>
				<g>
					<polygon class="st7" points="234.2,451.8 233.7,451.5 275.5,413 276,413.3 					"/>
					<polygon class="st7" points="238.1,454.3 237.6,454 279.3,415.5 279.8,415.8 					"/>
				</g>
				<g>
					<polygon class="st7" points="243.6,456.7 243,456.5 265.2,409.2 265.8,409.4 					"/>
					<polygon class="st7" points="248.3,458 247.7,457.9 269.9,410.6 270.6,410.8 					"/>
				</g>
			</g>
			<path class="st7" d="M365.6,409.7c-17.1,0-30.9,10.7-30.9,24c0,13.2,13.8,24,30.9,24c17.1,0,30.9-10.7,30.9-24
				C396.5,420.4,382.7,409.7,365.6,409.7L365.6,409.7z M364.6,405.6l1,0.8l1-0.8c1.5,0,2.9,0.1,4.4,0.3l0.8,0.9l1.1-0.6
				c1.4,0.2,2.9,0.5,4.2,0.9l0.6,1l1.2-0.5c1.4,0.4,2.7,0.9,4,1.4l0.3,1l1.3-0.3c1.3,0.6,2.5,1.3,3.6,2l0.1,1.1l1.4-0.1
				c1.1,0.8,2.1,1.6,3.1,2.4l-0.1,1.1l1.4,0.1c0.9,0.9,1.8,1.8,2.5,2.8l-0.4,1l1.3,0.3c0.7,1,1.3,2,1.9,3.1l-0.6,1l1.3,0.4
				c0.5,1.1,0.8,2.2,1.1,3.3l-0.8,0.9l1.1,0.6c0.2,1.1,0.3,2.2,0.4,3.4l-1,0.7l1,0.7c0,1.2-0.2,2.3-0.4,3.4l-1.1,0.6l0.8,0.9
				c-0.3,1.1-0.7,2.2-1.1,3.3l-1.3,0.4l0.6,1c-0.5,1.1-1.2,2.1-1.9,3.1l-1.3,0.3l0.4,1c-0.8,1-1.6,1.9-2.5,2.8l-1.4,0.1l0.1,1.1
				c-1,0.9-2,1.7-3.1,2.4l-1.4-0.1l-0.1,1.1c-1.1,0.7-2.3,1.4-3.6,2l-1.3-0.3l-0.3,1c-1.3,0.5-2.6,1-4,1.4l-1.2-0.5l-0.6,1
				c-1.4,0.4-2.8,0.7-4.2,0.9l-1.1-0.6l-0.8,0.9c-1.4,0.2-2.9,0.3-4.4,0.3l-1-0.8l-1,0.8c-1.5,0-2.9-0.1-4.4-0.3l-0.8-0.9l-1.1,0.6
				c-1.4-0.2-2.9-0.5-4.2-0.9l-0.6-1l-1.2,0.5c-1.4-0.4-2.7-0.9-4-1.4l-0.3-1l-1.3,0.3c-1.3-0.6-2.5-1.3-3.6-2l-0.1-1.1l-1.4,0.1
				c-1.1-0.8-2.1-1.6-3.1-2.4l0.1-1.1l-1.4-0.1c-0.9-0.9-1.8-1.8-2.5-2.8l0.4-1l-1.3-0.3c-0.7-1-1.3-2-1.9-3.1l0.6-1l-1.3-0.4
				c-0.5-1.1-0.8-2.2-1.1-3.3l0.8-0.9l-1.1-0.6c-0.2-1.1-0.3-2.2-0.4-3.4l1-0.7l-1-0.7c0-1.2,0.2-2.3,0.4-3.4l1.1-0.6l-0.8-0.9
				c0.3-1.1,0.7-2.2,1.1-3.3l1.3-0.4l-0.6-1c0.5-1.1,1.2-2.1,1.9-3.1l1.3-0.3l-0.4-1c0.8-1,1.6-1.9,2.5-2.8l1.4-0.1l-0.1-1.1
				c1-0.9,2-1.7,3.1-2.4l1.4,0.1l0.1-1.1c1.1-0.7,2.3-1.4,3.6-2l1.3,0.3l0.3-1c1.3-0.5,2.6-1,4-1.4l1.2,0.5l0.6-1
				c1.4-0.4,2.8-0.7,4.2-0.9l1.1,0.6l0.8-0.9C361.7,405.8,363.2,405.7,364.6,405.6z"/>
			<path class="st7" d="M256.8,409.7c-17.1,0-30.9,10.7-30.9,24c0,13.2,13.8,24,30.9,24s30.9-10.7,30.9-24
				C287.7,420.4,273.8,409.7,256.8,409.7L256.8,409.7z M255.8,405.6l1,0.8l1-0.8c1.5,0,2.9,0.1,4.4,0.3l0.8,0.9l1.1-0.6
				c1.4,0.2,2.9,0.5,4.2,0.9l0.6,1l1.2-0.5c1.4,0.4,2.7,0.9,4,1.4l0.3,1l1.3-0.3c1.3,0.6,2.5,1.3,3.6,2l0.1,1.1l1.4-0.1
				c1.1,0.8,2.1,1.6,3.1,2.4l-0.1,1.1l1.4,0.1c0.9,0.9,1.8,1.8,2.5,2.8l-0.4,1l1.3,0.3c0.7,1,1.3,2,1.9,3.1l-0.6,1l1.3,0.4
				c0.5,1.1,0.8,2.2,1.1,3.3l-0.8,0.9l1.1,0.6c0.2,1.1,0.3,2.2,0.4,3.4l-1,0.7l1,0.7c0,1.2-0.2,2.3-0.4,3.4l-1.1,0.6l0.8,0.9
				c-0.3,1.1-0.7,2.2-1.1,3.3l-1.3,0.4l0.6,1c-0.5,1.1-1.2,2.1-1.9,3.1l-1.3,0.3l0.4,1c-0.8,1-1.6,1.9-2.5,2.8l-1.4,0.1l0.1,1.1
				c-1,0.9-2,1.7-3.1,2.4l-1.4-0.1l-0.1,1.1c-1.1,0.7-2.3,1.4-3.6,2l-1.3-0.3l-0.3,1c-1.3,0.5-2.6,1-4,1.4l-1.2-0.5l-0.6,1
				c-1.4,0.4-2.8,0.7-4.2,0.9l-1.1-0.6l-0.8,0.9c-1.4,0.2-2.9,0.3-4.4,0.3l-1-0.8l-1,0.8c-1.5,0-2.9-0.1-4.4-0.3l-0.8-0.9l-1.1,0.6
				c-1.4-0.2-2.9-0.5-4.2-0.9l-0.6-1l-1.2,0.5c-1.4-0.4-2.7-0.9-4-1.4l-0.3-1l-1.3,0.3c-1.3-0.6-2.5-1.3-3.6-2l-0.1-1.1l-1.4,0.1
				c-1.1-0.8-2.1-1.6-3.1-2.4l0.1-1.1l-1.4-0.1c-0.9-0.9-1.8-1.8-2.5-2.8l0.4-1L225,447c-0.7-1-1.3-2-1.9-3.1l0.6-1l-1.3-0.4
				c-0.5-1.1-0.8-2.2-1.1-3.3l0.8-0.9l-1.1-0.6c-0.2-1.1-0.3-2.2-0.4-3.4l1-0.7l-1-0.7c0-1.2,0.2-2.3,0.4-3.4l1.1-0.6l-0.8-0.9
				c0.3-1.1,0.7-2.2,1.1-3.3l1.3-0.4l-0.6-1c0.5-1.1,1.2-2.1,1.9-3.1l1.3-0.3l-0.4-1c0.8-1,1.6-1.9,2.5-2.8l1.4-0.1l-0.1-1.1
				c1-0.9,2-1.7,3.1-2.4l1.4,0.1l0.1-1.1c1.1-0.7,2.3-1.4,3.6-2l1.3,0.3l0.3-1c1.3-0.5,2.6-1,4-1.4l1.2,0.5l0.6-1
				c1.4-0.4,2.8-0.7,4.2-0.9l1.1,0.6l0.8-0.9C252.9,405.8,254.3,405.7,255.8,405.6z"/>
			<polygon class="st7" points="358.1,408.3 350.7,410.4 362.4,434.4 369.8,432.3 			"/>
			<polygon class="st7" points="350.6,373 348.5,371.3 338.2,379 340.3,380.6 			"/>
			<path class="st7" d="M358.5,370.6l-16.2-0.9c-0.1,0-0.3,0-0.4,0c-1.6,0-2.9,1-2.9,2.3c0,1.3,1.3,2.3,2.9,2.3h0l16.1,0.9
				c0.1,0,0.3,0,0.4,0c1.6,0,2.9-1,2.9-2.3C361.5,371.6,360.2,370.6,358.5,370.6L358.5,370.6z"/>
			<polygon class="st7" points="345.7,394.9 302.8,434.9 300.2,433.5 343.1,389.5 347.1,391 			"/>
			<polygon class="st7" points="341.6,386.4 296.9,398.9 256.2,433.1 257.4,434.1 296.9,402.4 342.8,388.9 344.7,386.2 			"/>
			<polygon class="st7" points="305.3,433.4 296.1,389.1 292.2,389.6 301.5,433.9 			"/>
			<path class="st7" d="M303.3,388.8c-0.1,1.9-14.2,2.9-18.6,2.7c-4.4-0.2-9-4.2-7.6-5.3c1.4-1.2,5.5,0.6,10,1.2
				C291.6,387.9,303.4,386.8,303.3,388.8z"/>
			<polygon class="st7" points="303.3,434 256.4,434.8 256,432.5 302.9,431.8 			"/>
			<polygon class="st7" points="341,378.2 338.2,379 355.9,415.7 358.7,414.8 			"/>
			<path class="st7" d="M303.4,441c5.3,0,9.6-3.3,9.6-7.4c0-4.1-4.3-7.4-9.6-7.4s-9.6,3.3-9.6,7.4C293.9,437.7,298.2,441,303.4,441z
				"/>
			<polygon class="st7" points="304.3,433.5 302.3,433.5 309.9,449.2 311.9,449.2 			"/>
			<path class="st7" d="M318.3,447.4h-8.9c-0.9,0-1.7,0.6-1.7,1.3v0c0,0.7,0.8,1.3,1.7,1.3h8.9c0.9,0,1.7-0.6,1.7-1.3v0
				C320.1,448,319.3,447.4,318.3,447.4z"/>
			<path class="st7" d="M365.6,439.7c4.3,0,7.9-2.7,7.9-6.1c0-3.4-3.5-6.1-7.9-6.1s-7.9,2.7-7.9,6.1
				C357.7,437,361.3,439.7,365.6,439.7z"/>
			<path class="st7" d="M256.8,440.6c4.9,0,9-3.1,9-6.9c0-3.8-4-6.9-9-6.9c-4.9,0-9,3.1-9,6.9C247.8,437.5,251.8,440.6,256.8,440.6z
				"/>
		</g>
	</g>
</g>
</svg>
