<svg id="Layer_1" data-name="Layer 1" xmlns="http://www.w3.org/2000/svg" xmlns:xlink="http://www.w3.org/1999/xlink" viewBox="0 0 1920 1080"><defs><style>.cls-1{fill:url(#linear-gradient);}.cls-2{fill:#23aee1;}.cls-3{fill:url(#linear-gradient-2);}</style><linearGradient id="linear-gradient" x1="956.9" y1="552.12" x2="963.41" y2="179.37" gradientUnits="userSpaceOnUse"><stop offset="0" stop-color="#ee482c"/><stop offset="0.07" stop-color="#f05a29"/><stop offset="0.21" stop-color="#f27625"/><stop offset="0.37" stop-color="#f48c21"/><stop offset="0.53" stop-color="#f69b1f"/><stop offset="0.72" stop-color="#f7a41d"/><stop offset="1" stop-color="#f7a71d"/></linearGradient><linearGradient id="linear-gradient-2" x1="791.89" y1="527.48" x2="628.75" y2="625.5" gradientUnits="userSpaceOnUse"><stop offset="0" stop-color="#ee482c"/><stop offset="0.11" stop-color="#f05929"/><stop offset="0.36" stop-color="#f37b24"/><stop offset="0.6" stop-color="#f59320"/><stop offset="0.82" stop-color="#f7a21e"/><stop offset="1" stop-color="#f7a71d"/></linearGradient></defs><path class="cls-1" d="M1027.39,327.4c-1.79,5.08-4.53,12.6-8.16,21.6-6.41,15.91-8.57,19-14.4,33.12-6.13,14.82-10,24.48-13.31,38.28-1.79,7.45-4.43,17.22-4,30.24a155,155,0,0,0,3.6,28.08,164.13,164.13,0,0,0,5,17.64,262.48,262.48,0,0,0,21.24,46.08c-16.52-6.59-39.25-18.58-59-40.68a149.18,149.18,0,0,1-12.6-16.2,95.48,95.48,0,0,0,33.84,67c-12.95-1.23-41.76-6-64.94-28.72C872.58,482.49,887,419,888.56,412.48A154.24,154.24,0,0,1,904.4,373.6c8-13.21,14.3-18.15,24.84-33.48a219,219,0,0,0,19.08-33.84A114.51,114.51,0,0,1,952.64,375C986.76,326.8,988.52,295.3,982.88,275c-3.62-13-12.3-28.79-13.32-55.08a134.24,134.24,0,0,1,4.68-40.32,86,86,0,0,0,13.32,36.36c14.21,21.32,29.33,21.3,40,42.48,8.83,17.59,7.91,34.93,7.56,40A80.33,80.33,0,0,1,1027.39,327.4Z"/><path class="cls-2" d="M867,321.4c-39.21,28.4-61.21,73.78-56.16,118.8,3.69,32.82,22.66,73.61,54.72,90,9.57,4.89,21.1,8,38.88,20.16,13.53,9.24,25.17,17.39,32.4,32.4,7.62,15.81,6.65,31.54,5,41h-23C921.93,605.41,917,594,914.29,589c-6.65-12.22-17.75-18.5-38.69-30-12.49-6.87-20.77-10.16-25.2-12.24-33.34-15.64-55.2-59.23-61.2-95.76-2.29-14-6.09-50.11,13.68-88.56,25.17-49,70.29-66.18,80.64-69.84Z"/><path class="cls-2" d="M1047.4,558.28a167.11,167.11,0,0,0-23,17.28c-16.68,14.93-27.51,24.62-31.68,39.6-5.11,18.35-1.07,47.65,0,55.44.38,2.78,1.32,9-2.16,14.4-3.87,6-11.25,7.93-15.84,8.64l-83.52-.72c-3.67.7-11.06,1.52-16.17-2.78-5.52-4.65-5.44-12.82-5.43-17.38,0-14.58-.69-32.56-2.16-56.16a142.43,142.43,0,0,0-21-35.28c-15.54-19.07-31.89-28.68-36.78-31.92-33.47-22.17-71-104-45.88-177.6,22.5-65.8,90.77-112.07,169.2-112.32l20.92-25.2c-18.45-1.66-70.51-3.88-123.6,28.08-19.13,11.52-66.57,44.43-86.88,108-4.31,13.47-19.48,66.16,2.64,124.32,7.72,20.28,18.13,47.65,44,67.28,12.13,9.19,23.88,13.82,38.78,30.64,16.13,18.21,20.46,29.38,21.84,35.76,1.44,6.63,1.53,12.91,1.68,23a231.66,231.66,0,0,1-1.2,27.36c.27,11.32,3.8,16.53,7,19.2,4.2,3.54,9.52,4.07,12.48,9.6a15.39,15.39,0,0,1,1.68,7.44c.13,8.59-.57,27.67-2.16,52.8-.23,2.21-1.55,17.47,9.84,29a35.72,35.72,0,0,0,20.4,10.08H959.6a40.9,40.9,0,0,0,34.32-36.24v-55a11.07,11.07,0,0,1,.2-7c2.22-5.49,8.71-5.49,13.48-10.32,2.3-2.34,4-5.61,5.24-15.6,2-16.3-.84-23.73-.72-38.88.12-14.6.18-21.91,3.6-30.24,4.69-11.42,12.46-17.92,23.76-27.36a157.52,157.52,0,0,1,32.4-20.88ZM970.64,765.64a19.08,19.08,0,0,1-19.08,19.08H909.08a17.28,17.28,0,0,1-17.28-17.28V755.56h78.84Zm2.52-29.52H891.8v-21.6h81.36Z"/><rect class="cls-2" x="920" y="640.36" width="22.96" height="34.56"/><path class="cls-3" d="M839.6,619.48l-23.76,25.68-29-18.48a15.33,15.33,0,0,0-15.66-2,15.65,15.65,0,0,0-8.16,9.78l-4.62,31.26a3.4,3.4,0,0,1-2.52,3.42h-22a3.88,3.88,0,0,1-2.7-1.26,3.78,3.78,0,0,1-.91-2.35Q728,650.07,725.6,634.6a13.06,13.06,0,0,0-5.52-8.82,12.81,12.81,0,0,0-8.4-2l-32.16,18.72a3.78,3.78,0,0,1-4.08-.24L659.24,624a2.39,2.39,0,0,1-.72-1.44A2.32,2.32,0,0,1,659,621l16.69-25.23a19.22,19.22,0,0,0-.6-11.16,19,19,0,0,0-5.16-7.56l-33.6-5.76a1.91,1.91,0,0,1-2-.36,1.93,1.93,0,0,1-.36-2.28V546.15a2.11,2.11,0,0,1,.36-2.63,2.16,2.16,0,0,1,1.94-.32l30.34-2.68a18.18,18.18,0,0,0,10.56-20.33L657,490.79a2,2,0,0,1-1.09-1.39,2,2,0,0,1,.9-2L674,468.76a2.36,2.36,0,0,1,1.92-1,2.24,2.24,0,0,1,1.92,1.32l28.08,18.6a19.07,19.07,0,0,0,13.8-3.36,18.52,18.52,0,0,0,6.36-8.64l2.4-53.76H712.64L708.58,458a1.48,1.48,0,0,1-.62,1.13,1.52,1.52,0,0,1-1.42.11l-28-17.15a8.74,8.74,0,0,0-6.6-2.52,8.53,8.53,0,0,0-5.4,2.52L633.92,476.2a12.48,12.48,0,0,0-2.88,7,12.7,12.7,0,0,0,2.88,8.88l18.59,22.26a3.87,3.87,0,0,1,1.09,3.3,3.78,3.78,0,0,1-1.92,2.59l-32.52,1a5.17,5.17,0,0,0-4.32,1.08,5,5,0,0,0-1.66,3.43q-.54,26.67-1.09,53.32a6,6,0,0,0,5.75,5.17l32.4,6.72a3.89,3.89,0,0,1,1.8,1.56,4.21,4.21,0,0,1,.12,3.72l-20.64,24a9.75,9.75,0,0,0-1.32,3.72,9.86,9.86,0,0,0,.84,5.4l35.52,37.44a13.38,13.38,0,0,0,14.88,2.4l25-22.08L715.52,686a7.41,7.41,0,0,0,4.8,5.28H771.2a8.84,8.84,0,0,0,4.5-2.28,8.7,8.7,0,0,0,2.22-3.48L782,651.16a1.67,1.67,0,0,1,3.06-.72l23.58,19.68a11.61,11.61,0,0,0,7,2.28,11.49,11.49,0,0,0,5.94-1.8l18.24-19.2Z"/></svg>